G04 #@! TF.GenerationSoftware,KiCad,Pcbnew,(5.1.4)-1*
G04 #@! TF.CreationDate,2019-09-08T20:19:07+01:00*
G04 #@! TF.ProjectId,autoscreen,6175746f-7363-4726-9565-6e2e6b696361,rev?*
G04 #@! TF.SameCoordinates,Original*
G04 #@! TF.FileFunction,Soldermask,Top*
G04 #@! TF.FilePolarity,Negative*
%FSLAX46Y46*%
G04 Gerber Fmt 4.6, Leading zero omitted, Abs format (unit mm)*
G04 Created by KiCad (PCBNEW (5.1.4)-1) date 2019-09-08 20:19:07*
%MOMM*%
%LPD*%
G04 APERTURE LIST*
%ADD10C,0.100000*%
G04 APERTURE END LIST*
D10*
G36*
X167312560Y-128378827D02*
G01*
X167481579Y-128412447D01*
X167651868Y-128482983D01*
X167765469Y-128530038D01*
X167782042Y-128536903D01*
X168052451Y-128717585D01*
X168282415Y-128947549D01*
X168463097Y-129217958D01*
X168587553Y-129518421D01*
X168651000Y-129837391D01*
X168651000Y-130162609D01*
X168587553Y-130481579D01*
X168463097Y-130782042D01*
X168282415Y-131052451D01*
X168052451Y-131282415D01*
X167782042Y-131463097D01*
X167481579Y-131587553D01*
X167375256Y-131608702D01*
X167162611Y-131651000D01*
X166837389Y-131651000D01*
X166624744Y-131608702D01*
X166518421Y-131587553D01*
X166217958Y-131463097D01*
X165947549Y-131282415D01*
X165717585Y-131052451D01*
X165536903Y-130782042D01*
X165412447Y-130481579D01*
X165349000Y-130162609D01*
X165349000Y-129837391D01*
X165412447Y-129518421D01*
X165536903Y-129217958D01*
X165717585Y-128947549D01*
X165947549Y-128717585D01*
X166217958Y-128536903D01*
X166234532Y-128530038D01*
X166348132Y-128482983D01*
X166518421Y-128412447D01*
X166687440Y-128378827D01*
X166837389Y-128349000D01*
X167162611Y-128349000D01*
X167312560Y-128378827D01*
X167312560Y-128378827D01*
G37*
G36*
X107312560Y-128378827D02*
G01*
X107481579Y-128412447D01*
X107651868Y-128482983D01*
X107765469Y-128530038D01*
X107782042Y-128536903D01*
X108052451Y-128717585D01*
X108282415Y-128947549D01*
X108463097Y-129217958D01*
X108587553Y-129518421D01*
X108651000Y-129837391D01*
X108651000Y-130162609D01*
X108587553Y-130481579D01*
X108463097Y-130782042D01*
X108282415Y-131052451D01*
X108052451Y-131282415D01*
X107782042Y-131463097D01*
X107481579Y-131587553D01*
X107375256Y-131608702D01*
X107162611Y-131651000D01*
X106837389Y-131651000D01*
X106624744Y-131608702D01*
X106518421Y-131587553D01*
X106217958Y-131463097D01*
X105947549Y-131282415D01*
X105717585Y-131052451D01*
X105536903Y-130782042D01*
X105412447Y-130481579D01*
X105349000Y-130162609D01*
X105349000Y-129837391D01*
X105412447Y-129518421D01*
X105536903Y-129217958D01*
X105717585Y-128947549D01*
X105947549Y-128717585D01*
X106217958Y-128536903D01*
X106234532Y-128530038D01*
X106348132Y-128482983D01*
X106518421Y-128412447D01*
X106687440Y-128378827D01*
X106837389Y-128349000D01*
X107162611Y-128349000D01*
X107312560Y-128378827D01*
X107312560Y-128378827D01*
G37*
G36*
X138696000Y-129933000D02*
G01*
X136894000Y-129933000D01*
X136894000Y-128131000D01*
X138696000Y-128131000D01*
X138696000Y-129933000D01*
X138696000Y-129933000D01*
G37*
G36*
X145525442Y-128137518D02*
G01*
X145591627Y-128144037D01*
X145761466Y-128195557D01*
X145917991Y-128279222D01*
X145953729Y-128308552D01*
X146055186Y-128391814D01*
X146130005Y-128482983D01*
X146167778Y-128529009D01*
X146251443Y-128685534D01*
X146302963Y-128855373D01*
X146320359Y-129032000D01*
X146302963Y-129208627D01*
X146251443Y-129378466D01*
X146167778Y-129534991D01*
X146138448Y-129570729D01*
X146055186Y-129672186D01*
X145953729Y-129755448D01*
X145917991Y-129784778D01*
X145761466Y-129868443D01*
X145591627Y-129919963D01*
X145525442Y-129926482D01*
X145459260Y-129933000D01*
X145370740Y-129933000D01*
X145304558Y-129926482D01*
X145238373Y-129919963D01*
X145068534Y-129868443D01*
X144912009Y-129784778D01*
X144876271Y-129755448D01*
X144774814Y-129672186D01*
X144691552Y-129570729D01*
X144662222Y-129534991D01*
X144578557Y-129378466D01*
X144527037Y-129208627D01*
X144509641Y-129032000D01*
X144527037Y-128855373D01*
X144578557Y-128685534D01*
X144662222Y-128529009D01*
X144699995Y-128482983D01*
X144774814Y-128391814D01*
X144876271Y-128308552D01*
X144912009Y-128279222D01*
X145068534Y-128195557D01*
X145238373Y-128144037D01*
X145304558Y-128137518D01*
X145370740Y-128131000D01*
X145459260Y-128131000D01*
X145525442Y-128137518D01*
X145525442Y-128137518D01*
G37*
G36*
X150605442Y-128137518D02*
G01*
X150671627Y-128144037D01*
X150841466Y-128195557D01*
X150997991Y-128279222D01*
X151033729Y-128308552D01*
X151135186Y-128391814D01*
X151210005Y-128482983D01*
X151247778Y-128529009D01*
X151331443Y-128685534D01*
X151382963Y-128855373D01*
X151400359Y-129032000D01*
X151382963Y-129208627D01*
X151331443Y-129378466D01*
X151247778Y-129534991D01*
X151218448Y-129570729D01*
X151135186Y-129672186D01*
X151033729Y-129755448D01*
X150997991Y-129784778D01*
X150841466Y-129868443D01*
X150671627Y-129919963D01*
X150605442Y-129926482D01*
X150539260Y-129933000D01*
X150450740Y-129933000D01*
X150384558Y-129926482D01*
X150318373Y-129919963D01*
X150148534Y-129868443D01*
X149992009Y-129784778D01*
X149956271Y-129755448D01*
X149854814Y-129672186D01*
X149771552Y-129570729D01*
X149742222Y-129534991D01*
X149658557Y-129378466D01*
X149607037Y-129208627D01*
X149589641Y-129032000D01*
X149607037Y-128855373D01*
X149658557Y-128685534D01*
X149742222Y-128529009D01*
X149779995Y-128482983D01*
X149854814Y-128391814D01*
X149956271Y-128308552D01*
X149992009Y-128279222D01*
X150148534Y-128195557D01*
X150318373Y-128144037D01*
X150384558Y-128137518D01*
X150450740Y-128131000D01*
X150539260Y-128131000D01*
X150605442Y-128137518D01*
X150605442Y-128137518D01*
G37*
G36*
X148065442Y-128137518D02*
G01*
X148131627Y-128144037D01*
X148301466Y-128195557D01*
X148457991Y-128279222D01*
X148493729Y-128308552D01*
X148595186Y-128391814D01*
X148670005Y-128482983D01*
X148707778Y-128529009D01*
X148791443Y-128685534D01*
X148842963Y-128855373D01*
X148860359Y-129032000D01*
X148842963Y-129208627D01*
X148791443Y-129378466D01*
X148707778Y-129534991D01*
X148678448Y-129570729D01*
X148595186Y-129672186D01*
X148493729Y-129755448D01*
X148457991Y-129784778D01*
X148301466Y-129868443D01*
X148131627Y-129919963D01*
X148065442Y-129926482D01*
X147999260Y-129933000D01*
X147910740Y-129933000D01*
X147844558Y-129926482D01*
X147778373Y-129919963D01*
X147608534Y-129868443D01*
X147452009Y-129784778D01*
X147416271Y-129755448D01*
X147314814Y-129672186D01*
X147231552Y-129570729D01*
X147202222Y-129534991D01*
X147118557Y-129378466D01*
X147067037Y-129208627D01*
X147049641Y-129032000D01*
X147067037Y-128855373D01*
X147118557Y-128685534D01*
X147202222Y-128529009D01*
X147239995Y-128482983D01*
X147314814Y-128391814D01*
X147416271Y-128308552D01*
X147452009Y-128279222D01*
X147608534Y-128195557D01*
X147778373Y-128144037D01*
X147844558Y-128137518D01*
X147910740Y-128131000D01*
X147999260Y-128131000D01*
X148065442Y-128137518D01*
X148065442Y-128137518D01*
G37*
G36*
X140445442Y-128137518D02*
G01*
X140511627Y-128144037D01*
X140681466Y-128195557D01*
X140837991Y-128279222D01*
X140873729Y-128308552D01*
X140975186Y-128391814D01*
X141050005Y-128482983D01*
X141087778Y-128529009D01*
X141171443Y-128685534D01*
X141222963Y-128855373D01*
X141240359Y-129032000D01*
X141222963Y-129208627D01*
X141171443Y-129378466D01*
X141087778Y-129534991D01*
X141058448Y-129570729D01*
X140975186Y-129672186D01*
X140873729Y-129755448D01*
X140837991Y-129784778D01*
X140681466Y-129868443D01*
X140511627Y-129919963D01*
X140445442Y-129926482D01*
X140379260Y-129933000D01*
X140290740Y-129933000D01*
X140224558Y-129926482D01*
X140158373Y-129919963D01*
X139988534Y-129868443D01*
X139832009Y-129784778D01*
X139796271Y-129755448D01*
X139694814Y-129672186D01*
X139611552Y-129570729D01*
X139582222Y-129534991D01*
X139498557Y-129378466D01*
X139447037Y-129208627D01*
X139429641Y-129032000D01*
X139447037Y-128855373D01*
X139498557Y-128685534D01*
X139582222Y-128529009D01*
X139619995Y-128482983D01*
X139694814Y-128391814D01*
X139796271Y-128308552D01*
X139832009Y-128279222D01*
X139988534Y-128195557D01*
X140158373Y-128144037D01*
X140224558Y-128137518D01*
X140290740Y-128131000D01*
X140379260Y-128131000D01*
X140445442Y-128137518D01*
X140445442Y-128137518D01*
G37*
G36*
X142985442Y-128137518D02*
G01*
X143051627Y-128144037D01*
X143221466Y-128195557D01*
X143377991Y-128279222D01*
X143413729Y-128308552D01*
X143515186Y-128391814D01*
X143590005Y-128482983D01*
X143627778Y-128529009D01*
X143711443Y-128685534D01*
X143762963Y-128855373D01*
X143780359Y-129032000D01*
X143762963Y-129208627D01*
X143711443Y-129378466D01*
X143627778Y-129534991D01*
X143598448Y-129570729D01*
X143515186Y-129672186D01*
X143413729Y-129755448D01*
X143377991Y-129784778D01*
X143221466Y-129868443D01*
X143051627Y-129919963D01*
X142985442Y-129926482D01*
X142919260Y-129933000D01*
X142830740Y-129933000D01*
X142764558Y-129926482D01*
X142698373Y-129919963D01*
X142528534Y-129868443D01*
X142372009Y-129784778D01*
X142336271Y-129755448D01*
X142234814Y-129672186D01*
X142151552Y-129570729D01*
X142122222Y-129534991D01*
X142038557Y-129378466D01*
X141987037Y-129208627D01*
X141969641Y-129032000D01*
X141987037Y-128855373D01*
X142038557Y-128685534D01*
X142122222Y-128529009D01*
X142159995Y-128482983D01*
X142234814Y-128391814D01*
X142336271Y-128308552D01*
X142372009Y-128279222D01*
X142528534Y-128195557D01*
X142698373Y-128144037D01*
X142764558Y-128137518D01*
X142830740Y-128131000D01*
X142919260Y-128131000D01*
X142985442Y-128137518D01*
X142985442Y-128137518D01*
G37*
G36*
X126953674Y-127403465D02*
G01*
X126991367Y-127414899D01*
X127026103Y-127433466D01*
X127056548Y-127458452D01*
X127081534Y-127488897D01*
X127100101Y-127523633D01*
X127111535Y-127561326D01*
X127116000Y-127606661D01*
X127116000Y-128443339D01*
X127111535Y-128488674D01*
X127100101Y-128526367D01*
X127081534Y-128561103D01*
X127056548Y-128591548D01*
X127026103Y-128616534D01*
X126991367Y-128635101D01*
X126953674Y-128646535D01*
X126908339Y-128651000D01*
X125821661Y-128651000D01*
X125776326Y-128646535D01*
X125738633Y-128635101D01*
X125703897Y-128616534D01*
X125673452Y-128591548D01*
X125648466Y-128561103D01*
X125629899Y-128526367D01*
X125618465Y-128488674D01*
X125614000Y-128443339D01*
X125614000Y-127606661D01*
X125618465Y-127561326D01*
X125629899Y-127523633D01*
X125648466Y-127488897D01*
X125673452Y-127458452D01*
X125703897Y-127433466D01*
X125738633Y-127414899D01*
X125776326Y-127403465D01*
X125821661Y-127399000D01*
X126908339Y-127399000D01*
X126953674Y-127403465D01*
X126953674Y-127403465D01*
G37*
G36*
X122832395Y-125450546D02*
G01*
X123005466Y-125522234D01*
X123074072Y-125568075D01*
X123161227Y-125626310D01*
X123293690Y-125758773D01*
X123293691Y-125758775D01*
X123397766Y-125914534D01*
X123469454Y-126087605D01*
X123506000Y-126271333D01*
X123506000Y-126458667D01*
X123469454Y-126642395D01*
X123397766Y-126815466D01*
X123397765Y-126815467D01*
X123293690Y-126971227D01*
X123161227Y-127103690D01*
X123082818Y-127156081D01*
X123005466Y-127207766D01*
X122832395Y-127279454D01*
X122648667Y-127316000D01*
X122461333Y-127316000D01*
X122277605Y-127279454D01*
X122104534Y-127207766D01*
X122027182Y-127156081D01*
X121948773Y-127103690D01*
X121816310Y-126971227D01*
X121712235Y-126815467D01*
X121712234Y-126815466D01*
X121640546Y-126642395D01*
X121604000Y-126458667D01*
X121604000Y-126271333D01*
X121640546Y-126087605D01*
X121712234Y-125914534D01*
X121816309Y-125758775D01*
X121816310Y-125758773D01*
X121948773Y-125626310D01*
X122035928Y-125568075D01*
X122104534Y-125522234D01*
X122277605Y-125450546D01*
X122461333Y-125414000D01*
X122648667Y-125414000D01*
X122832395Y-125450546D01*
X122832395Y-125450546D01*
G37*
G36*
X133627395Y-125450546D02*
G01*
X133800466Y-125522234D01*
X133869072Y-125568075D01*
X133956227Y-125626310D01*
X134088690Y-125758773D01*
X134088691Y-125758775D01*
X134192766Y-125914534D01*
X134264454Y-126087605D01*
X134301000Y-126271333D01*
X134301000Y-126458667D01*
X134264454Y-126642395D01*
X134192766Y-126815466D01*
X134192765Y-126815467D01*
X134088690Y-126971227D01*
X133956227Y-127103690D01*
X133877818Y-127156081D01*
X133800466Y-127207766D01*
X133627395Y-127279454D01*
X133443667Y-127316000D01*
X133256333Y-127316000D01*
X133072605Y-127279454D01*
X132899534Y-127207766D01*
X132822182Y-127156081D01*
X132743773Y-127103690D01*
X132611310Y-126971227D01*
X132507235Y-126815467D01*
X132507234Y-126815466D01*
X132435546Y-126642395D01*
X132399000Y-126458667D01*
X132399000Y-126271333D01*
X132435546Y-126087605D01*
X132507234Y-125914534D01*
X132611309Y-125758775D01*
X132611310Y-125758773D01*
X132743773Y-125626310D01*
X132830928Y-125568075D01*
X132899534Y-125522234D01*
X133072605Y-125450546D01*
X133256333Y-125414000D01*
X133443667Y-125414000D01*
X133627395Y-125450546D01*
X133627395Y-125450546D01*
G37*
G36*
X120966000Y-127316000D02*
G01*
X119064000Y-127316000D01*
X119064000Y-125414000D01*
X120966000Y-125414000D01*
X120966000Y-127316000D01*
X120966000Y-127316000D01*
G37*
G36*
X131761000Y-127316000D02*
G01*
X129859000Y-127316000D01*
X129859000Y-125414000D01*
X131761000Y-125414000D01*
X131761000Y-127316000D01*
X131761000Y-127316000D01*
G37*
G36*
X126953674Y-125353465D02*
G01*
X126991367Y-125364899D01*
X127026103Y-125383466D01*
X127056548Y-125408452D01*
X127081534Y-125438897D01*
X127100101Y-125473633D01*
X127111535Y-125511326D01*
X127116000Y-125556661D01*
X127116000Y-126393339D01*
X127111535Y-126438674D01*
X127100101Y-126476367D01*
X127081534Y-126511103D01*
X127056548Y-126541548D01*
X127026103Y-126566534D01*
X126991367Y-126585101D01*
X126953674Y-126596535D01*
X126908339Y-126601000D01*
X125821661Y-126601000D01*
X125776326Y-126596535D01*
X125738633Y-126585101D01*
X125703897Y-126566534D01*
X125673452Y-126541548D01*
X125648466Y-126511103D01*
X125629899Y-126476367D01*
X125618465Y-126438674D01*
X125614000Y-126393339D01*
X125614000Y-125556661D01*
X125618465Y-125511326D01*
X125629899Y-125473633D01*
X125648466Y-125438897D01*
X125673452Y-125408452D01*
X125703897Y-125383466D01*
X125738633Y-125364899D01*
X125776326Y-125353465D01*
X125821661Y-125349000D01*
X126908339Y-125349000D01*
X126953674Y-125353465D01*
X126953674Y-125353465D01*
G37*
G36*
X127708674Y-123205465D02*
G01*
X127746367Y-123216899D01*
X127781103Y-123235466D01*
X127811548Y-123260452D01*
X127836534Y-123290897D01*
X127855101Y-123325633D01*
X127866535Y-123363326D01*
X127871000Y-123408661D01*
X127871000Y-124495339D01*
X127866535Y-124540674D01*
X127855101Y-124578367D01*
X127836534Y-124613103D01*
X127811548Y-124643548D01*
X127781103Y-124668534D01*
X127746367Y-124687101D01*
X127708674Y-124698535D01*
X127663339Y-124703000D01*
X126826661Y-124703000D01*
X126781326Y-124698535D01*
X126743633Y-124687101D01*
X126708897Y-124668534D01*
X126678452Y-124643548D01*
X126653466Y-124613103D01*
X126634899Y-124578367D01*
X126623465Y-124540674D01*
X126619000Y-124495339D01*
X126619000Y-123408661D01*
X126623465Y-123363326D01*
X126634899Y-123325633D01*
X126653466Y-123290897D01*
X126678452Y-123260452D01*
X126708897Y-123235466D01*
X126743633Y-123216899D01*
X126781326Y-123205465D01*
X126826661Y-123201000D01*
X127663339Y-123201000D01*
X127708674Y-123205465D01*
X127708674Y-123205465D01*
G37*
G36*
X123408674Y-123205465D02*
G01*
X123446367Y-123216899D01*
X123481103Y-123235466D01*
X123511548Y-123260452D01*
X123536534Y-123290897D01*
X123555101Y-123325633D01*
X123566535Y-123363326D01*
X123571000Y-123408661D01*
X123571000Y-124495339D01*
X123566535Y-124540674D01*
X123555101Y-124578367D01*
X123536534Y-124613103D01*
X123511548Y-124643548D01*
X123481103Y-124668534D01*
X123446367Y-124687101D01*
X123408674Y-124698535D01*
X123363339Y-124703000D01*
X122526661Y-124703000D01*
X122481326Y-124698535D01*
X122443633Y-124687101D01*
X122408897Y-124668534D01*
X122378452Y-124643548D01*
X122353466Y-124613103D01*
X122334899Y-124578367D01*
X122323465Y-124540674D01*
X122319000Y-124495339D01*
X122319000Y-123408661D01*
X122323465Y-123363326D01*
X122334899Y-123325633D01*
X122353466Y-123290897D01*
X122378452Y-123260452D01*
X122408897Y-123235466D01*
X122443633Y-123216899D01*
X122481326Y-123205465D01*
X122526661Y-123201000D01*
X123363339Y-123201000D01*
X123408674Y-123205465D01*
X123408674Y-123205465D01*
G37*
G36*
X121358674Y-123205465D02*
G01*
X121396367Y-123216899D01*
X121431103Y-123235466D01*
X121461548Y-123260452D01*
X121486534Y-123290897D01*
X121505101Y-123325633D01*
X121516535Y-123363326D01*
X121521000Y-123408661D01*
X121521000Y-124495339D01*
X121516535Y-124540674D01*
X121505101Y-124578367D01*
X121486534Y-124613103D01*
X121461548Y-124643548D01*
X121431103Y-124668534D01*
X121396367Y-124687101D01*
X121358674Y-124698535D01*
X121313339Y-124703000D01*
X120476661Y-124703000D01*
X120431326Y-124698535D01*
X120393633Y-124687101D01*
X120358897Y-124668534D01*
X120328452Y-124643548D01*
X120303466Y-124613103D01*
X120284899Y-124578367D01*
X120273465Y-124540674D01*
X120269000Y-124495339D01*
X120269000Y-123408661D01*
X120273465Y-123363326D01*
X120284899Y-123325633D01*
X120303466Y-123290897D01*
X120328452Y-123260452D01*
X120358897Y-123235466D01*
X120393633Y-123216899D01*
X120431326Y-123205465D01*
X120476661Y-123201000D01*
X121313339Y-123201000D01*
X121358674Y-123205465D01*
X121358674Y-123205465D01*
G37*
G36*
X129758674Y-123205465D02*
G01*
X129796367Y-123216899D01*
X129831103Y-123235466D01*
X129861548Y-123260452D01*
X129886534Y-123290897D01*
X129905101Y-123325633D01*
X129916535Y-123363326D01*
X129921000Y-123408661D01*
X129921000Y-124495339D01*
X129916535Y-124540674D01*
X129905101Y-124578367D01*
X129886534Y-124613103D01*
X129861548Y-124643548D01*
X129831103Y-124668534D01*
X129796367Y-124687101D01*
X129758674Y-124698535D01*
X129713339Y-124703000D01*
X128876661Y-124703000D01*
X128831326Y-124698535D01*
X128793633Y-124687101D01*
X128758897Y-124668534D01*
X128728452Y-124643548D01*
X128703466Y-124613103D01*
X128684899Y-124578367D01*
X128673465Y-124540674D01*
X128669000Y-124495339D01*
X128669000Y-123408661D01*
X128673465Y-123363326D01*
X128684899Y-123325633D01*
X128703466Y-123290897D01*
X128728452Y-123260452D01*
X128758897Y-123235466D01*
X128793633Y-123216899D01*
X128831326Y-123205465D01*
X128876661Y-123201000D01*
X129713339Y-123201000D01*
X129758674Y-123205465D01*
X129758674Y-123205465D01*
G37*
G36*
X144733674Y-122323465D02*
G01*
X144771367Y-122334899D01*
X144806103Y-122353466D01*
X144836548Y-122378452D01*
X144861534Y-122408897D01*
X144880101Y-122443633D01*
X144891535Y-122481326D01*
X144896000Y-122526661D01*
X144896000Y-123363339D01*
X144891535Y-123408674D01*
X144880101Y-123446367D01*
X144861534Y-123481103D01*
X144836548Y-123511548D01*
X144806103Y-123536534D01*
X144771367Y-123555101D01*
X144733674Y-123566535D01*
X144688339Y-123571000D01*
X143601661Y-123571000D01*
X143556326Y-123566535D01*
X143518633Y-123555101D01*
X143483897Y-123536534D01*
X143453452Y-123511548D01*
X143428466Y-123481103D01*
X143409899Y-123446367D01*
X143398465Y-123408674D01*
X143394000Y-123363339D01*
X143394000Y-122526661D01*
X143398465Y-122481326D01*
X143409899Y-122443633D01*
X143428466Y-122408897D01*
X143453452Y-122378452D01*
X143483897Y-122353466D01*
X143518633Y-122334899D01*
X143556326Y-122323465D01*
X143601661Y-122319000D01*
X144688339Y-122319000D01*
X144733674Y-122323465D01*
X144733674Y-122323465D01*
G37*
G36*
X135208674Y-122323465D02*
G01*
X135246367Y-122334899D01*
X135281103Y-122353466D01*
X135311548Y-122378452D01*
X135336534Y-122408897D01*
X135355101Y-122443633D01*
X135366535Y-122481326D01*
X135371000Y-122526661D01*
X135371000Y-123363339D01*
X135366535Y-123408674D01*
X135355101Y-123446367D01*
X135336534Y-123481103D01*
X135311548Y-123511548D01*
X135281103Y-123536534D01*
X135246367Y-123555101D01*
X135208674Y-123566535D01*
X135163339Y-123571000D01*
X134076661Y-123571000D01*
X134031326Y-123566535D01*
X133993633Y-123555101D01*
X133958897Y-123536534D01*
X133928452Y-123511548D01*
X133903466Y-123481103D01*
X133884899Y-123446367D01*
X133873465Y-123408674D01*
X133869000Y-123363339D01*
X133869000Y-122526661D01*
X133873465Y-122481326D01*
X133884899Y-122443633D01*
X133903466Y-122408897D01*
X133928452Y-122378452D01*
X133958897Y-122353466D01*
X133993633Y-122334899D01*
X134031326Y-122323465D01*
X134076661Y-122319000D01*
X135163339Y-122319000D01*
X135208674Y-122323465D01*
X135208674Y-122323465D01*
G37*
G36*
X138383674Y-122323465D02*
G01*
X138421367Y-122334899D01*
X138456103Y-122353466D01*
X138486548Y-122378452D01*
X138511534Y-122408897D01*
X138530101Y-122443633D01*
X138541535Y-122481326D01*
X138546000Y-122526661D01*
X138546000Y-123363339D01*
X138541535Y-123408674D01*
X138530101Y-123446367D01*
X138511534Y-123481103D01*
X138486548Y-123511548D01*
X138456103Y-123536534D01*
X138421367Y-123555101D01*
X138383674Y-123566535D01*
X138338339Y-123571000D01*
X137251661Y-123571000D01*
X137206326Y-123566535D01*
X137168633Y-123555101D01*
X137133897Y-123536534D01*
X137103452Y-123511548D01*
X137078466Y-123481103D01*
X137059899Y-123446367D01*
X137048465Y-123408674D01*
X137044000Y-123363339D01*
X137044000Y-122526661D01*
X137048465Y-122481326D01*
X137059899Y-122443633D01*
X137078466Y-122408897D01*
X137103452Y-122378452D01*
X137133897Y-122353466D01*
X137168633Y-122334899D01*
X137206326Y-122323465D01*
X137251661Y-122319000D01*
X138338339Y-122319000D01*
X138383674Y-122323465D01*
X138383674Y-122323465D01*
G37*
G36*
X141558674Y-122323465D02*
G01*
X141596367Y-122334899D01*
X141631103Y-122353466D01*
X141661548Y-122378452D01*
X141686534Y-122408897D01*
X141705101Y-122443633D01*
X141716535Y-122481326D01*
X141721000Y-122526661D01*
X141721000Y-123363339D01*
X141716535Y-123408674D01*
X141705101Y-123446367D01*
X141686534Y-123481103D01*
X141661548Y-123511548D01*
X141631103Y-123536534D01*
X141596367Y-123555101D01*
X141558674Y-123566535D01*
X141513339Y-123571000D01*
X140426661Y-123571000D01*
X140381326Y-123566535D01*
X140343633Y-123555101D01*
X140308897Y-123536534D01*
X140278452Y-123511548D01*
X140253466Y-123481103D01*
X140234899Y-123446367D01*
X140223465Y-123408674D01*
X140219000Y-123363339D01*
X140219000Y-122526661D01*
X140223465Y-122481326D01*
X140234899Y-122443633D01*
X140253466Y-122408897D01*
X140278452Y-122378452D01*
X140308897Y-122353466D01*
X140343633Y-122334899D01*
X140381326Y-122323465D01*
X140426661Y-122319000D01*
X141513339Y-122319000D01*
X141558674Y-122323465D01*
X141558674Y-122323465D01*
G37*
G36*
X154721000Y-122971000D02*
G01*
X152619000Y-122971000D01*
X152619000Y-120869000D01*
X154721000Y-120869000D01*
X154721000Y-122971000D01*
X154721000Y-122971000D01*
G37*
G36*
X148976564Y-120909389D02*
G01*
X149167833Y-120988615D01*
X149167835Y-120988616D01*
X149339973Y-121103635D01*
X149486365Y-121250027D01*
X149558961Y-121358674D01*
X149601385Y-121422167D01*
X149680611Y-121613436D01*
X149721000Y-121816484D01*
X149721000Y-122023516D01*
X149680611Y-122226564D01*
X149605086Y-122408897D01*
X149601384Y-122417835D01*
X149486365Y-122589973D01*
X149339973Y-122736365D01*
X149167835Y-122851384D01*
X149167834Y-122851385D01*
X149167833Y-122851385D01*
X148976564Y-122930611D01*
X148773516Y-122971000D01*
X148566484Y-122971000D01*
X148363436Y-122930611D01*
X148172167Y-122851385D01*
X148172166Y-122851385D01*
X148172165Y-122851384D01*
X148000027Y-122736365D01*
X147853635Y-122589973D01*
X147738616Y-122417835D01*
X147734914Y-122408897D01*
X147659389Y-122226564D01*
X147619000Y-122023516D01*
X147619000Y-121816484D01*
X147659389Y-121613436D01*
X147738615Y-121422167D01*
X147781040Y-121358674D01*
X147853635Y-121250027D01*
X148000027Y-121103635D01*
X148172165Y-120988616D01*
X148172167Y-120988615D01*
X148363436Y-120909389D01*
X148566484Y-120869000D01*
X148773516Y-120869000D01*
X148976564Y-120909389D01*
X148976564Y-120909389D01*
G37*
G36*
X112049000Y-122702000D02*
G01*
X109947000Y-122702000D01*
X109947000Y-114725000D01*
X112049000Y-114725000D01*
X112049000Y-122702000D01*
X112049000Y-122702000D01*
G37*
G36*
X132668674Y-121443465D02*
G01*
X132706367Y-121454899D01*
X132741103Y-121473466D01*
X132771548Y-121498452D01*
X132796534Y-121528897D01*
X132815101Y-121563633D01*
X132826535Y-121601326D01*
X132831000Y-121646661D01*
X132831000Y-122483339D01*
X132826535Y-122528674D01*
X132815101Y-122566367D01*
X132796534Y-122601103D01*
X132771548Y-122631548D01*
X132741103Y-122656534D01*
X132706367Y-122675101D01*
X132668674Y-122686535D01*
X132623339Y-122691000D01*
X131536661Y-122691000D01*
X131491326Y-122686535D01*
X131453633Y-122675101D01*
X131418897Y-122656534D01*
X131388452Y-122631548D01*
X131363466Y-122601103D01*
X131344899Y-122566367D01*
X131333465Y-122528674D01*
X131329000Y-122483339D01*
X131329000Y-121646661D01*
X131333465Y-121601326D01*
X131344899Y-121563633D01*
X131363466Y-121528897D01*
X131388452Y-121498452D01*
X131418897Y-121473466D01*
X131453633Y-121454899D01*
X131491326Y-121443465D01*
X131536661Y-121439000D01*
X132623339Y-121439000D01*
X132668674Y-121443465D01*
X132668674Y-121443465D01*
G37*
G36*
X115650674Y-121053465D02*
G01*
X115688367Y-121064899D01*
X115723103Y-121083466D01*
X115753548Y-121108452D01*
X115778534Y-121138897D01*
X115797101Y-121173633D01*
X115808535Y-121211326D01*
X115813000Y-121256661D01*
X115813000Y-122093339D01*
X115808535Y-122138674D01*
X115797101Y-122176367D01*
X115778534Y-122211103D01*
X115753548Y-122241548D01*
X115723103Y-122266534D01*
X115688367Y-122285101D01*
X115650674Y-122296535D01*
X115605339Y-122301000D01*
X114518661Y-122301000D01*
X114473326Y-122296535D01*
X114435633Y-122285101D01*
X114400897Y-122266534D01*
X114370452Y-122241548D01*
X114345466Y-122211103D01*
X114326899Y-122176367D01*
X114315465Y-122138674D01*
X114311000Y-122093339D01*
X114311000Y-121256661D01*
X114315465Y-121211326D01*
X114326899Y-121173633D01*
X114345466Y-121138897D01*
X114370452Y-121108452D01*
X114400897Y-121083466D01*
X114435633Y-121064899D01*
X114473326Y-121053465D01*
X114518661Y-121049000D01*
X115605339Y-121049000D01*
X115650674Y-121053465D01*
X115650674Y-121053465D01*
G37*
G36*
X144733674Y-120273465D02*
G01*
X144771367Y-120284899D01*
X144806103Y-120303466D01*
X144836548Y-120328452D01*
X144861534Y-120358897D01*
X144880101Y-120393633D01*
X144891535Y-120431326D01*
X144896000Y-120476661D01*
X144896000Y-121313339D01*
X144891535Y-121358674D01*
X144880101Y-121396367D01*
X144861534Y-121431103D01*
X144836548Y-121461548D01*
X144806103Y-121486534D01*
X144771367Y-121505101D01*
X144733674Y-121516535D01*
X144688339Y-121521000D01*
X143601661Y-121521000D01*
X143556326Y-121516535D01*
X143518633Y-121505101D01*
X143483897Y-121486534D01*
X143453452Y-121461548D01*
X143428466Y-121431103D01*
X143409899Y-121396367D01*
X143398465Y-121358674D01*
X143394000Y-121313339D01*
X143394000Y-120476661D01*
X143398465Y-120431326D01*
X143409899Y-120393633D01*
X143428466Y-120358897D01*
X143453452Y-120328452D01*
X143483897Y-120303466D01*
X143518633Y-120284899D01*
X143556326Y-120273465D01*
X143601661Y-120269000D01*
X144688339Y-120269000D01*
X144733674Y-120273465D01*
X144733674Y-120273465D01*
G37*
G36*
X141558674Y-120273465D02*
G01*
X141596367Y-120284899D01*
X141631103Y-120303466D01*
X141661548Y-120328452D01*
X141686534Y-120358897D01*
X141705101Y-120393633D01*
X141716535Y-120431326D01*
X141721000Y-120476661D01*
X141721000Y-121313339D01*
X141716535Y-121358674D01*
X141705101Y-121396367D01*
X141686534Y-121431103D01*
X141661548Y-121461548D01*
X141631103Y-121486534D01*
X141596367Y-121505101D01*
X141558674Y-121516535D01*
X141513339Y-121521000D01*
X140426661Y-121521000D01*
X140381326Y-121516535D01*
X140343633Y-121505101D01*
X140308897Y-121486534D01*
X140278452Y-121461548D01*
X140253466Y-121431103D01*
X140234899Y-121396367D01*
X140223465Y-121358674D01*
X140219000Y-121313339D01*
X140219000Y-120476661D01*
X140223465Y-120431326D01*
X140234899Y-120393633D01*
X140253466Y-120358897D01*
X140278452Y-120328452D01*
X140308897Y-120303466D01*
X140343633Y-120284899D01*
X140381326Y-120273465D01*
X140426661Y-120269000D01*
X141513339Y-120269000D01*
X141558674Y-120273465D01*
X141558674Y-120273465D01*
G37*
G36*
X138383674Y-120273465D02*
G01*
X138421367Y-120284899D01*
X138456103Y-120303466D01*
X138486548Y-120328452D01*
X138511534Y-120358897D01*
X138530101Y-120393633D01*
X138541535Y-120431326D01*
X138546000Y-120476661D01*
X138546000Y-121313339D01*
X138541535Y-121358674D01*
X138530101Y-121396367D01*
X138511534Y-121431103D01*
X138486548Y-121461548D01*
X138456103Y-121486534D01*
X138421367Y-121505101D01*
X138383674Y-121516535D01*
X138338339Y-121521000D01*
X137251661Y-121521000D01*
X137206326Y-121516535D01*
X137168633Y-121505101D01*
X137133897Y-121486534D01*
X137103452Y-121461548D01*
X137078466Y-121431103D01*
X137059899Y-121396367D01*
X137048465Y-121358674D01*
X137044000Y-121313339D01*
X137044000Y-120476661D01*
X137048465Y-120431326D01*
X137059899Y-120393633D01*
X137078466Y-120358897D01*
X137103452Y-120328452D01*
X137133897Y-120303466D01*
X137168633Y-120284899D01*
X137206326Y-120273465D01*
X137251661Y-120269000D01*
X138338339Y-120269000D01*
X138383674Y-120273465D01*
X138383674Y-120273465D01*
G37*
G36*
X135208674Y-120273465D02*
G01*
X135246367Y-120284899D01*
X135281103Y-120303466D01*
X135311548Y-120328452D01*
X135336534Y-120358897D01*
X135355101Y-120393633D01*
X135366535Y-120431326D01*
X135371000Y-120476661D01*
X135371000Y-121313339D01*
X135366535Y-121358674D01*
X135355101Y-121396367D01*
X135336534Y-121431103D01*
X135311548Y-121461548D01*
X135281103Y-121486534D01*
X135246367Y-121505101D01*
X135208674Y-121516535D01*
X135163339Y-121521000D01*
X134076661Y-121521000D01*
X134031326Y-121516535D01*
X133993633Y-121505101D01*
X133958897Y-121486534D01*
X133928452Y-121461548D01*
X133903466Y-121431103D01*
X133884899Y-121396367D01*
X133873465Y-121358674D01*
X133869000Y-121313339D01*
X133869000Y-120476661D01*
X133873465Y-120431326D01*
X133884899Y-120393633D01*
X133903466Y-120358897D01*
X133928452Y-120328452D01*
X133958897Y-120303466D01*
X133993633Y-120284899D01*
X134031326Y-120273465D01*
X134076661Y-120269000D01*
X135163339Y-120269000D01*
X135208674Y-120273465D01*
X135208674Y-120273465D01*
G37*
G36*
X121515295Y-119150323D02*
G01*
X121522309Y-119152451D01*
X121536077Y-119159810D01*
X121558716Y-119169187D01*
X121582749Y-119173967D01*
X121607253Y-119173967D01*
X121631286Y-119169186D01*
X121653923Y-119159810D01*
X121667691Y-119152451D01*
X121674705Y-119150323D01*
X121688140Y-119149000D01*
X122001860Y-119149000D01*
X122015295Y-119150323D01*
X122022309Y-119152451D01*
X122036077Y-119159810D01*
X122058716Y-119169187D01*
X122082749Y-119173967D01*
X122107253Y-119173967D01*
X122131286Y-119169186D01*
X122153923Y-119159810D01*
X122167691Y-119152451D01*
X122174705Y-119150323D01*
X122188140Y-119149000D01*
X122501860Y-119149000D01*
X122515295Y-119150323D01*
X122522309Y-119152451D01*
X122536077Y-119159810D01*
X122558716Y-119169187D01*
X122582749Y-119173967D01*
X122607253Y-119173967D01*
X122631286Y-119169186D01*
X122653923Y-119159810D01*
X122667691Y-119152451D01*
X122674705Y-119150323D01*
X122688140Y-119149000D01*
X123001860Y-119149000D01*
X123015295Y-119150323D01*
X123022309Y-119152451D01*
X123036077Y-119159810D01*
X123058716Y-119169187D01*
X123082749Y-119173967D01*
X123107253Y-119173967D01*
X123131286Y-119169186D01*
X123153923Y-119159810D01*
X123167691Y-119152451D01*
X123174705Y-119150323D01*
X123188140Y-119149000D01*
X123501860Y-119149000D01*
X123515295Y-119150323D01*
X123522309Y-119152451D01*
X123536077Y-119159810D01*
X123558716Y-119169187D01*
X123582749Y-119173967D01*
X123607253Y-119173967D01*
X123631286Y-119169186D01*
X123653923Y-119159810D01*
X123667691Y-119152451D01*
X123674705Y-119150323D01*
X123688140Y-119149000D01*
X124001860Y-119149000D01*
X124015295Y-119150323D01*
X124022309Y-119152451D01*
X124036077Y-119159810D01*
X124058716Y-119169187D01*
X124082749Y-119173967D01*
X124107253Y-119173967D01*
X124131286Y-119169186D01*
X124153923Y-119159810D01*
X124167691Y-119152451D01*
X124174705Y-119150323D01*
X124188140Y-119149000D01*
X124501860Y-119149000D01*
X124515295Y-119150323D01*
X124522309Y-119152451D01*
X124536077Y-119159810D01*
X124558716Y-119169187D01*
X124582749Y-119173967D01*
X124607253Y-119173967D01*
X124631286Y-119169186D01*
X124653923Y-119159810D01*
X124667691Y-119152451D01*
X124674705Y-119150323D01*
X124688140Y-119149000D01*
X125001860Y-119149000D01*
X125015295Y-119150323D01*
X125022309Y-119152451D01*
X125036077Y-119159810D01*
X125058716Y-119169187D01*
X125082749Y-119173967D01*
X125107253Y-119173967D01*
X125131286Y-119169186D01*
X125153923Y-119159810D01*
X125167691Y-119152451D01*
X125174705Y-119150323D01*
X125188140Y-119149000D01*
X125501860Y-119149000D01*
X125515295Y-119150323D01*
X125522309Y-119152451D01*
X125536077Y-119159810D01*
X125558716Y-119169187D01*
X125582749Y-119173967D01*
X125607253Y-119173967D01*
X125631286Y-119169186D01*
X125653923Y-119159810D01*
X125667691Y-119152451D01*
X125674705Y-119150323D01*
X125688140Y-119149000D01*
X126001860Y-119149000D01*
X126015295Y-119150323D01*
X126022309Y-119152451D01*
X126036077Y-119159810D01*
X126058716Y-119169187D01*
X126082749Y-119173967D01*
X126107253Y-119173967D01*
X126131286Y-119169186D01*
X126153923Y-119159810D01*
X126167691Y-119152451D01*
X126174705Y-119150323D01*
X126188140Y-119149000D01*
X126501860Y-119149000D01*
X126515295Y-119150323D01*
X126522309Y-119152451D01*
X126536077Y-119159810D01*
X126558716Y-119169187D01*
X126582749Y-119173967D01*
X126607253Y-119173967D01*
X126631286Y-119169186D01*
X126653923Y-119159810D01*
X126667691Y-119152451D01*
X126674705Y-119150323D01*
X126688140Y-119149000D01*
X127001860Y-119149000D01*
X127015295Y-119150323D01*
X127022309Y-119152451D01*
X127036077Y-119159810D01*
X127058716Y-119169187D01*
X127082749Y-119173967D01*
X127107253Y-119173967D01*
X127131286Y-119169186D01*
X127153923Y-119159810D01*
X127167691Y-119152451D01*
X127174705Y-119150323D01*
X127188140Y-119149000D01*
X127501860Y-119149000D01*
X127515295Y-119150323D01*
X127522309Y-119152451D01*
X127536077Y-119159810D01*
X127558716Y-119169187D01*
X127582749Y-119173967D01*
X127607253Y-119173967D01*
X127631286Y-119169186D01*
X127653923Y-119159810D01*
X127667691Y-119152451D01*
X127674705Y-119150323D01*
X127688140Y-119149000D01*
X128001860Y-119149000D01*
X128015295Y-119150323D01*
X128022309Y-119152451D01*
X128036077Y-119159810D01*
X128058716Y-119169187D01*
X128082749Y-119173967D01*
X128107253Y-119173967D01*
X128131286Y-119169186D01*
X128153923Y-119159810D01*
X128167691Y-119152451D01*
X128174705Y-119150323D01*
X128188140Y-119149000D01*
X128501860Y-119149000D01*
X128515295Y-119150323D01*
X128522309Y-119152451D01*
X128536077Y-119159810D01*
X128558716Y-119169187D01*
X128582749Y-119173967D01*
X128607253Y-119173967D01*
X128631286Y-119169186D01*
X128653923Y-119159810D01*
X128667691Y-119152451D01*
X128674705Y-119150323D01*
X128688140Y-119149000D01*
X129001860Y-119149000D01*
X129015295Y-119150323D01*
X129022310Y-119152451D01*
X129028776Y-119155908D01*
X129034442Y-119160558D01*
X129039092Y-119166224D01*
X129042549Y-119172690D01*
X129044677Y-119179705D01*
X129046000Y-119193140D01*
X129046000Y-120756860D01*
X129044677Y-120770295D01*
X129042549Y-120777310D01*
X129039092Y-120783776D01*
X129034442Y-120789442D01*
X129028776Y-120794092D01*
X129022310Y-120797549D01*
X129015295Y-120799677D01*
X129001860Y-120801000D01*
X128688140Y-120801000D01*
X128674705Y-120799677D01*
X128667691Y-120797549D01*
X128653923Y-120790190D01*
X128631284Y-120780813D01*
X128607251Y-120776033D01*
X128582747Y-120776033D01*
X128558714Y-120780814D01*
X128536077Y-120790190D01*
X128522309Y-120797549D01*
X128515295Y-120799677D01*
X128501860Y-120801000D01*
X128188140Y-120801000D01*
X128174705Y-120799677D01*
X128167691Y-120797549D01*
X128153923Y-120790190D01*
X128131284Y-120780813D01*
X128107251Y-120776033D01*
X128082747Y-120776033D01*
X128058714Y-120780814D01*
X128036077Y-120790190D01*
X128022309Y-120797549D01*
X128015295Y-120799677D01*
X128001860Y-120801000D01*
X127688140Y-120801000D01*
X127674705Y-120799677D01*
X127667691Y-120797549D01*
X127653923Y-120790190D01*
X127631284Y-120780813D01*
X127607251Y-120776033D01*
X127582747Y-120776033D01*
X127558714Y-120780814D01*
X127536077Y-120790190D01*
X127522309Y-120797549D01*
X127515295Y-120799677D01*
X127501860Y-120801000D01*
X127188140Y-120801000D01*
X127174705Y-120799677D01*
X127167691Y-120797549D01*
X127153923Y-120790190D01*
X127131284Y-120780813D01*
X127107251Y-120776033D01*
X127082747Y-120776033D01*
X127058714Y-120780814D01*
X127036077Y-120790190D01*
X127022309Y-120797549D01*
X127015295Y-120799677D01*
X127001860Y-120801000D01*
X126688140Y-120801000D01*
X126674705Y-120799677D01*
X126667691Y-120797549D01*
X126653923Y-120790190D01*
X126631284Y-120780813D01*
X126607251Y-120776033D01*
X126582747Y-120776033D01*
X126558714Y-120780814D01*
X126536077Y-120790190D01*
X126522309Y-120797549D01*
X126515295Y-120799677D01*
X126501860Y-120801000D01*
X126188140Y-120801000D01*
X126174705Y-120799677D01*
X126167691Y-120797549D01*
X126153923Y-120790190D01*
X126131284Y-120780813D01*
X126107251Y-120776033D01*
X126082747Y-120776033D01*
X126058714Y-120780814D01*
X126036077Y-120790190D01*
X126022309Y-120797549D01*
X126015295Y-120799677D01*
X126001860Y-120801000D01*
X125688140Y-120801000D01*
X125674705Y-120799677D01*
X125667691Y-120797549D01*
X125653923Y-120790190D01*
X125631284Y-120780813D01*
X125607251Y-120776033D01*
X125582747Y-120776033D01*
X125558714Y-120780814D01*
X125536077Y-120790190D01*
X125522309Y-120797549D01*
X125515295Y-120799677D01*
X125501860Y-120801000D01*
X125188140Y-120801000D01*
X125174705Y-120799677D01*
X125167691Y-120797549D01*
X125153923Y-120790190D01*
X125131284Y-120780813D01*
X125107251Y-120776033D01*
X125082747Y-120776033D01*
X125058714Y-120780814D01*
X125036077Y-120790190D01*
X125022309Y-120797549D01*
X125015295Y-120799677D01*
X125001860Y-120801000D01*
X124688140Y-120801000D01*
X124674705Y-120799677D01*
X124667691Y-120797549D01*
X124653923Y-120790190D01*
X124631284Y-120780813D01*
X124607251Y-120776033D01*
X124582747Y-120776033D01*
X124558714Y-120780814D01*
X124536077Y-120790190D01*
X124522309Y-120797549D01*
X124515295Y-120799677D01*
X124501860Y-120801000D01*
X124188140Y-120801000D01*
X124174705Y-120799677D01*
X124167691Y-120797549D01*
X124153923Y-120790190D01*
X124131284Y-120780813D01*
X124107251Y-120776033D01*
X124082747Y-120776033D01*
X124058714Y-120780814D01*
X124036077Y-120790190D01*
X124022309Y-120797549D01*
X124015295Y-120799677D01*
X124001860Y-120801000D01*
X123688140Y-120801000D01*
X123674705Y-120799677D01*
X123667691Y-120797549D01*
X123653923Y-120790190D01*
X123631284Y-120780813D01*
X123607251Y-120776033D01*
X123582747Y-120776033D01*
X123558714Y-120780814D01*
X123536077Y-120790190D01*
X123522309Y-120797549D01*
X123515295Y-120799677D01*
X123501860Y-120801000D01*
X123188140Y-120801000D01*
X123174705Y-120799677D01*
X123167691Y-120797549D01*
X123153923Y-120790190D01*
X123131284Y-120780813D01*
X123107251Y-120776033D01*
X123082747Y-120776033D01*
X123058714Y-120780814D01*
X123036077Y-120790190D01*
X123022309Y-120797549D01*
X123015295Y-120799677D01*
X123001860Y-120801000D01*
X122688140Y-120801000D01*
X122674705Y-120799677D01*
X122667691Y-120797549D01*
X122653923Y-120790190D01*
X122631284Y-120780813D01*
X122607251Y-120776033D01*
X122582747Y-120776033D01*
X122558714Y-120780814D01*
X122536077Y-120790190D01*
X122522309Y-120797549D01*
X122515295Y-120799677D01*
X122501860Y-120801000D01*
X122188140Y-120801000D01*
X122174705Y-120799677D01*
X122167691Y-120797549D01*
X122153923Y-120790190D01*
X122131284Y-120780813D01*
X122107251Y-120776033D01*
X122082747Y-120776033D01*
X122058714Y-120780814D01*
X122036077Y-120790190D01*
X122022309Y-120797549D01*
X122015295Y-120799677D01*
X122001860Y-120801000D01*
X121688140Y-120801000D01*
X121674705Y-120799677D01*
X121667691Y-120797549D01*
X121653923Y-120790190D01*
X121631284Y-120780813D01*
X121607251Y-120776033D01*
X121582747Y-120776033D01*
X121558714Y-120780814D01*
X121536077Y-120790190D01*
X121522309Y-120797549D01*
X121515295Y-120799677D01*
X121501860Y-120801000D01*
X121188140Y-120801000D01*
X121174705Y-120799677D01*
X121167690Y-120797549D01*
X121161224Y-120794092D01*
X121155558Y-120789442D01*
X121150908Y-120783776D01*
X121147451Y-120777310D01*
X121145323Y-120770295D01*
X121144000Y-120756860D01*
X121144000Y-119193140D01*
X121145323Y-119179705D01*
X121147451Y-119172690D01*
X121150908Y-119166224D01*
X121155558Y-119160558D01*
X121161224Y-119155908D01*
X121167690Y-119152451D01*
X121174705Y-119150323D01*
X121188140Y-119149000D01*
X121501860Y-119149000D01*
X121515295Y-119150323D01*
X121515295Y-119150323D01*
G37*
G36*
X132668674Y-119393465D02*
G01*
X132706367Y-119404899D01*
X132741103Y-119423466D01*
X132771548Y-119448452D01*
X132796534Y-119478897D01*
X132815101Y-119513633D01*
X132826535Y-119551326D01*
X132831000Y-119596661D01*
X132831000Y-120433339D01*
X132826535Y-120478674D01*
X132815101Y-120516367D01*
X132796534Y-120551103D01*
X132771548Y-120581548D01*
X132741103Y-120606534D01*
X132706367Y-120625101D01*
X132668674Y-120636535D01*
X132623339Y-120641000D01*
X131536661Y-120641000D01*
X131491326Y-120636535D01*
X131453633Y-120625101D01*
X131418897Y-120606534D01*
X131388452Y-120581548D01*
X131363466Y-120551103D01*
X131344899Y-120516367D01*
X131333465Y-120478674D01*
X131329000Y-120433339D01*
X131329000Y-119596661D01*
X131333465Y-119551326D01*
X131344899Y-119513633D01*
X131363466Y-119478897D01*
X131388452Y-119448452D01*
X131418897Y-119423466D01*
X131453633Y-119404899D01*
X131491326Y-119393465D01*
X131536661Y-119389000D01*
X132623339Y-119389000D01*
X132668674Y-119393465D01*
X132668674Y-119393465D01*
G37*
G36*
X115650674Y-119003465D02*
G01*
X115688367Y-119014899D01*
X115723103Y-119033466D01*
X115753548Y-119058452D01*
X115778534Y-119088897D01*
X115797101Y-119123633D01*
X115808535Y-119161326D01*
X115813000Y-119206661D01*
X115813000Y-120043339D01*
X115808535Y-120088674D01*
X115797101Y-120126367D01*
X115778534Y-120161103D01*
X115753548Y-120191548D01*
X115723103Y-120216534D01*
X115688367Y-120235101D01*
X115650674Y-120246535D01*
X115605339Y-120251000D01*
X114518661Y-120251000D01*
X114473326Y-120246535D01*
X114435633Y-120235101D01*
X114400897Y-120216534D01*
X114370452Y-120191548D01*
X114345466Y-120161103D01*
X114326899Y-120126367D01*
X114315465Y-120088674D01*
X114311000Y-120043339D01*
X114311000Y-119206661D01*
X114315465Y-119161326D01*
X114326899Y-119123633D01*
X114345466Y-119088897D01*
X114370452Y-119058452D01*
X114400897Y-119033466D01*
X114435633Y-119014899D01*
X114473326Y-119003465D01*
X114518661Y-118999000D01*
X115605339Y-118999000D01*
X115650674Y-119003465D01*
X115650674Y-119003465D01*
G37*
G36*
X120215295Y-110350323D02*
G01*
X120222310Y-110352451D01*
X120228776Y-110355908D01*
X120234442Y-110360558D01*
X120239092Y-110366224D01*
X120242549Y-110372690D01*
X120244677Y-110379705D01*
X120246000Y-110393140D01*
X120246000Y-110706860D01*
X120244677Y-110720295D01*
X120242549Y-110727309D01*
X120235190Y-110741077D01*
X120225813Y-110763716D01*
X120221033Y-110787749D01*
X120221033Y-110812253D01*
X120225814Y-110836286D01*
X120235190Y-110858923D01*
X120242549Y-110872691D01*
X120244677Y-110879705D01*
X120246000Y-110893140D01*
X120246000Y-111206860D01*
X120244677Y-111220295D01*
X120242549Y-111227309D01*
X120235190Y-111241077D01*
X120225813Y-111263716D01*
X120221033Y-111287749D01*
X120221033Y-111312253D01*
X120225814Y-111336286D01*
X120235190Y-111358923D01*
X120242549Y-111372691D01*
X120244677Y-111379705D01*
X120246000Y-111393140D01*
X120246000Y-111706860D01*
X120244677Y-111720295D01*
X120242549Y-111727309D01*
X120235190Y-111741077D01*
X120225813Y-111763716D01*
X120221033Y-111787749D01*
X120221033Y-111812253D01*
X120225814Y-111836286D01*
X120235190Y-111858923D01*
X120242549Y-111872691D01*
X120244677Y-111879705D01*
X120246000Y-111893140D01*
X120246000Y-112206860D01*
X120244677Y-112220295D01*
X120242549Y-112227309D01*
X120235190Y-112241077D01*
X120225813Y-112263716D01*
X120221033Y-112287749D01*
X120221033Y-112312253D01*
X120225814Y-112336286D01*
X120235190Y-112358923D01*
X120242549Y-112372691D01*
X120244677Y-112379705D01*
X120246000Y-112393140D01*
X120246000Y-112706860D01*
X120244677Y-112720295D01*
X120242549Y-112727309D01*
X120235190Y-112741077D01*
X120225813Y-112763716D01*
X120221033Y-112787749D01*
X120221033Y-112812253D01*
X120225814Y-112836286D01*
X120235190Y-112858923D01*
X120242549Y-112872691D01*
X120244677Y-112879705D01*
X120246000Y-112893140D01*
X120246000Y-113206860D01*
X120244677Y-113220295D01*
X120242549Y-113227309D01*
X120235190Y-113241077D01*
X120225813Y-113263716D01*
X120221033Y-113287749D01*
X120221033Y-113312253D01*
X120225814Y-113336286D01*
X120235190Y-113358923D01*
X120242549Y-113372691D01*
X120244677Y-113379705D01*
X120246000Y-113393140D01*
X120246000Y-113706860D01*
X120244677Y-113720295D01*
X120242549Y-113727309D01*
X120235190Y-113741077D01*
X120225813Y-113763716D01*
X120221033Y-113787749D01*
X120221033Y-113812253D01*
X120225814Y-113836286D01*
X120235190Y-113858923D01*
X120242549Y-113872691D01*
X120244677Y-113879705D01*
X120246000Y-113893140D01*
X120246000Y-114206860D01*
X120244677Y-114220295D01*
X120242549Y-114227309D01*
X120235190Y-114241077D01*
X120225813Y-114263716D01*
X120221033Y-114287749D01*
X120221033Y-114312253D01*
X120225814Y-114336286D01*
X120235190Y-114358923D01*
X120242549Y-114372691D01*
X120244677Y-114379705D01*
X120246000Y-114393140D01*
X120246000Y-114706860D01*
X120244677Y-114720295D01*
X120242549Y-114727309D01*
X120235190Y-114741077D01*
X120225813Y-114763716D01*
X120221033Y-114787749D01*
X120221033Y-114812253D01*
X120225814Y-114836286D01*
X120235190Y-114858923D01*
X120242549Y-114872691D01*
X120244677Y-114879705D01*
X120246000Y-114893140D01*
X120246000Y-115206860D01*
X120244677Y-115220295D01*
X120242549Y-115227309D01*
X120235190Y-115241077D01*
X120225813Y-115263716D01*
X120221033Y-115287749D01*
X120221033Y-115312253D01*
X120225814Y-115336286D01*
X120235190Y-115358923D01*
X120242549Y-115372691D01*
X120244677Y-115379705D01*
X120246000Y-115393140D01*
X120246000Y-115706860D01*
X120244677Y-115720295D01*
X120242549Y-115727309D01*
X120235190Y-115741077D01*
X120225813Y-115763716D01*
X120221033Y-115787749D01*
X120221033Y-115812253D01*
X120225814Y-115836286D01*
X120235190Y-115858923D01*
X120242549Y-115872691D01*
X120244677Y-115879705D01*
X120246000Y-115893140D01*
X120246000Y-116206860D01*
X120244677Y-116220295D01*
X120242549Y-116227309D01*
X120235190Y-116241077D01*
X120225813Y-116263716D01*
X120221033Y-116287749D01*
X120221033Y-116312253D01*
X120225814Y-116336286D01*
X120235190Y-116358923D01*
X120242549Y-116372691D01*
X120244677Y-116379705D01*
X120246000Y-116393140D01*
X120246000Y-116706860D01*
X120244677Y-116720295D01*
X120242549Y-116727309D01*
X120235190Y-116741077D01*
X120225813Y-116763716D01*
X120221033Y-116787749D01*
X120221033Y-116812253D01*
X120225814Y-116836286D01*
X120235190Y-116858923D01*
X120242549Y-116872691D01*
X120244677Y-116879705D01*
X120246000Y-116893140D01*
X120246000Y-117206860D01*
X120244677Y-117220295D01*
X120242549Y-117227309D01*
X120235190Y-117241077D01*
X120225813Y-117263716D01*
X120221033Y-117287749D01*
X120221033Y-117312253D01*
X120225814Y-117336286D01*
X120235190Y-117358923D01*
X120242549Y-117372691D01*
X120244677Y-117379705D01*
X120246000Y-117393140D01*
X120246000Y-117706860D01*
X120244677Y-117720295D01*
X120242549Y-117727309D01*
X120235190Y-117741077D01*
X120225813Y-117763716D01*
X120221033Y-117787749D01*
X120221033Y-117812253D01*
X120225814Y-117836286D01*
X120235190Y-117858923D01*
X120242549Y-117872691D01*
X120244677Y-117879705D01*
X120246000Y-117893140D01*
X120246000Y-118206860D01*
X120244677Y-118220295D01*
X120242549Y-118227310D01*
X120239092Y-118233776D01*
X120234442Y-118239442D01*
X120228776Y-118244092D01*
X120222310Y-118247549D01*
X120215295Y-118249677D01*
X120201860Y-118251000D01*
X118638140Y-118251000D01*
X118624705Y-118249677D01*
X118617690Y-118247549D01*
X118611224Y-118244092D01*
X118605558Y-118239442D01*
X118600908Y-118233776D01*
X118597451Y-118227310D01*
X118595323Y-118220295D01*
X118594000Y-118206860D01*
X118594000Y-117893140D01*
X118595323Y-117879705D01*
X118597451Y-117872691D01*
X118604810Y-117858923D01*
X118614187Y-117836284D01*
X118618967Y-117812251D01*
X118618967Y-117787747D01*
X118614186Y-117763714D01*
X118604810Y-117741077D01*
X118597451Y-117727309D01*
X118595323Y-117720295D01*
X118594000Y-117706860D01*
X118594000Y-117393140D01*
X118595323Y-117379705D01*
X118597451Y-117372691D01*
X118604810Y-117358923D01*
X118614187Y-117336284D01*
X118618967Y-117312251D01*
X118618967Y-117287747D01*
X118614186Y-117263714D01*
X118604810Y-117241077D01*
X118597451Y-117227309D01*
X118595323Y-117220295D01*
X118594000Y-117206860D01*
X118594000Y-116893140D01*
X118595323Y-116879705D01*
X118597451Y-116872691D01*
X118604810Y-116858923D01*
X118614187Y-116836284D01*
X118618967Y-116812251D01*
X118618967Y-116787747D01*
X118614186Y-116763714D01*
X118604810Y-116741077D01*
X118597451Y-116727309D01*
X118595323Y-116720295D01*
X118594000Y-116706860D01*
X118594000Y-116393140D01*
X118595323Y-116379705D01*
X118597451Y-116372691D01*
X118604810Y-116358923D01*
X118614187Y-116336284D01*
X118618967Y-116312251D01*
X118618967Y-116287747D01*
X118614186Y-116263714D01*
X118604810Y-116241077D01*
X118597451Y-116227309D01*
X118595323Y-116220295D01*
X118594000Y-116206860D01*
X118594000Y-115893140D01*
X118595323Y-115879705D01*
X118597451Y-115872691D01*
X118604810Y-115858923D01*
X118614187Y-115836284D01*
X118618967Y-115812251D01*
X118618967Y-115787747D01*
X118614186Y-115763714D01*
X118604810Y-115741077D01*
X118597451Y-115727309D01*
X118595323Y-115720295D01*
X118594000Y-115706860D01*
X118594000Y-115393140D01*
X118595323Y-115379705D01*
X118597451Y-115372691D01*
X118604810Y-115358923D01*
X118614187Y-115336284D01*
X118618967Y-115312251D01*
X118618967Y-115287747D01*
X118614186Y-115263714D01*
X118604810Y-115241077D01*
X118597451Y-115227309D01*
X118595323Y-115220295D01*
X118594000Y-115206860D01*
X118594000Y-114893140D01*
X118595323Y-114879705D01*
X118597451Y-114872691D01*
X118604810Y-114858923D01*
X118614187Y-114836284D01*
X118618967Y-114812251D01*
X118618967Y-114787747D01*
X118614186Y-114763714D01*
X118604810Y-114741077D01*
X118597451Y-114727309D01*
X118595323Y-114720295D01*
X118594000Y-114706860D01*
X118594000Y-114393140D01*
X118595323Y-114379705D01*
X118597451Y-114372691D01*
X118604810Y-114358923D01*
X118614187Y-114336284D01*
X118618967Y-114312251D01*
X118618967Y-114287747D01*
X118614186Y-114263714D01*
X118604810Y-114241077D01*
X118597451Y-114227309D01*
X118595323Y-114220295D01*
X118594000Y-114206860D01*
X118594000Y-113893140D01*
X118595323Y-113879705D01*
X118597451Y-113872691D01*
X118604810Y-113858923D01*
X118614187Y-113836284D01*
X118618967Y-113812251D01*
X118618967Y-113787747D01*
X118614186Y-113763714D01*
X118604810Y-113741077D01*
X118597451Y-113727309D01*
X118595323Y-113720295D01*
X118594000Y-113706860D01*
X118594000Y-113393140D01*
X118595323Y-113379705D01*
X118597451Y-113372691D01*
X118604810Y-113358923D01*
X118614187Y-113336284D01*
X118618967Y-113312251D01*
X118618967Y-113287747D01*
X118614186Y-113263714D01*
X118604810Y-113241077D01*
X118597451Y-113227309D01*
X118595323Y-113220295D01*
X118594000Y-113206860D01*
X118594000Y-112893140D01*
X118595323Y-112879705D01*
X118597451Y-112872691D01*
X118604810Y-112858923D01*
X118614187Y-112836284D01*
X118618967Y-112812251D01*
X118618967Y-112787747D01*
X118614186Y-112763714D01*
X118604810Y-112741077D01*
X118597451Y-112727309D01*
X118595323Y-112720295D01*
X118594000Y-112706860D01*
X118594000Y-112393140D01*
X118595323Y-112379705D01*
X118597451Y-112372691D01*
X118604810Y-112358923D01*
X118614187Y-112336284D01*
X118618967Y-112312251D01*
X118618967Y-112287747D01*
X118614186Y-112263714D01*
X118604810Y-112241077D01*
X118597451Y-112227309D01*
X118595323Y-112220295D01*
X118594000Y-112206860D01*
X118594000Y-111893140D01*
X118595323Y-111879705D01*
X118597451Y-111872691D01*
X118604810Y-111858923D01*
X118614187Y-111836284D01*
X118618967Y-111812251D01*
X118618967Y-111787747D01*
X118614186Y-111763714D01*
X118604810Y-111741077D01*
X118597451Y-111727309D01*
X118595323Y-111720295D01*
X118594000Y-111706860D01*
X118594000Y-111393140D01*
X118595323Y-111379705D01*
X118597451Y-111372691D01*
X118604810Y-111358923D01*
X118614187Y-111336284D01*
X118618967Y-111312251D01*
X118618967Y-111287747D01*
X118614186Y-111263714D01*
X118604810Y-111241077D01*
X118597451Y-111227309D01*
X118595323Y-111220295D01*
X118594000Y-111206860D01*
X118594000Y-110893140D01*
X118595323Y-110879705D01*
X118597451Y-110872691D01*
X118604810Y-110858923D01*
X118614187Y-110836284D01*
X118618967Y-110812251D01*
X118618967Y-110787747D01*
X118614186Y-110763714D01*
X118604810Y-110741077D01*
X118597451Y-110727309D01*
X118595323Y-110720295D01*
X118594000Y-110706860D01*
X118594000Y-110393140D01*
X118595323Y-110379705D01*
X118597451Y-110372690D01*
X118600908Y-110366224D01*
X118605558Y-110360558D01*
X118611224Y-110355908D01*
X118617690Y-110352451D01*
X118624705Y-110350323D01*
X118638140Y-110349000D01*
X120201860Y-110349000D01*
X120215295Y-110350323D01*
X120215295Y-110350323D01*
G37*
G36*
X131565295Y-110350323D02*
G01*
X131572310Y-110352451D01*
X131578776Y-110355908D01*
X131584442Y-110360558D01*
X131589092Y-110366224D01*
X131592549Y-110372690D01*
X131594677Y-110379705D01*
X131596000Y-110393140D01*
X131596000Y-110706860D01*
X131594677Y-110720295D01*
X131592549Y-110727309D01*
X131585190Y-110741077D01*
X131575813Y-110763716D01*
X131571033Y-110787749D01*
X131571033Y-110812253D01*
X131575814Y-110836286D01*
X131585190Y-110858923D01*
X131592549Y-110872691D01*
X131594677Y-110879705D01*
X131596000Y-110893140D01*
X131596000Y-111206860D01*
X131594677Y-111220295D01*
X131592549Y-111227309D01*
X131585190Y-111241077D01*
X131575813Y-111263716D01*
X131571033Y-111287749D01*
X131571033Y-111312253D01*
X131575814Y-111336286D01*
X131585190Y-111358923D01*
X131592549Y-111372691D01*
X131594677Y-111379705D01*
X131596000Y-111393140D01*
X131596000Y-111706860D01*
X131594677Y-111720295D01*
X131592549Y-111727309D01*
X131585190Y-111741077D01*
X131575813Y-111763716D01*
X131571033Y-111787749D01*
X131571033Y-111812253D01*
X131575814Y-111836286D01*
X131585190Y-111858923D01*
X131592549Y-111872691D01*
X131594677Y-111879705D01*
X131596000Y-111893140D01*
X131596000Y-112206860D01*
X131594677Y-112220295D01*
X131592549Y-112227309D01*
X131585190Y-112241077D01*
X131575813Y-112263716D01*
X131571033Y-112287749D01*
X131571033Y-112312253D01*
X131575814Y-112336286D01*
X131585190Y-112358923D01*
X131592549Y-112372691D01*
X131594677Y-112379705D01*
X131596000Y-112393140D01*
X131596000Y-112706860D01*
X131594677Y-112720295D01*
X131592549Y-112727309D01*
X131585190Y-112741077D01*
X131575813Y-112763716D01*
X131571033Y-112787749D01*
X131571033Y-112812253D01*
X131575814Y-112836286D01*
X131585190Y-112858923D01*
X131592549Y-112872691D01*
X131594677Y-112879705D01*
X131596000Y-112893140D01*
X131596000Y-113206860D01*
X131594677Y-113220295D01*
X131592549Y-113227309D01*
X131585190Y-113241077D01*
X131575813Y-113263716D01*
X131571033Y-113287749D01*
X131571033Y-113312253D01*
X131575814Y-113336286D01*
X131585190Y-113358923D01*
X131592549Y-113372691D01*
X131594677Y-113379705D01*
X131596000Y-113393140D01*
X131596000Y-113706860D01*
X131594677Y-113720295D01*
X131592549Y-113727309D01*
X131585190Y-113741077D01*
X131575813Y-113763716D01*
X131571033Y-113787749D01*
X131571033Y-113812253D01*
X131575814Y-113836286D01*
X131585190Y-113858923D01*
X131592549Y-113872691D01*
X131594677Y-113879705D01*
X131596000Y-113893140D01*
X131596000Y-114206860D01*
X131594677Y-114220295D01*
X131592549Y-114227309D01*
X131585190Y-114241077D01*
X131575813Y-114263716D01*
X131571033Y-114287749D01*
X131571033Y-114312253D01*
X131575814Y-114336286D01*
X131585190Y-114358923D01*
X131592549Y-114372691D01*
X131594677Y-114379705D01*
X131596000Y-114393140D01*
X131596000Y-114706860D01*
X131594677Y-114720295D01*
X131592549Y-114727309D01*
X131585190Y-114741077D01*
X131575813Y-114763716D01*
X131571033Y-114787749D01*
X131571033Y-114812253D01*
X131575814Y-114836286D01*
X131585190Y-114858923D01*
X131592549Y-114872691D01*
X131594677Y-114879705D01*
X131596000Y-114893140D01*
X131596000Y-115206860D01*
X131594677Y-115220295D01*
X131592549Y-115227309D01*
X131585190Y-115241077D01*
X131575813Y-115263716D01*
X131571033Y-115287749D01*
X131571033Y-115312253D01*
X131575814Y-115336286D01*
X131585190Y-115358923D01*
X131592549Y-115372691D01*
X131594677Y-115379705D01*
X131596000Y-115393140D01*
X131596000Y-115706860D01*
X131594677Y-115720295D01*
X131592549Y-115727309D01*
X131585190Y-115741077D01*
X131575813Y-115763716D01*
X131571033Y-115787749D01*
X131571033Y-115812253D01*
X131575814Y-115836286D01*
X131585190Y-115858923D01*
X131592549Y-115872691D01*
X131594677Y-115879705D01*
X131596000Y-115893140D01*
X131596000Y-116206860D01*
X131594677Y-116220295D01*
X131592549Y-116227309D01*
X131585190Y-116241077D01*
X131575813Y-116263716D01*
X131571033Y-116287749D01*
X131571033Y-116312253D01*
X131575814Y-116336286D01*
X131585190Y-116358923D01*
X131592549Y-116372691D01*
X131594677Y-116379705D01*
X131596000Y-116393140D01*
X131596000Y-116706860D01*
X131594677Y-116720295D01*
X131592549Y-116727309D01*
X131585190Y-116741077D01*
X131575813Y-116763716D01*
X131571033Y-116787749D01*
X131571033Y-116812253D01*
X131575814Y-116836286D01*
X131585190Y-116858923D01*
X131592549Y-116872691D01*
X131594677Y-116879705D01*
X131596000Y-116893140D01*
X131596000Y-117206860D01*
X131594677Y-117220295D01*
X131592549Y-117227309D01*
X131585190Y-117241077D01*
X131575813Y-117263716D01*
X131571033Y-117287749D01*
X131571033Y-117312253D01*
X131575814Y-117336286D01*
X131585190Y-117358923D01*
X131592549Y-117372691D01*
X131594677Y-117379705D01*
X131596000Y-117393140D01*
X131596000Y-117706860D01*
X131594677Y-117720295D01*
X131592549Y-117727309D01*
X131585190Y-117741077D01*
X131575813Y-117763716D01*
X131571033Y-117787749D01*
X131571033Y-117812253D01*
X131575814Y-117836286D01*
X131585190Y-117858923D01*
X131592549Y-117872691D01*
X131594677Y-117879705D01*
X131596000Y-117893140D01*
X131596000Y-118206860D01*
X131594677Y-118220295D01*
X131592549Y-118227310D01*
X131589092Y-118233776D01*
X131584442Y-118239442D01*
X131578776Y-118244092D01*
X131572310Y-118247549D01*
X131565295Y-118249677D01*
X131551860Y-118251000D01*
X129988140Y-118251000D01*
X129974705Y-118249677D01*
X129967690Y-118247549D01*
X129961224Y-118244092D01*
X129955558Y-118239442D01*
X129950908Y-118233776D01*
X129947451Y-118227310D01*
X129945323Y-118220295D01*
X129944000Y-118206860D01*
X129944000Y-117893140D01*
X129945323Y-117879705D01*
X129947451Y-117872691D01*
X129954810Y-117858923D01*
X129964187Y-117836284D01*
X129968967Y-117812251D01*
X129968967Y-117787747D01*
X129964186Y-117763714D01*
X129954810Y-117741077D01*
X129947451Y-117727309D01*
X129945323Y-117720295D01*
X129944000Y-117706860D01*
X129944000Y-117393140D01*
X129945323Y-117379705D01*
X129947451Y-117372691D01*
X129954810Y-117358923D01*
X129964187Y-117336284D01*
X129968967Y-117312251D01*
X129968967Y-117287747D01*
X129964186Y-117263714D01*
X129954810Y-117241077D01*
X129947451Y-117227309D01*
X129945323Y-117220295D01*
X129944000Y-117206860D01*
X129944000Y-116893140D01*
X129945323Y-116879705D01*
X129947451Y-116872691D01*
X129954810Y-116858923D01*
X129964187Y-116836284D01*
X129968967Y-116812251D01*
X129968967Y-116787747D01*
X129964186Y-116763714D01*
X129954810Y-116741077D01*
X129947451Y-116727309D01*
X129945323Y-116720295D01*
X129944000Y-116706860D01*
X129944000Y-116393140D01*
X129945323Y-116379705D01*
X129947451Y-116372691D01*
X129954810Y-116358923D01*
X129964187Y-116336284D01*
X129968967Y-116312251D01*
X129968967Y-116287747D01*
X129964186Y-116263714D01*
X129954810Y-116241077D01*
X129947451Y-116227309D01*
X129945323Y-116220295D01*
X129944000Y-116206860D01*
X129944000Y-115893140D01*
X129945323Y-115879705D01*
X129947451Y-115872691D01*
X129954810Y-115858923D01*
X129964187Y-115836284D01*
X129968967Y-115812251D01*
X129968967Y-115787747D01*
X129964186Y-115763714D01*
X129954810Y-115741077D01*
X129947451Y-115727309D01*
X129945323Y-115720295D01*
X129944000Y-115706860D01*
X129944000Y-115393140D01*
X129945323Y-115379705D01*
X129947451Y-115372691D01*
X129954810Y-115358923D01*
X129964187Y-115336284D01*
X129968967Y-115312251D01*
X129968967Y-115287747D01*
X129964186Y-115263714D01*
X129954810Y-115241077D01*
X129947451Y-115227309D01*
X129945323Y-115220295D01*
X129944000Y-115206860D01*
X129944000Y-114893140D01*
X129945323Y-114879705D01*
X129947451Y-114872691D01*
X129954810Y-114858923D01*
X129964187Y-114836284D01*
X129968967Y-114812251D01*
X129968967Y-114787747D01*
X129964186Y-114763714D01*
X129954810Y-114741077D01*
X129947451Y-114727309D01*
X129945323Y-114720295D01*
X129944000Y-114706860D01*
X129944000Y-114393140D01*
X129945323Y-114379705D01*
X129947451Y-114372691D01*
X129954810Y-114358923D01*
X129964187Y-114336284D01*
X129968967Y-114312251D01*
X129968967Y-114287747D01*
X129964186Y-114263714D01*
X129954810Y-114241077D01*
X129947451Y-114227309D01*
X129945323Y-114220295D01*
X129944000Y-114206860D01*
X129944000Y-113893140D01*
X129945323Y-113879705D01*
X129947451Y-113872691D01*
X129954810Y-113858923D01*
X129964187Y-113836284D01*
X129968967Y-113812251D01*
X129968967Y-113787747D01*
X129964186Y-113763714D01*
X129954810Y-113741077D01*
X129947451Y-113727309D01*
X129945323Y-113720295D01*
X129944000Y-113706860D01*
X129944000Y-113393140D01*
X129945323Y-113379705D01*
X129947451Y-113372691D01*
X129954810Y-113358923D01*
X129964187Y-113336284D01*
X129968967Y-113312251D01*
X129968967Y-113287747D01*
X129964186Y-113263714D01*
X129954810Y-113241077D01*
X129947451Y-113227309D01*
X129945323Y-113220295D01*
X129944000Y-113206860D01*
X129944000Y-112893140D01*
X129945323Y-112879705D01*
X129947451Y-112872691D01*
X129954810Y-112858923D01*
X129964187Y-112836284D01*
X129968967Y-112812251D01*
X129968967Y-112787747D01*
X129964186Y-112763714D01*
X129954810Y-112741077D01*
X129947451Y-112727309D01*
X129945323Y-112720295D01*
X129944000Y-112706860D01*
X129944000Y-112393140D01*
X129945323Y-112379705D01*
X129947451Y-112372691D01*
X129954810Y-112358923D01*
X129964187Y-112336284D01*
X129968967Y-112312251D01*
X129968967Y-112287747D01*
X129964186Y-112263714D01*
X129954810Y-112241077D01*
X129947451Y-112227309D01*
X129945323Y-112220295D01*
X129944000Y-112206860D01*
X129944000Y-111893140D01*
X129945323Y-111879705D01*
X129947451Y-111872691D01*
X129954810Y-111858923D01*
X129964187Y-111836284D01*
X129968967Y-111812251D01*
X129968967Y-111787747D01*
X129964186Y-111763714D01*
X129954810Y-111741077D01*
X129947451Y-111727309D01*
X129945323Y-111720295D01*
X129944000Y-111706860D01*
X129944000Y-111393140D01*
X129945323Y-111379705D01*
X129947451Y-111372691D01*
X129954810Y-111358923D01*
X129964187Y-111336284D01*
X129968967Y-111312251D01*
X129968967Y-111287747D01*
X129964186Y-111263714D01*
X129954810Y-111241077D01*
X129947451Y-111227309D01*
X129945323Y-111220295D01*
X129944000Y-111206860D01*
X129944000Y-110893140D01*
X129945323Y-110879705D01*
X129947451Y-110872691D01*
X129954810Y-110858923D01*
X129964187Y-110836284D01*
X129968967Y-110812251D01*
X129968967Y-110787747D01*
X129964186Y-110763714D01*
X129954810Y-110741077D01*
X129947451Y-110727309D01*
X129945323Y-110720295D01*
X129944000Y-110706860D01*
X129944000Y-110393140D01*
X129945323Y-110379705D01*
X129947451Y-110372690D01*
X129950908Y-110366224D01*
X129955558Y-110360558D01*
X129961224Y-110355908D01*
X129967690Y-110352451D01*
X129974705Y-110350323D01*
X129988140Y-110349000D01*
X131551860Y-110349000D01*
X131565295Y-110350323D01*
X131565295Y-110350323D01*
G37*
G36*
X164056564Y-115829389D02*
G01*
X164211740Y-115893665D01*
X164247835Y-115908616D01*
X164419973Y-116023635D01*
X164566365Y-116170027D01*
X164677456Y-116336286D01*
X164681385Y-116342167D01*
X164760611Y-116533436D01*
X164801000Y-116736484D01*
X164801000Y-116943516D01*
X164760611Y-117146564D01*
X164682026Y-117336286D01*
X164681384Y-117337835D01*
X164566365Y-117509973D01*
X164419973Y-117656365D01*
X164247835Y-117771384D01*
X164247834Y-117771385D01*
X164247833Y-117771385D01*
X164056564Y-117850611D01*
X163853516Y-117891000D01*
X163646484Y-117891000D01*
X163443436Y-117850611D01*
X163252167Y-117771385D01*
X163252166Y-117771385D01*
X163252165Y-117771384D01*
X163080027Y-117656365D01*
X162933635Y-117509973D01*
X162818616Y-117337835D01*
X162817974Y-117336286D01*
X162739389Y-117146564D01*
X162699000Y-116943516D01*
X162699000Y-116736484D01*
X162739389Y-116533436D01*
X162818615Y-116342167D01*
X162822545Y-116336286D01*
X162933635Y-116170027D01*
X163080027Y-116023635D01*
X163252165Y-115908616D01*
X163288260Y-115893665D01*
X163443436Y-115829389D01*
X163646484Y-115789000D01*
X163853516Y-115789000D01*
X164056564Y-115829389D01*
X164056564Y-115829389D01*
G37*
G36*
X159801000Y-117891000D02*
G01*
X157699000Y-117891000D01*
X157699000Y-115789000D01*
X159801000Y-115789000D01*
X159801000Y-117891000D01*
X159801000Y-117891000D01*
G37*
G36*
X115650674Y-116608465D02*
G01*
X115688367Y-116619899D01*
X115723103Y-116638466D01*
X115753548Y-116663452D01*
X115778534Y-116693897D01*
X115797101Y-116728633D01*
X115808535Y-116766326D01*
X115813000Y-116811661D01*
X115813000Y-117648339D01*
X115808535Y-117693674D01*
X115797101Y-117731367D01*
X115778534Y-117766103D01*
X115753548Y-117796548D01*
X115723103Y-117821534D01*
X115688367Y-117840101D01*
X115650674Y-117851535D01*
X115605339Y-117856000D01*
X114518661Y-117856000D01*
X114473326Y-117851535D01*
X114435633Y-117840101D01*
X114400897Y-117821534D01*
X114370452Y-117796548D01*
X114345466Y-117766103D01*
X114326899Y-117731367D01*
X114315465Y-117693674D01*
X114311000Y-117648339D01*
X114311000Y-116811661D01*
X114315465Y-116766326D01*
X114326899Y-116728633D01*
X114345466Y-116693897D01*
X114370452Y-116663452D01*
X114400897Y-116638466D01*
X114435633Y-116619899D01*
X114473326Y-116608465D01*
X114518661Y-116604000D01*
X115605339Y-116604000D01*
X115650674Y-116608465D01*
X115650674Y-116608465D01*
G37*
G36*
X107268674Y-115973465D02*
G01*
X107306367Y-115984899D01*
X107341103Y-116003466D01*
X107371548Y-116028452D01*
X107396534Y-116058897D01*
X107415101Y-116093633D01*
X107426535Y-116131326D01*
X107431000Y-116176661D01*
X107431000Y-117013339D01*
X107426535Y-117058674D01*
X107415101Y-117096367D01*
X107396534Y-117131103D01*
X107371548Y-117161548D01*
X107341103Y-117186534D01*
X107306367Y-117205101D01*
X107268674Y-117216535D01*
X107223339Y-117221000D01*
X106136661Y-117221000D01*
X106091326Y-117216535D01*
X106053633Y-117205101D01*
X106018897Y-117186534D01*
X105988452Y-117161548D01*
X105963466Y-117131103D01*
X105944899Y-117096367D01*
X105933465Y-117058674D01*
X105929000Y-117013339D01*
X105929000Y-116176661D01*
X105933465Y-116131326D01*
X105944899Y-116093633D01*
X105963466Y-116058897D01*
X105988452Y-116028452D01*
X106018897Y-116003466D01*
X106053633Y-115984899D01*
X106091326Y-115973465D01*
X106136661Y-115969000D01*
X107223339Y-115969000D01*
X107268674Y-115973465D01*
X107268674Y-115973465D01*
G37*
G36*
X139260562Y-114013181D02*
G01*
X139295481Y-114023774D01*
X139327663Y-114040976D01*
X139355873Y-114064127D01*
X139379024Y-114092337D01*
X139396226Y-114124519D01*
X139406819Y-114159438D01*
X139411000Y-114201895D01*
X139411000Y-115668105D01*
X139406819Y-115710562D01*
X139396226Y-115745481D01*
X139379024Y-115777663D01*
X139355873Y-115805873D01*
X139327663Y-115829024D01*
X139295481Y-115846226D01*
X139260562Y-115856819D01*
X139218105Y-115861000D01*
X138076895Y-115861000D01*
X138034438Y-115856819D01*
X137999519Y-115846226D01*
X137967337Y-115829024D01*
X137939127Y-115805873D01*
X137915976Y-115777663D01*
X137898774Y-115745481D01*
X137888181Y-115710562D01*
X137884000Y-115668105D01*
X137884000Y-114201895D01*
X137888181Y-114159438D01*
X137898774Y-114124519D01*
X137915976Y-114092337D01*
X137939127Y-114064127D01*
X137967337Y-114040976D01*
X137999519Y-114023774D01*
X138034438Y-114013181D01*
X138076895Y-114009000D01*
X139218105Y-114009000D01*
X139260562Y-114013181D01*
X139260562Y-114013181D01*
G37*
G36*
X136285562Y-114013181D02*
G01*
X136320481Y-114023774D01*
X136352663Y-114040976D01*
X136380873Y-114064127D01*
X136404024Y-114092337D01*
X136421226Y-114124519D01*
X136431819Y-114159438D01*
X136436000Y-114201895D01*
X136436000Y-115668105D01*
X136431819Y-115710562D01*
X136421226Y-115745481D01*
X136404024Y-115777663D01*
X136380873Y-115805873D01*
X136352663Y-115829024D01*
X136320481Y-115846226D01*
X136285562Y-115856819D01*
X136243105Y-115861000D01*
X135101895Y-115861000D01*
X135059438Y-115856819D01*
X135024519Y-115846226D01*
X134992337Y-115829024D01*
X134964127Y-115805873D01*
X134940976Y-115777663D01*
X134923774Y-115745481D01*
X134913181Y-115710562D01*
X134909000Y-115668105D01*
X134909000Y-114201895D01*
X134913181Y-114159438D01*
X134923774Y-114124519D01*
X134940976Y-114092337D01*
X134964127Y-114064127D01*
X134992337Y-114040976D01*
X135024519Y-114023774D01*
X135059438Y-114013181D01*
X135101895Y-114009000D01*
X136243105Y-114009000D01*
X136285562Y-114013181D01*
X136285562Y-114013181D01*
G37*
G36*
X115650674Y-114558465D02*
G01*
X115688367Y-114569899D01*
X115723103Y-114588466D01*
X115753548Y-114613452D01*
X115778534Y-114643897D01*
X115797101Y-114678633D01*
X115808535Y-114716326D01*
X115813000Y-114761661D01*
X115813000Y-115598339D01*
X115808535Y-115643674D01*
X115797101Y-115681367D01*
X115778534Y-115716103D01*
X115753548Y-115746548D01*
X115723103Y-115771534D01*
X115688367Y-115790101D01*
X115650674Y-115801535D01*
X115605339Y-115806000D01*
X114518661Y-115806000D01*
X114473326Y-115801535D01*
X114435633Y-115790101D01*
X114400897Y-115771534D01*
X114370452Y-115746548D01*
X114345466Y-115716103D01*
X114326899Y-115681367D01*
X114315465Y-115643674D01*
X114311000Y-115598339D01*
X114311000Y-114761661D01*
X114315465Y-114716326D01*
X114326899Y-114678633D01*
X114345466Y-114643897D01*
X114370452Y-114613452D01*
X114400897Y-114588466D01*
X114435633Y-114569899D01*
X114473326Y-114558465D01*
X114518661Y-114554000D01*
X115605339Y-114554000D01*
X115650674Y-114558465D01*
X115650674Y-114558465D01*
G37*
G36*
X107268674Y-113923465D02*
G01*
X107306367Y-113934899D01*
X107341103Y-113953466D01*
X107371548Y-113978452D01*
X107396534Y-114008897D01*
X107415101Y-114043633D01*
X107426535Y-114081326D01*
X107431000Y-114126661D01*
X107431000Y-114963339D01*
X107426535Y-115008674D01*
X107415101Y-115046367D01*
X107396534Y-115081103D01*
X107371548Y-115111548D01*
X107341103Y-115136534D01*
X107306367Y-115155101D01*
X107268674Y-115166535D01*
X107223339Y-115171000D01*
X106136661Y-115171000D01*
X106091326Y-115166535D01*
X106053633Y-115155101D01*
X106018897Y-115136534D01*
X105988452Y-115111548D01*
X105963466Y-115081103D01*
X105944899Y-115046367D01*
X105933465Y-115008674D01*
X105929000Y-114963339D01*
X105929000Y-114126661D01*
X105933465Y-114081326D01*
X105944899Y-114043633D01*
X105963466Y-114008897D01*
X105988452Y-113978452D01*
X106018897Y-113953466D01*
X106053633Y-113934899D01*
X106091326Y-113923465D01*
X106136661Y-113919000D01*
X107223339Y-113919000D01*
X107268674Y-113923465D01*
X107268674Y-113923465D01*
G37*
G36*
X143266000Y-112956000D02*
G01*
X141164000Y-112956000D01*
X141164000Y-111354000D01*
X143266000Y-111354000D01*
X143266000Y-112956000D01*
X143266000Y-112956000D01*
G37*
G36*
X154721000Y-112176000D02*
G01*
X152619000Y-112176000D01*
X152619000Y-110074000D01*
X154721000Y-110074000D01*
X154721000Y-112176000D01*
X154721000Y-112176000D01*
G37*
G36*
X148976564Y-110114389D02*
G01*
X149167833Y-110193615D01*
X149167835Y-110193616D01*
X149339973Y-110308635D01*
X149486365Y-110455027D01*
X149601385Y-110627167D01*
X149680611Y-110818436D01*
X149721000Y-111021484D01*
X149721000Y-111228516D01*
X149680611Y-111431564D01*
X149604701Y-111614827D01*
X149601384Y-111622835D01*
X149486365Y-111794973D01*
X149339973Y-111941365D01*
X149167835Y-112056384D01*
X149167834Y-112056385D01*
X149167833Y-112056385D01*
X148976564Y-112135611D01*
X148773516Y-112176000D01*
X148566484Y-112176000D01*
X148363436Y-112135611D01*
X148172167Y-112056385D01*
X148172166Y-112056385D01*
X148172165Y-112056384D01*
X148000027Y-111941365D01*
X147853635Y-111794973D01*
X147738616Y-111622835D01*
X147735299Y-111614827D01*
X147659389Y-111431564D01*
X147619000Y-111228516D01*
X147619000Y-111021484D01*
X147659389Y-110818436D01*
X147738615Y-110627167D01*
X147853635Y-110455027D01*
X148000027Y-110308635D01*
X148172165Y-110193616D01*
X148172167Y-110193615D01*
X148363436Y-110114389D01*
X148566484Y-110074000D01*
X148773516Y-110074000D01*
X148976564Y-110114389D01*
X148976564Y-110114389D01*
G37*
G36*
X107268674Y-110639465D02*
G01*
X107306367Y-110650899D01*
X107341103Y-110669466D01*
X107371548Y-110694452D01*
X107396534Y-110724897D01*
X107415101Y-110759633D01*
X107426535Y-110797326D01*
X107431000Y-110842661D01*
X107431000Y-111679339D01*
X107426535Y-111724674D01*
X107415101Y-111762367D01*
X107396534Y-111797103D01*
X107371548Y-111827548D01*
X107341103Y-111852534D01*
X107306367Y-111871101D01*
X107268674Y-111882535D01*
X107223339Y-111887000D01*
X106136661Y-111887000D01*
X106091326Y-111882535D01*
X106053633Y-111871101D01*
X106018897Y-111852534D01*
X105988452Y-111827548D01*
X105963466Y-111797103D01*
X105944899Y-111762367D01*
X105933465Y-111724674D01*
X105929000Y-111679339D01*
X105929000Y-110842661D01*
X105933465Y-110797326D01*
X105944899Y-110759633D01*
X105963466Y-110724897D01*
X105988452Y-110694452D01*
X106018897Y-110669466D01*
X106053633Y-110650899D01*
X106091326Y-110639465D01*
X106136661Y-110635000D01*
X107223339Y-110635000D01*
X107268674Y-110639465D01*
X107268674Y-110639465D01*
G37*
G36*
X136966000Y-111806000D02*
G01*
X134864000Y-111806000D01*
X134864000Y-107904000D01*
X136966000Y-107904000D01*
X136966000Y-111806000D01*
X136966000Y-111806000D01*
G37*
G36*
X112049000Y-110827000D02*
G01*
X109947000Y-110827000D01*
X109947000Y-102850000D01*
X112049000Y-102850000D01*
X112049000Y-110827000D01*
X112049000Y-110827000D01*
G37*
G36*
X143266000Y-110656000D02*
G01*
X141164000Y-110656000D01*
X141164000Y-109054000D01*
X143266000Y-109054000D01*
X143266000Y-110656000D01*
X143266000Y-110656000D01*
G37*
G36*
X107268674Y-108589465D02*
G01*
X107306367Y-108600899D01*
X107341103Y-108619466D01*
X107371548Y-108644452D01*
X107396534Y-108674897D01*
X107415101Y-108709633D01*
X107426535Y-108747326D01*
X107431000Y-108792661D01*
X107431000Y-109629339D01*
X107426535Y-109674674D01*
X107415101Y-109712367D01*
X107396534Y-109747103D01*
X107371548Y-109777548D01*
X107341103Y-109802534D01*
X107306367Y-109821101D01*
X107268674Y-109832535D01*
X107223339Y-109837000D01*
X106136661Y-109837000D01*
X106091326Y-109832535D01*
X106053633Y-109821101D01*
X106018897Y-109802534D01*
X105988452Y-109777548D01*
X105963466Y-109747103D01*
X105944899Y-109712367D01*
X105933465Y-109674674D01*
X105929000Y-109629339D01*
X105929000Y-108792661D01*
X105933465Y-108747326D01*
X105944899Y-108709633D01*
X105963466Y-108674897D01*
X105988452Y-108644452D01*
X106018897Y-108619466D01*
X106053633Y-108600899D01*
X106091326Y-108589465D01*
X106136661Y-108585000D01*
X107223339Y-108585000D01*
X107268674Y-108589465D01*
X107268674Y-108589465D01*
G37*
G36*
X121515295Y-107800323D02*
G01*
X121522309Y-107802451D01*
X121536077Y-107809810D01*
X121558716Y-107819187D01*
X121582749Y-107823967D01*
X121607253Y-107823967D01*
X121631286Y-107819186D01*
X121653923Y-107809810D01*
X121667691Y-107802451D01*
X121674705Y-107800323D01*
X121688140Y-107799000D01*
X122001860Y-107799000D01*
X122015295Y-107800323D01*
X122022309Y-107802451D01*
X122036077Y-107809810D01*
X122058716Y-107819187D01*
X122082749Y-107823967D01*
X122107253Y-107823967D01*
X122131286Y-107819186D01*
X122153923Y-107809810D01*
X122167691Y-107802451D01*
X122174705Y-107800323D01*
X122188140Y-107799000D01*
X122501860Y-107799000D01*
X122515295Y-107800323D01*
X122522309Y-107802451D01*
X122536077Y-107809810D01*
X122558716Y-107819187D01*
X122582749Y-107823967D01*
X122607253Y-107823967D01*
X122631286Y-107819186D01*
X122653923Y-107809810D01*
X122667691Y-107802451D01*
X122674705Y-107800323D01*
X122688140Y-107799000D01*
X123001860Y-107799000D01*
X123015295Y-107800323D01*
X123022309Y-107802451D01*
X123036077Y-107809810D01*
X123058716Y-107819187D01*
X123082749Y-107823967D01*
X123107253Y-107823967D01*
X123131286Y-107819186D01*
X123153923Y-107809810D01*
X123167691Y-107802451D01*
X123174705Y-107800323D01*
X123188140Y-107799000D01*
X123501860Y-107799000D01*
X123515295Y-107800323D01*
X123522309Y-107802451D01*
X123536077Y-107809810D01*
X123558716Y-107819187D01*
X123582749Y-107823967D01*
X123607253Y-107823967D01*
X123631286Y-107819186D01*
X123653923Y-107809810D01*
X123667691Y-107802451D01*
X123674705Y-107800323D01*
X123688140Y-107799000D01*
X124001860Y-107799000D01*
X124015295Y-107800323D01*
X124022309Y-107802451D01*
X124036077Y-107809810D01*
X124058716Y-107819187D01*
X124082749Y-107823967D01*
X124107253Y-107823967D01*
X124131286Y-107819186D01*
X124153923Y-107809810D01*
X124167691Y-107802451D01*
X124174705Y-107800323D01*
X124188140Y-107799000D01*
X124501860Y-107799000D01*
X124515295Y-107800323D01*
X124522309Y-107802451D01*
X124536077Y-107809810D01*
X124558716Y-107819187D01*
X124582749Y-107823967D01*
X124607253Y-107823967D01*
X124631286Y-107819186D01*
X124653923Y-107809810D01*
X124667691Y-107802451D01*
X124674705Y-107800323D01*
X124688140Y-107799000D01*
X125001860Y-107799000D01*
X125015295Y-107800323D01*
X125022309Y-107802451D01*
X125036077Y-107809810D01*
X125058716Y-107819187D01*
X125082749Y-107823967D01*
X125107253Y-107823967D01*
X125131286Y-107819186D01*
X125153923Y-107809810D01*
X125167691Y-107802451D01*
X125174705Y-107800323D01*
X125188140Y-107799000D01*
X125501860Y-107799000D01*
X125515295Y-107800323D01*
X125522309Y-107802451D01*
X125536077Y-107809810D01*
X125558716Y-107819187D01*
X125582749Y-107823967D01*
X125607253Y-107823967D01*
X125631286Y-107819186D01*
X125653923Y-107809810D01*
X125667691Y-107802451D01*
X125674705Y-107800323D01*
X125688140Y-107799000D01*
X126001860Y-107799000D01*
X126015295Y-107800323D01*
X126022309Y-107802451D01*
X126036077Y-107809810D01*
X126058716Y-107819187D01*
X126082749Y-107823967D01*
X126107253Y-107823967D01*
X126131286Y-107819186D01*
X126153923Y-107809810D01*
X126167691Y-107802451D01*
X126174705Y-107800323D01*
X126188140Y-107799000D01*
X126501860Y-107799000D01*
X126515295Y-107800323D01*
X126522309Y-107802451D01*
X126536077Y-107809810D01*
X126558716Y-107819187D01*
X126582749Y-107823967D01*
X126607253Y-107823967D01*
X126631286Y-107819186D01*
X126653923Y-107809810D01*
X126667691Y-107802451D01*
X126674705Y-107800323D01*
X126688140Y-107799000D01*
X127001860Y-107799000D01*
X127015295Y-107800323D01*
X127022309Y-107802451D01*
X127036077Y-107809810D01*
X127058716Y-107819187D01*
X127082749Y-107823967D01*
X127107253Y-107823967D01*
X127131286Y-107819186D01*
X127153923Y-107809810D01*
X127167691Y-107802451D01*
X127174705Y-107800323D01*
X127188140Y-107799000D01*
X127501860Y-107799000D01*
X127515295Y-107800323D01*
X127522309Y-107802451D01*
X127536077Y-107809810D01*
X127558716Y-107819187D01*
X127582749Y-107823967D01*
X127607253Y-107823967D01*
X127631286Y-107819186D01*
X127653923Y-107809810D01*
X127667691Y-107802451D01*
X127674705Y-107800323D01*
X127688140Y-107799000D01*
X128001860Y-107799000D01*
X128015295Y-107800323D01*
X128022309Y-107802451D01*
X128036077Y-107809810D01*
X128058716Y-107819187D01*
X128082749Y-107823967D01*
X128107253Y-107823967D01*
X128131286Y-107819186D01*
X128153923Y-107809810D01*
X128167691Y-107802451D01*
X128174705Y-107800323D01*
X128188140Y-107799000D01*
X128501860Y-107799000D01*
X128515295Y-107800323D01*
X128522309Y-107802451D01*
X128536077Y-107809810D01*
X128558716Y-107819187D01*
X128582749Y-107823967D01*
X128607253Y-107823967D01*
X128631286Y-107819186D01*
X128653923Y-107809810D01*
X128667691Y-107802451D01*
X128674705Y-107800323D01*
X128688140Y-107799000D01*
X129001860Y-107799000D01*
X129015295Y-107800323D01*
X129022310Y-107802451D01*
X129028776Y-107805908D01*
X129034442Y-107810558D01*
X129039092Y-107816224D01*
X129042549Y-107822690D01*
X129044677Y-107829705D01*
X129046000Y-107843140D01*
X129046000Y-109406860D01*
X129044677Y-109420295D01*
X129042549Y-109427310D01*
X129039092Y-109433776D01*
X129034442Y-109439442D01*
X129028776Y-109444092D01*
X129022310Y-109447549D01*
X129015295Y-109449677D01*
X129001860Y-109451000D01*
X128688140Y-109451000D01*
X128674705Y-109449677D01*
X128667691Y-109447549D01*
X128653923Y-109440190D01*
X128631284Y-109430813D01*
X128607251Y-109426033D01*
X128582747Y-109426033D01*
X128558714Y-109430814D01*
X128536077Y-109440190D01*
X128522309Y-109447549D01*
X128515295Y-109449677D01*
X128501860Y-109451000D01*
X128188140Y-109451000D01*
X128174705Y-109449677D01*
X128167691Y-109447549D01*
X128153923Y-109440190D01*
X128131284Y-109430813D01*
X128107251Y-109426033D01*
X128082747Y-109426033D01*
X128058714Y-109430814D01*
X128036077Y-109440190D01*
X128022309Y-109447549D01*
X128015295Y-109449677D01*
X128001860Y-109451000D01*
X127688140Y-109451000D01*
X127674705Y-109449677D01*
X127667691Y-109447549D01*
X127653923Y-109440190D01*
X127631284Y-109430813D01*
X127607251Y-109426033D01*
X127582747Y-109426033D01*
X127558714Y-109430814D01*
X127536077Y-109440190D01*
X127522309Y-109447549D01*
X127515295Y-109449677D01*
X127501860Y-109451000D01*
X127188140Y-109451000D01*
X127174705Y-109449677D01*
X127167691Y-109447549D01*
X127153923Y-109440190D01*
X127131284Y-109430813D01*
X127107251Y-109426033D01*
X127082747Y-109426033D01*
X127058714Y-109430814D01*
X127036077Y-109440190D01*
X127022309Y-109447549D01*
X127015295Y-109449677D01*
X127001860Y-109451000D01*
X126688140Y-109451000D01*
X126674705Y-109449677D01*
X126667691Y-109447549D01*
X126653923Y-109440190D01*
X126631284Y-109430813D01*
X126607251Y-109426033D01*
X126582747Y-109426033D01*
X126558714Y-109430814D01*
X126536077Y-109440190D01*
X126522309Y-109447549D01*
X126515295Y-109449677D01*
X126501860Y-109451000D01*
X126188140Y-109451000D01*
X126174705Y-109449677D01*
X126167691Y-109447549D01*
X126153923Y-109440190D01*
X126131284Y-109430813D01*
X126107251Y-109426033D01*
X126082747Y-109426033D01*
X126058714Y-109430814D01*
X126036077Y-109440190D01*
X126022309Y-109447549D01*
X126015295Y-109449677D01*
X126001860Y-109451000D01*
X125688140Y-109451000D01*
X125674705Y-109449677D01*
X125667691Y-109447549D01*
X125653923Y-109440190D01*
X125631284Y-109430813D01*
X125607251Y-109426033D01*
X125582747Y-109426033D01*
X125558714Y-109430814D01*
X125536077Y-109440190D01*
X125522309Y-109447549D01*
X125515295Y-109449677D01*
X125501860Y-109451000D01*
X125188140Y-109451000D01*
X125174705Y-109449677D01*
X125167691Y-109447549D01*
X125153923Y-109440190D01*
X125131284Y-109430813D01*
X125107251Y-109426033D01*
X125082747Y-109426033D01*
X125058714Y-109430814D01*
X125036077Y-109440190D01*
X125022309Y-109447549D01*
X125015295Y-109449677D01*
X125001860Y-109451000D01*
X124688140Y-109451000D01*
X124674705Y-109449677D01*
X124667691Y-109447549D01*
X124653923Y-109440190D01*
X124631284Y-109430813D01*
X124607251Y-109426033D01*
X124582747Y-109426033D01*
X124558714Y-109430814D01*
X124536077Y-109440190D01*
X124522309Y-109447549D01*
X124515295Y-109449677D01*
X124501860Y-109451000D01*
X124188140Y-109451000D01*
X124174705Y-109449677D01*
X124167691Y-109447549D01*
X124153923Y-109440190D01*
X124131284Y-109430813D01*
X124107251Y-109426033D01*
X124082747Y-109426033D01*
X124058714Y-109430814D01*
X124036077Y-109440190D01*
X124022309Y-109447549D01*
X124015295Y-109449677D01*
X124001860Y-109451000D01*
X123688140Y-109451000D01*
X123674705Y-109449677D01*
X123667691Y-109447549D01*
X123653923Y-109440190D01*
X123631284Y-109430813D01*
X123607251Y-109426033D01*
X123582747Y-109426033D01*
X123558714Y-109430814D01*
X123536077Y-109440190D01*
X123522309Y-109447549D01*
X123515295Y-109449677D01*
X123501860Y-109451000D01*
X123188140Y-109451000D01*
X123174705Y-109449677D01*
X123167691Y-109447549D01*
X123153923Y-109440190D01*
X123131284Y-109430813D01*
X123107251Y-109426033D01*
X123082747Y-109426033D01*
X123058714Y-109430814D01*
X123036077Y-109440190D01*
X123022309Y-109447549D01*
X123015295Y-109449677D01*
X123001860Y-109451000D01*
X122688140Y-109451000D01*
X122674705Y-109449677D01*
X122667691Y-109447549D01*
X122653923Y-109440190D01*
X122631284Y-109430813D01*
X122607251Y-109426033D01*
X122582747Y-109426033D01*
X122558714Y-109430814D01*
X122536077Y-109440190D01*
X122522309Y-109447549D01*
X122515295Y-109449677D01*
X122501860Y-109451000D01*
X122188140Y-109451000D01*
X122174705Y-109449677D01*
X122167691Y-109447549D01*
X122153923Y-109440190D01*
X122131284Y-109430813D01*
X122107251Y-109426033D01*
X122082747Y-109426033D01*
X122058714Y-109430814D01*
X122036077Y-109440190D01*
X122022309Y-109447549D01*
X122015295Y-109449677D01*
X122001860Y-109451000D01*
X121688140Y-109451000D01*
X121674705Y-109449677D01*
X121667691Y-109447549D01*
X121653923Y-109440190D01*
X121631284Y-109430813D01*
X121607251Y-109426033D01*
X121582747Y-109426033D01*
X121558714Y-109430814D01*
X121536077Y-109440190D01*
X121522309Y-109447549D01*
X121515295Y-109449677D01*
X121501860Y-109451000D01*
X121188140Y-109451000D01*
X121174705Y-109449677D01*
X121167690Y-109447549D01*
X121161224Y-109444092D01*
X121155558Y-109439442D01*
X121150908Y-109433776D01*
X121147451Y-109427310D01*
X121145323Y-109420295D01*
X121144000Y-109406860D01*
X121144000Y-107843140D01*
X121145323Y-107829705D01*
X121147451Y-107822690D01*
X121150908Y-107816224D01*
X121155558Y-107810558D01*
X121161224Y-107805908D01*
X121167690Y-107802451D01*
X121174705Y-107800323D01*
X121188140Y-107799000D01*
X121501860Y-107799000D01*
X121515295Y-107800323D01*
X121515295Y-107800323D01*
G37*
G36*
X118698674Y-107718465D02*
G01*
X118736367Y-107729899D01*
X118771103Y-107748466D01*
X118801548Y-107773452D01*
X118826534Y-107803897D01*
X118845101Y-107838633D01*
X118856535Y-107876326D01*
X118861000Y-107921661D01*
X118861000Y-108758339D01*
X118856535Y-108803674D01*
X118845101Y-108841367D01*
X118826534Y-108876103D01*
X118801548Y-108906548D01*
X118771103Y-108931534D01*
X118736367Y-108950101D01*
X118698674Y-108961535D01*
X118653339Y-108966000D01*
X117566661Y-108966000D01*
X117521326Y-108961535D01*
X117483633Y-108950101D01*
X117448897Y-108931534D01*
X117418452Y-108906548D01*
X117393466Y-108876103D01*
X117374899Y-108841367D01*
X117363465Y-108803674D01*
X117359000Y-108758339D01*
X117359000Y-107921661D01*
X117363465Y-107876326D01*
X117374899Y-107838633D01*
X117393466Y-107803897D01*
X117418452Y-107773452D01*
X117448897Y-107748466D01*
X117483633Y-107729899D01*
X117521326Y-107718465D01*
X117566661Y-107714000D01*
X118653339Y-107714000D01*
X118698674Y-107718465D01*
X118698674Y-107718465D01*
G37*
G36*
X143266000Y-108356000D02*
G01*
X141164000Y-108356000D01*
X141164000Y-106754000D01*
X143266000Y-106754000D01*
X143266000Y-108356000D01*
X143266000Y-108356000D01*
G37*
G36*
X132033674Y-107083465D02*
G01*
X132071367Y-107094899D01*
X132106103Y-107113466D01*
X132136548Y-107138452D01*
X132161534Y-107168897D01*
X132180101Y-107203633D01*
X132191535Y-107241326D01*
X132196000Y-107286661D01*
X132196000Y-108123339D01*
X132191535Y-108168674D01*
X132180101Y-108206367D01*
X132161534Y-108241103D01*
X132136548Y-108271548D01*
X132106103Y-108296534D01*
X132071367Y-108315101D01*
X132033674Y-108326535D01*
X131988339Y-108331000D01*
X130901661Y-108331000D01*
X130856326Y-108326535D01*
X130818633Y-108315101D01*
X130783897Y-108296534D01*
X130753452Y-108271548D01*
X130728466Y-108241103D01*
X130709899Y-108206367D01*
X130698465Y-108168674D01*
X130694000Y-108123339D01*
X130694000Y-107286661D01*
X130698465Y-107241326D01*
X130709899Y-107203633D01*
X130728466Y-107168897D01*
X130753452Y-107138452D01*
X130783897Y-107113466D01*
X130818633Y-107094899D01*
X130856326Y-107083465D01*
X130901661Y-107079000D01*
X131988339Y-107079000D01*
X132033674Y-107083465D01*
X132033674Y-107083465D01*
G37*
G36*
X118698674Y-105668465D02*
G01*
X118736367Y-105679899D01*
X118771103Y-105698466D01*
X118801548Y-105723452D01*
X118826534Y-105753897D01*
X118845101Y-105788633D01*
X118856535Y-105826326D01*
X118861000Y-105871661D01*
X118861000Y-106708339D01*
X118856535Y-106753674D01*
X118845101Y-106791367D01*
X118826534Y-106826103D01*
X118801548Y-106856548D01*
X118771103Y-106881534D01*
X118736367Y-106900101D01*
X118698674Y-106911535D01*
X118653339Y-106916000D01*
X117566661Y-106916000D01*
X117521326Y-106911535D01*
X117483633Y-106900101D01*
X117448897Y-106881534D01*
X117418452Y-106856548D01*
X117393466Y-106826103D01*
X117374899Y-106791367D01*
X117363465Y-106753674D01*
X117359000Y-106708339D01*
X117359000Y-105871661D01*
X117363465Y-105826326D01*
X117374899Y-105788633D01*
X117393466Y-105753897D01*
X117418452Y-105723452D01*
X117448897Y-105698466D01*
X117483633Y-105679899D01*
X117521326Y-105668465D01*
X117566661Y-105664000D01*
X118653339Y-105664000D01*
X118698674Y-105668465D01*
X118698674Y-105668465D01*
G37*
G36*
X159801000Y-106461000D02*
G01*
X157699000Y-106461000D01*
X157699000Y-104359000D01*
X159801000Y-104359000D01*
X159801000Y-106461000D01*
X159801000Y-106461000D01*
G37*
G36*
X164056564Y-104399389D02*
G01*
X164247833Y-104478615D01*
X164247835Y-104478616D01*
X164311267Y-104521000D01*
X164419973Y-104593635D01*
X164566365Y-104740027D01*
X164681385Y-104912167D01*
X164760611Y-105103436D01*
X164801000Y-105306484D01*
X164801000Y-105513516D01*
X164760611Y-105716564D01*
X164730759Y-105788633D01*
X164681384Y-105907835D01*
X164566365Y-106079973D01*
X164419973Y-106226365D01*
X164247835Y-106341384D01*
X164247834Y-106341385D01*
X164247833Y-106341385D01*
X164056564Y-106420611D01*
X163853516Y-106461000D01*
X163646484Y-106461000D01*
X163443436Y-106420611D01*
X163252167Y-106341385D01*
X163252166Y-106341385D01*
X163252165Y-106341384D01*
X163080027Y-106226365D01*
X162933635Y-106079973D01*
X162818616Y-105907835D01*
X162769241Y-105788633D01*
X162739389Y-105716564D01*
X162699000Y-105513516D01*
X162699000Y-105306484D01*
X162739389Y-105103436D01*
X162818615Y-104912167D01*
X162933635Y-104740027D01*
X163080027Y-104593635D01*
X163188733Y-104521000D01*
X163252165Y-104478616D01*
X163252167Y-104478615D01*
X163443436Y-104399389D01*
X163646484Y-104359000D01*
X163853516Y-104359000D01*
X164056564Y-104399389D01*
X164056564Y-104399389D01*
G37*
G36*
X132033674Y-105033465D02*
G01*
X132071367Y-105044899D01*
X132106103Y-105063466D01*
X132136548Y-105088452D01*
X132161534Y-105118897D01*
X132180101Y-105153633D01*
X132191535Y-105191326D01*
X132196000Y-105236661D01*
X132196000Y-106073339D01*
X132191535Y-106118674D01*
X132180101Y-106156367D01*
X132161534Y-106191103D01*
X132136548Y-106221548D01*
X132106103Y-106246534D01*
X132071367Y-106265101D01*
X132033674Y-106276535D01*
X131988339Y-106281000D01*
X130901661Y-106281000D01*
X130856326Y-106276535D01*
X130818633Y-106265101D01*
X130783897Y-106246534D01*
X130753452Y-106221548D01*
X130728466Y-106191103D01*
X130709899Y-106156367D01*
X130698465Y-106118674D01*
X130694000Y-106073339D01*
X130694000Y-105236661D01*
X130698465Y-105191326D01*
X130709899Y-105153633D01*
X130728466Y-105118897D01*
X130753452Y-105088452D01*
X130783897Y-105063466D01*
X130818633Y-105044899D01*
X130856326Y-105033465D01*
X130901661Y-105029000D01*
X131988339Y-105029000D01*
X132033674Y-105033465D01*
X132033674Y-105033465D01*
G37*
G36*
X144285562Y-104233181D02*
G01*
X144320481Y-104243774D01*
X144352663Y-104260976D01*
X144380873Y-104284127D01*
X144404024Y-104312337D01*
X144421226Y-104344519D01*
X144431819Y-104379438D01*
X144436000Y-104421895D01*
X144436000Y-105563105D01*
X144431819Y-105605562D01*
X144421226Y-105640481D01*
X144404024Y-105672663D01*
X144380873Y-105700873D01*
X144352663Y-105724024D01*
X144320481Y-105741226D01*
X144285562Y-105751819D01*
X144243105Y-105756000D01*
X142776895Y-105756000D01*
X142734438Y-105751819D01*
X142699519Y-105741226D01*
X142667337Y-105724024D01*
X142639127Y-105700873D01*
X142615976Y-105672663D01*
X142598774Y-105640481D01*
X142588181Y-105605562D01*
X142584000Y-105563105D01*
X142584000Y-104421895D01*
X142588181Y-104379438D01*
X142598774Y-104344519D01*
X142615976Y-104312337D01*
X142639127Y-104284127D01*
X142667337Y-104260976D01*
X142699519Y-104243774D01*
X142734438Y-104233181D01*
X142776895Y-104229000D01*
X144243105Y-104229000D01*
X144285562Y-104233181D01*
X144285562Y-104233181D01*
G37*
G36*
X125803674Y-104028465D02*
G01*
X125841367Y-104039899D01*
X125876103Y-104058466D01*
X125906548Y-104083452D01*
X125931534Y-104113897D01*
X125950101Y-104148633D01*
X125961535Y-104186326D01*
X125966000Y-104231661D01*
X125966000Y-105318339D01*
X125961535Y-105363674D01*
X125950101Y-105401367D01*
X125931534Y-105436103D01*
X125906548Y-105466548D01*
X125876103Y-105491534D01*
X125841367Y-105510101D01*
X125803674Y-105521535D01*
X125758339Y-105526000D01*
X124921661Y-105526000D01*
X124876326Y-105521535D01*
X124838633Y-105510101D01*
X124803897Y-105491534D01*
X124773452Y-105466548D01*
X124748466Y-105436103D01*
X124729899Y-105401367D01*
X124718465Y-105363674D01*
X124714000Y-105318339D01*
X124714000Y-104231661D01*
X124718465Y-104186326D01*
X124729899Y-104148633D01*
X124748466Y-104113897D01*
X124773452Y-104083452D01*
X124803897Y-104058466D01*
X124838633Y-104039899D01*
X124876326Y-104028465D01*
X124921661Y-104024000D01*
X125758339Y-104024000D01*
X125803674Y-104028465D01*
X125803674Y-104028465D01*
G37*
G36*
X138648674Y-104028465D02*
G01*
X138686367Y-104039899D01*
X138721103Y-104058466D01*
X138751548Y-104083452D01*
X138776534Y-104113897D01*
X138795101Y-104148633D01*
X138806535Y-104186326D01*
X138811000Y-104231661D01*
X138811000Y-105318339D01*
X138806535Y-105363674D01*
X138795101Y-105401367D01*
X138776534Y-105436103D01*
X138751548Y-105466548D01*
X138721103Y-105491534D01*
X138686367Y-105510101D01*
X138648674Y-105521535D01*
X138603339Y-105526000D01*
X137766661Y-105526000D01*
X137721326Y-105521535D01*
X137683633Y-105510101D01*
X137648897Y-105491534D01*
X137618452Y-105466548D01*
X137593466Y-105436103D01*
X137574899Y-105401367D01*
X137563465Y-105363674D01*
X137559000Y-105318339D01*
X137559000Y-104231661D01*
X137563465Y-104186326D01*
X137574899Y-104148633D01*
X137593466Y-104113897D01*
X137618452Y-104083452D01*
X137648897Y-104058466D01*
X137683633Y-104039899D01*
X137721326Y-104028465D01*
X137766661Y-104024000D01*
X138603339Y-104024000D01*
X138648674Y-104028465D01*
X138648674Y-104028465D01*
G37*
G36*
X120723674Y-104028465D02*
G01*
X120761367Y-104039899D01*
X120796103Y-104058466D01*
X120826548Y-104083452D01*
X120851534Y-104113897D01*
X120870101Y-104148633D01*
X120881535Y-104186326D01*
X120886000Y-104231661D01*
X120886000Y-105318339D01*
X120881535Y-105363674D01*
X120870101Y-105401367D01*
X120851534Y-105436103D01*
X120826548Y-105466548D01*
X120796103Y-105491534D01*
X120761367Y-105510101D01*
X120723674Y-105521535D01*
X120678339Y-105526000D01*
X119841661Y-105526000D01*
X119796326Y-105521535D01*
X119758633Y-105510101D01*
X119723897Y-105491534D01*
X119693452Y-105466548D01*
X119668466Y-105436103D01*
X119649899Y-105401367D01*
X119638465Y-105363674D01*
X119634000Y-105318339D01*
X119634000Y-104231661D01*
X119638465Y-104186326D01*
X119649899Y-104148633D01*
X119668466Y-104113897D01*
X119693452Y-104083452D01*
X119723897Y-104058466D01*
X119758633Y-104039899D01*
X119796326Y-104028465D01*
X119841661Y-104024000D01*
X120678339Y-104024000D01*
X120723674Y-104028465D01*
X120723674Y-104028465D01*
G37*
G36*
X136598674Y-104028465D02*
G01*
X136636367Y-104039899D01*
X136671103Y-104058466D01*
X136701548Y-104083452D01*
X136726534Y-104113897D01*
X136745101Y-104148633D01*
X136756535Y-104186326D01*
X136761000Y-104231661D01*
X136761000Y-105318339D01*
X136756535Y-105363674D01*
X136745101Y-105401367D01*
X136726534Y-105436103D01*
X136701548Y-105466548D01*
X136671103Y-105491534D01*
X136636367Y-105510101D01*
X136598674Y-105521535D01*
X136553339Y-105526000D01*
X135716661Y-105526000D01*
X135671326Y-105521535D01*
X135633633Y-105510101D01*
X135598897Y-105491534D01*
X135568452Y-105466548D01*
X135543466Y-105436103D01*
X135524899Y-105401367D01*
X135513465Y-105363674D01*
X135509000Y-105318339D01*
X135509000Y-104231661D01*
X135513465Y-104186326D01*
X135524899Y-104148633D01*
X135543466Y-104113897D01*
X135568452Y-104083452D01*
X135598897Y-104058466D01*
X135633633Y-104039899D01*
X135671326Y-104028465D01*
X135716661Y-104024000D01*
X136553339Y-104024000D01*
X136598674Y-104028465D01*
X136598674Y-104028465D01*
G37*
G36*
X127853674Y-104028465D02*
G01*
X127891367Y-104039899D01*
X127926103Y-104058466D01*
X127956548Y-104083452D01*
X127981534Y-104113897D01*
X128000101Y-104148633D01*
X128011535Y-104186326D01*
X128016000Y-104231661D01*
X128016000Y-105318339D01*
X128011535Y-105363674D01*
X128000101Y-105401367D01*
X127981534Y-105436103D01*
X127956548Y-105466548D01*
X127926103Y-105491534D01*
X127891367Y-105510101D01*
X127853674Y-105521535D01*
X127808339Y-105526000D01*
X126971661Y-105526000D01*
X126926326Y-105521535D01*
X126888633Y-105510101D01*
X126853897Y-105491534D01*
X126823452Y-105466548D01*
X126798466Y-105436103D01*
X126779899Y-105401367D01*
X126768465Y-105363674D01*
X126764000Y-105318339D01*
X126764000Y-104231661D01*
X126768465Y-104186326D01*
X126779899Y-104148633D01*
X126798466Y-104113897D01*
X126823452Y-104083452D01*
X126853897Y-104058466D01*
X126888633Y-104039899D01*
X126926326Y-104028465D01*
X126971661Y-104024000D01*
X127808339Y-104024000D01*
X127853674Y-104028465D01*
X127853674Y-104028465D01*
G37*
G36*
X122773674Y-104028465D02*
G01*
X122811367Y-104039899D01*
X122846103Y-104058466D01*
X122876548Y-104083452D01*
X122901534Y-104113897D01*
X122920101Y-104148633D01*
X122931535Y-104186326D01*
X122936000Y-104231661D01*
X122936000Y-105318339D01*
X122931535Y-105363674D01*
X122920101Y-105401367D01*
X122901534Y-105436103D01*
X122876548Y-105466548D01*
X122846103Y-105491534D01*
X122811367Y-105510101D01*
X122773674Y-105521535D01*
X122728339Y-105526000D01*
X121891661Y-105526000D01*
X121846326Y-105521535D01*
X121808633Y-105510101D01*
X121773897Y-105491534D01*
X121743452Y-105466548D01*
X121718466Y-105436103D01*
X121699899Y-105401367D01*
X121688465Y-105363674D01*
X121684000Y-105318339D01*
X121684000Y-104231661D01*
X121688465Y-104186326D01*
X121699899Y-104148633D01*
X121718466Y-104113897D01*
X121743452Y-104083452D01*
X121773897Y-104058466D01*
X121808633Y-104039899D01*
X121846326Y-104028465D01*
X121891661Y-104024000D01*
X122728339Y-104024000D01*
X122773674Y-104028465D01*
X122773674Y-104028465D01*
G37*
G36*
X141558674Y-103273465D02*
G01*
X141596367Y-103284899D01*
X141631103Y-103303466D01*
X141661548Y-103328452D01*
X141686534Y-103358897D01*
X141705101Y-103393633D01*
X141716535Y-103431326D01*
X141721000Y-103476661D01*
X141721000Y-104313339D01*
X141716535Y-104358674D01*
X141705101Y-104396367D01*
X141686534Y-104431103D01*
X141661548Y-104461548D01*
X141631103Y-104486534D01*
X141596367Y-104505101D01*
X141558674Y-104516535D01*
X141513339Y-104521000D01*
X140426661Y-104521000D01*
X140381326Y-104516535D01*
X140343633Y-104505101D01*
X140308897Y-104486534D01*
X140278452Y-104461548D01*
X140253466Y-104431103D01*
X140234899Y-104396367D01*
X140223465Y-104358674D01*
X140219000Y-104313339D01*
X140219000Y-103476661D01*
X140223465Y-103431326D01*
X140234899Y-103393633D01*
X140253466Y-103358897D01*
X140278452Y-103328452D01*
X140308897Y-103303466D01*
X140343633Y-103284899D01*
X140381326Y-103273465D01*
X140426661Y-103269000D01*
X141513339Y-103269000D01*
X141558674Y-103273465D01*
X141558674Y-103273465D01*
G37*
G36*
X124816000Y-103226000D02*
G01*
X123414000Y-103226000D01*
X123414000Y-101574000D01*
X124816000Y-101574000D01*
X124816000Y-103226000D01*
X124816000Y-103226000D01*
G37*
G36*
X121061000Y-103226000D02*
G01*
X119659000Y-103226000D01*
X119659000Y-101574000D01*
X121061000Y-101574000D01*
X121061000Y-103226000D01*
X121061000Y-103226000D01*
G37*
G36*
X116561000Y-103226000D02*
G01*
X115159000Y-103226000D01*
X115159000Y-101574000D01*
X116561000Y-101574000D01*
X116561000Y-103226000D01*
X116561000Y-103226000D01*
G37*
G36*
X129316000Y-103226000D02*
G01*
X127914000Y-103226000D01*
X127914000Y-101574000D01*
X129316000Y-101574000D01*
X129316000Y-103226000D01*
X129316000Y-103226000D01*
G37*
G36*
X135868062Y-101313181D02*
G01*
X135902981Y-101323774D01*
X135935163Y-101340976D01*
X135963373Y-101364127D01*
X135986524Y-101392337D01*
X136003726Y-101424519D01*
X136014319Y-101459438D01*
X136018500Y-101501895D01*
X136018500Y-102968105D01*
X136014319Y-103010562D01*
X136003726Y-103045481D01*
X135986524Y-103077663D01*
X135963373Y-103105873D01*
X135935163Y-103129024D01*
X135902981Y-103146226D01*
X135868062Y-103156819D01*
X135825605Y-103161000D01*
X134684395Y-103161000D01*
X134641938Y-103156819D01*
X134607019Y-103146226D01*
X134574837Y-103129024D01*
X134546627Y-103105873D01*
X134523476Y-103077663D01*
X134506274Y-103045481D01*
X134495681Y-103010562D01*
X134491500Y-102968105D01*
X134491500Y-101501895D01*
X134495681Y-101459438D01*
X134506274Y-101424519D01*
X134523476Y-101392337D01*
X134546627Y-101364127D01*
X134574837Y-101340976D01*
X134607019Y-101323774D01*
X134641938Y-101313181D01*
X134684395Y-101309000D01*
X135825605Y-101309000D01*
X135868062Y-101313181D01*
X135868062Y-101313181D01*
G37*
G36*
X138843062Y-101313181D02*
G01*
X138877981Y-101323774D01*
X138910163Y-101340976D01*
X138938373Y-101364127D01*
X138961524Y-101392337D01*
X138978726Y-101424519D01*
X138989319Y-101459438D01*
X138993500Y-101501895D01*
X138993500Y-102968105D01*
X138989319Y-103010562D01*
X138978726Y-103045481D01*
X138961524Y-103077663D01*
X138938373Y-103105873D01*
X138910163Y-103129024D01*
X138877981Y-103146226D01*
X138843062Y-103156819D01*
X138800605Y-103161000D01*
X137659395Y-103161000D01*
X137616938Y-103156819D01*
X137582019Y-103146226D01*
X137549837Y-103129024D01*
X137521627Y-103105873D01*
X137498476Y-103077663D01*
X137481274Y-103045481D01*
X137470681Y-103010562D01*
X137466500Y-102968105D01*
X137466500Y-101501895D01*
X137470681Y-101459438D01*
X137481274Y-101424519D01*
X137498476Y-101392337D01*
X137521627Y-101364127D01*
X137549837Y-101340976D01*
X137582019Y-101323774D01*
X137616938Y-101313181D01*
X137659395Y-101309000D01*
X138800605Y-101309000D01*
X138843062Y-101313181D01*
X138843062Y-101313181D01*
G37*
G36*
X144285562Y-101258181D02*
G01*
X144320481Y-101268774D01*
X144352663Y-101285976D01*
X144380873Y-101309127D01*
X144404024Y-101337337D01*
X144421226Y-101369519D01*
X144431819Y-101404438D01*
X144436000Y-101446895D01*
X144436000Y-102588105D01*
X144431819Y-102630562D01*
X144421226Y-102665481D01*
X144404024Y-102697663D01*
X144380873Y-102725873D01*
X144352663Y-102749024D01*
X144320481Y-102766226D01*
X144285562Y-102776819D01*
X144243105Y-102781000D01*
X142776895Y-102781000D01*
X142734438Y-102776819D01*
X142699519Y-102766226D01*
X142667337Y-102749024D01*
X142639127Y-102725873D01*
X142615976Y-102697663D01*
X142598774Y-102665481D01*
X142588181Y-102630562D01*
X142584000Y-102588105D01*
X142584000Y-101446895D01*
X142588181Y-101404438D01*
X142598774Y-101369519D01*
X142615976Y-101337337D01*
X142639127Y-101309127D01*
X142667337Y-101285976D01*
X142699519Y-101268774D01*
X142734438Y-101258181D01*
X142776895Y-101254000D01*
X144243105Y-101254000D01*
X144285562Y-101258181D01*
X144285562Y-101258181D01*
G37*
G36*
X141558674Y-101223465D02*
G01*
X141596367Y-101234899D01*
X141631103Y-101253466D01*
X141661548Y-101278452D01*
X141686534Y-101308897D01*
X141705101Y-101343633D01*
X141716535Y-101381326D01*
X141721000Y-101426661D01*
X141721000Y-102263339D01*
X141716535Y-102308674D01*
X141705101Y-102346367D01*
X141686534Y-102381103D01*
X141661548Y-102411548D01*
X141631103Y-102436534D01*
X141596367Y-102455101D01*
X141558674Y-102466535D01*
X141513339Y-102471000D01*
X140426661Y-102471000D01*
X140381326Y-102466535D01*
X140343633Y-102455101D01*
X140308897Y-102436534D01*
X140278452Y-102411548D01*
X140253466Y-102381103D01*
X140234899Y-102346367D01*
X140223465Y-102308674D01*
X140219000Y-102263339D01*
X140219000Y-101426661D01*
X140223465Y-101381326D01*
X140234899Y-101343633D01*
X140253466Y-101308897D01*
X140278452Y-101278452D01*
X140308897Y-101253466D01*
X140343633Y-101234899D01*
X140381326Y-101223465D01*
X140426661Y-101219000D01*
X141513339Y-101219000D01*
X141558674Y-101223465D01*
X141558674Y-101223465D01*
G37*
G36*
X154721000Y-100746000D02*
G01*
X152619000Y-100746000D01*
X152619000Y-98644000D01*
X154721000Y-98644000D01*
X154721000Y-100746000D01*
X154721000Y-100746000D01*
G37*
G36*
X148976564Y-98684389D02*
G01*
X149167833Y-98763615D01*
X149167835Y-98763616D01*
X149339973Y-98878635D01*
X149486365Y-99025027D01*
X149601385Y-99197167D01*
X149680611Y-99388436D01*
X149721000Y-99591484D01*
X149721000Y-99798516D01*
X149680611Y-100001564D01*
X149601385Y-100192833D01*
X149601384Y-100192835D01*
X149486365Y-100364973D01*
X149339973Y-100511365D01*
X149167835Y-100626384D01*
X149167834Y-100626385D01*
X149167833Y-100626385D01*
X148976564Y-100705611D01*
X148773516Y-100746000D01*
X148566484Y-100746000D01*
X148363436Y-100705611D01*
X148172167Y-100626385D01*
X148172166Y-100626385D01*
X148172165Y-100626384D01*
X148000027Y-100511365D01*
X147853635Y-100364973D01*
X147738616Y-100192835D01*
X147738615Y-100192833D01*
X147659389Y-100001564D01*
X147619000Y-99798516D01*
X147619000Y-99591484D01*
X147659389Y-99388436D01*
X147738615Y-99197167D01*
X147853635Y-99025027D01*
X148000027Y-98878635D01*
X148172165Y-98763616D01*
X148172167Y-98763615D01*
X148363436Y-98684389D01*
X148566484Y-98644000D01*
X148773516Y-98644000D01*
X148976564Y-98684389D01*
X148976564Y-98684389D01*
G37*
G36*
X167375256Y-95391298D02*
G01*
X167481579Y-95412447D01*
X167782042Y-95536903D01*
X168052451Y-95717585D01*
X168282415Y-95947549D01*
X168282416Y-95947551D01*
X168463098Y-96217960D01*
X168587553Y-96518422D01*
X168632571Y-96744739D01*
X168651000Y-96837391D01*
X168651000Y-97162609D01*
X168587553Y-97481579D01*
X168463097Y-97782042D01*
X168282415Y-98052451D01*
X168052451Y-98282415D01*
X167782042Y-98463097D01*
X167481579Y-98587553D01*
X167375256Y-98608702D01*
X167162611Y-98651000D01*
X166837389Y-98651000D01*
X166624744Y-98608702D01*
X166518421Y-98587553D01*
X166217958Y-98463097D01*
X165947549Y-98282415D01*
X165717585Y-98052451D01*
X165536903Y-97782042D01*
X165412447Y-97481579D01*
X165349000Y-97162609D01*
X165349000Y-96837391D01*
X165367430Y-96744739D01*
X165412447Y-96518422D01*
X165536902Y-96217960D01*
X165717584Y-95947551D01*
X165717585Y-95947549D01*
X165947549Y-95717585D01*
X166217958Y-95536903D01*
X166518421Y-95412447D01*
X166624744Y-95391298D01*
X166837389Y-95349000D01*
X167162611Y-95349000D01*
X167375256Y-95391298D01*
X167375256Y-95391298D01*
G37*
G36*
X107375256Y-95391298D02*
G01*
X107481579Y-95412447D01*
X107782042Y-95536903D01*
X108052451Y-95717585D01*
X108282415Y-95947549D01*
X108282416Y-95947551D01*
X108463098Y-96217960D01*
X108587553Y-96518422D01*
X108632571Y-96744739D01*
X108651000Y-96837391D01*
X108651000Y-97162609D01*
X108587553Y-97481579D01*
X108463097Y-97782042D01*
X108282415Y-98052451D01*
X108052451Y-98282415D01*
X107782042Y-98463097D01*
X107481579Y-98587553D01*
X107375256Y-98608702D01*
X107162611Y-98651000D01*
X106837389Y-98651000D01*
X106624744Y-98608702D01*
X106518421Y-98587553D01*
X106217958Y-98463097D01*
X105947549Y-98282415D01*
X105717585Y-98052451D01*
X105536903Y-97782042D01*
X105412447Y-97481579D01*
X105349000Y-97162609D01*
X105349000Y-96837391D01*
X105367430Y-96744739D01*
X105412447Y-96518422D01*
X105536902Y-96217960D01*
X105717584Y-95947551D01*
X105717585Y-95947549D01*
X105947549Y-95717585D01*
X106217958Y-95536903D01*
X106518421Y-95412447D01*
X106624744Y-95391298D01*
X106837389Y-95349000D01*
X107162611Y-95349000D01*
X107375256Y-95391298D01*
X107375256Y-95391298D01*
G37*
G36*
X133616348Y-96601320D02*
G01*
X133616350Y-96601321D01*
X133616351Y-96601321D01*
X133757574Y-96659817D01*
X133757577Y-96659819D01*
X133884669Y-96744739D01*
X133992761Y-96852831D01*
X134049375Y-96937560D01*
X134077683Y-96979926D01*
X134098517Y-97030225D01*
X134110068Y-97051836D01*
X134125614Y-97070778D01*
X134144556Y-97086323D01*
X134166166Y-97097874D01*
X134189615Y-97104987D01*
X134214001Y-97107389D01*
X134238387Y-97104987D01*
X134261836Y-97097874D01*
X134283447Y-97086323D01*
X134302389Y-97070777D01*
X134317934Y-97051835D01*
X134329485Y-97030225D01*
X134336598Y-97006776D01*
X134339000Y-96982390D01*
X134339000Y-96621500D01*
X137441000Y-96621500D01*
X137441000Y-96982390D01*
X137443402Y-97006776D01*
X137450515Y-97030225D01*
X137462066Y-97051836D01*
X137477611Y-97070778D01*
X137496553Y-97086323D01*
X137518164Y-97097874D01*
X137541613Y-97104987D01*
X137565999Y-97107389D01*
X137590385Y-97104987D01*
X137613834Y-97097874D01*
X137635445Y-97086323D01*
X137654387Y-97070778D01*
X137669932Y-97051836D01*
X137681483Y-97030225D01*
X137702317Y-96979926D01*
X137730625Y-96937560D01*
X137787239Y-96852831D01*
X137895331Y-96744739D01*
X138022423Y-96659819D01*
X138022426Y-96659817D01*
X138163649Y-96601321D01*
X138163650Y-96601321D01*
X138163652Y-96601320D01*
X138313569Y-96571500D01*
X138466431Y-96571500D01*
X138616348Y-96601320D01*
X138616350Y-96601321D01*
X138616351Y-96601321D01*
X138757574Y-96659817D01*
X138757577Y-96659819D01*
X138884669Y-96744739D01*
X138992761Y-96852831D01*
X139077681Y-96979923D01*
X139077683Y-96979926D01*
X139130479Y-97107389D01*
X139136180Y-97121152D01*
X139166000Y-97271069D01*
X139166000Y-97423929D01*
X139136179Y-97573851D01*
X139077683Y-97715074D01*
X139077682Y-97715075D01*
X139077681Y-97715077D01*
X138992761Y-97842169D01*
X138884669Y-97950261D01*
X138757577Y-98035181D01*
X138757574Y-98035183D01*
X138616351Y-98093679D01*
X138616350Y-98093679D01*
X138616348Y-98093680D01*
X138466431Y-98123500D01*
X138313569Y-98123500D01*
X138163652Y-98093680D01*
X138163650Y-98093679D01*
X138163649Y-98093679D01*
X138022426Y-98035183D01*
X138022423Y-98035181D01*
X137895331Y-97950261D01*
X137787239Y-97842169D01*
X137702318Y-97715075D01*
X137702317Y-97715074D01*
X137681481Y-97664772D01*
X137669932Y-97643164D01*
X137654386Y-97624222D01*
X137635444Y-97608677D01*
X137613834Y-97597126D01*
X137590385Y-97590013D01*
X137565999Y-97587611D01*
X137541613Y-97590013D01*
X137518164Y-97597126D01*
X137496553Y-97608677D01*
X137477611Y-97624223D01*
X137462066Y-97643165D01*
X137450515Y-97664775D01*
X137443402Y-97688224D01*
X137441000Y-97712610D01*
X137441000Y-98073500D01*
X134339000Y-98073500D01*
X134339000Y-97712610D01*
X134336598Y-97688224D01*
X134329485Y-97664775D01*
X134317934Y-97643164D01*
X134302389Y-97624222D01*
X134283447Y-97608677D01*
X134261836Y-97597126D01*
X134238387Y-97590013D01*
X134214001Y-97587611D01*
X134189615Y-97590013D01*
X134166166Y-97597126D01*
X134144555Y-97608677D01*
X134125613Y-97624222D01*
X134110068Y-97643164D01*
X134098519Y-97664772D01*
X134077683Y-97715074D01*
X134077682Y-97715075D01*
X133992761Y-97842169D01*
X133884669Y-97950261D01*
X133757577Y-98035181D01*
X133757574Y-98035183D01*
X133616351Y-98093679D01*
X133616350Y-98093679D01*
X133616348Y-98093680D01*
X133466431Y-98123500D01*
X133313569Y-98123500D01*
X133163652Y-98093680D01*
X133163650Y-98093679D01*
X133163649Y-98093679D01*
X133022426Y-98035183D01*
X133022423Y-98035181D01*
X132895331Y-97950261D01*
X132787239Y-97842169D01*
X132702319Y-97715077D01*
X132702318Y-97715075D01*
X132702317Y-97715074D01*
X132643821Y-97573851D01*
X132614000Y-97423929D01*
X132614000Y-97271069D01*
X132643820Y-97121152D01*
X132649521Y-97107389D01*
X132702317Y-96979926D01*
X132702319Y-96979923D01*
X132787239Y-96852831D01*
X132895331Y-96744739D01*
X133022423Y-96659819D01*
X133022426Y-96659817D01*
X133163649Y-96601321D01*
X133163650Y-96601321D01*
X133163652Y-96601320D01*
X133313569Y-96571500D01*
X133466431Y-96571500D01*
X133616348Y-96601320D01*
X133616348Y-96601320D01*
G37*
G36*
X132415862Y-93645898D02*
G01*
X132428114Y-93646500D01*
X133641000Y-93646500D01*
X133641000Y-95648500D01*
X132428114Y-95648500D01*
X132415862Y-95649102D01*
X132390000Y-95651649D01*
X132364138Y-95649102D01*
X132351886Y-95648500D01*
X132278594Y-95648500D01*
X132261836Y-95639543D01*
X132250299Y-95635415D01*
X132165307Y-95609632D01*
X132139664Y-95601854D01*
X132026575Y-95541406D01*
X131927447Y-95460054D01*
X131846094Y-95360924D01*
X131785646Y-95247835D01*
X131775960Y-95215903D01*
X131748420Y-95125117D01*
X131739000Y-95029472D01*
X131739000Y-94265527D01*
X131748420Y-94169882D01*
X131785645Y-94047168D01*
X131846096Y-93934074D01*
X131927447Y-93834946D01*
X132026576Y-93753594D01*
X132139666Y-93693146D01*
X132139669Y-93693145D01*
X132250290Y-93659588D01*
X132272925Y-93650212D01*
X132278481Y-93646500D01*
X132351886Y-93646500D01*
X132364138Y-93645898D01*
X132390000Y-93643351D01*
X132415862Y-93645898D01*
X132415862Y-93645898D01*
G37*
G36*
X139415862Y-93645898D02*
G01*
X139428114Y-93646500D01*
X139501406Y-93646500D01*
X139518164Y-93655457D01*
X139529707Y-93659587D01*
X139640331Y-93693145D01*
X139640334Y-93693146D01*
X139753424Y-93753594D01*
X139852554Y-93834947D01*
X139933906Y-93934075D01*
X139994354Y-94047164D01*
X140004040Y-94079096D01*
X140031580Y-94169882D01*
X140041000Y-94265527D01*
X140041000Y-95029473D01*
X140031580Y-95125118D01*
X140004040Y-95215904D01*
X139994354Y-95247836D01*
X139933906Y-95360925D01*
X139852554Y-95460054D01*
X139753425Y-95541406D01*
X139640336Y-95601854D01*
X139614693Y-95609632D01*
X139529708Y-95635413D01*
X139507075Y-95644787D01*
X139501518Y-95648500D01*
X139428114Y-95648500D01*
X139415862Y-95649102D01*
X139390000Y-95651649D01*
X139364138Y-95649102D01*
X139351886Y-95648500D01*
X138139000Y-95648500D01*
X138139000Y-93646500D01*
X139351886Y-93646500D01*
X139364138Y-93645898D01*
X139390000Y-93643351D01*
X139415862Y-93645898D01*
X139415862Y-93645898D01*
G37*
G36*
X135691000Y-95648500D02*
G01*
X134089000Y-95648500D01*
X134089000Y-93646500D01*
X135691000Y-93646500D01*
X135691000Y-95648500D01*
X135691000Y-95648500D01*
G37*
G36*
X137691000Y-95648500D02*
G01*
X136089000Y-95648500D01*
X136089000Y-93646500D01*
X137691000Y-93646500D01*
X137691000Y-95648500D01*
X137691000Y-95648500D01*
G37*
G36*
X124816000Y-95276000D02*
G01*
X123414000Y-95276000D01*
X123414000Y-93624000D01*
X124816000Y-93624000D01*
X124816000Y-95276000D01*
X124816000Y-95276000D01*
G37*
G36*
X129316000Y-95276000D02*
G01*
X127914000Y-95276000D01*
X127914000Y-93624000D01*
X129316000Y-93624000D01*
X129316000Y-95276000D01*
X129316000Y-95276000D01*
G37*
G36*
X121061000Y-95276000D02*
G01*
X119659000Y-95276000D01*
X119659000Y-93624000D01*
X121061000Y-93624000D01*
X121061000Y-95276000D01*
X121061000Y-95276000D01*
G37*
G36*
X116561000Y-95276000D02*
G01*
X115159000Y-95276000D01*
X115159000Y-93624000D01*
X116561000Y-93624000D01*
X116561000Y-95276000D01*
X116561000Y-95276000D01*
G37*
M02*
