G04 #@! TF.GenerationSoftware,KiCad,Pcbnew,(5.1.4)-1*
G04 #@! TF.CreationDate,2019-09-08T20:19:07+01:00*
G04 #@! TF.ProjectId,autoscreen,6175746f-7363-4726-9565-6e2e6b696361,rev?*
G04 #@! TF.SameCoordinates,Original*
G04 #@! TF.FileFunction,Legend,Top*
G04 #@! TF.FilePolarity,Positive*
%FSLAX46Y46*%
G04 Gerber Fmt 4.6, Leading zero omitted, Abs format (unit mm)*
G04 Created by KiCad (PCBNEW (5.1.4)-1) date 2019-09-08 20:19:07*
%MOMM*%
%LPD*%
G04 APERTURE LIST*
%ADD10C,0.150000*%
%ADD11C,0.254000*%
%ADD12C,0.120000*%
G04 APERTURE END LIST*
D10*
X153736872Y-130246380D02*
X153463062Y-129770190D01*
X153165443Y-130246380D02*
X153290443Y-129246380D01*
X153671395Y-129246380D01*
X153760681Y-129294000D01*
X153802348Y-129341619D01*
X153838062Y-129436857D01*
X153820205Y-129579714D01*
X153760681Y-129674952D01*
X153707110Y-129722571D01*
X153605919Y-129770190D01*
X153224967Y-129770190D01*
X154552348Y-130198761D02*
X154451157Y-130246380D01*
X154260681Y-130246380D01*
X154171395Y-130198761D01*
X154135681Y-130103523D01*
X154183300Y-129722571D01*
X154242824Y-129627333D01*
X154344014Y-129579714D01*
X154534491Y-129579714D01*
X154623776Y-129627333D01*
X154659491Y-129722571D01*
X154647586Y-129817809D01*
X154159491Y-129913047D01*
X155010681Y-129579714D02*
X155165443Y-130246380D01*
X155486872Y-129579714D01*
X157070205Y-130246380D02*
X156498776Y-130246380D01*
X156784491Y-130246380D02*
X156909491Y-129246380D01*
X156796395Y-129389238D01*
X156689252Y-129484476D01*
X156588062Y-129532095D01*
X153222476Y-128227666D02*
X153827238Y-128227666D01*
X153101523Y-128590523D02*
X153524857Y-127320523D01*
X153948190Y-128590523D01*
X154915809Y-127743857D02*
X154915809Y-128590523D01*
X154371523Y-127743857D02*
X154371523Y-128409095D01*
X154432000Y-128530047D01*
X154552952Y-128590523D01*
X154734380Y-128590523D01*
X154855333Y-128530047D01*
X154915809Y-128469571D01*
X155339142Y-127743857D02*
X155822952Y-127743857D01*
X155520571Y-127320523D02*
X155520571Y-128409095D01*
X155581047Y-128530047D01*
X155702000Y-128590523D01*
X155822952Y-128590523D01*
X156427714Y-128590523D02*
X156306761Y-128530047D01*
X156246285Y-128469571D01*
X156185809Y-128348619D01*
X156185809Y-127985761D01*
X156246285Y-127864809D01*
X156306761Y-127804333D01*
X156427714Y-127743857D01*
X156609142Y-127743857D01*
X156730095Y-127804333D01*
X156790571Y-127864809D01*
X156851047Y-127985761D01*
X156851047Y-128348619D01*
X156790571Y-128469571D01*
X156730095Y-128530047D01*
X156609142Y-128590523D01*
X156427714Y-128590523D01*
X157334857Y-128530047D02*
X157516285Y-128590523D01*
X157818666Y-128590523D01*
X157939619Y-128530047D01*
X158000095Y-128469571D01*
X158060571Y-128348619D01*
X158060571Y-128227666D01*
X158000095Y-128106714D01*
X157939619Y-128046238D01*
X157818666Y-127985761D01*
X157576761Y-127925285D01*
X157455809Y-127864809D01*
X157395333Y-127804333D01*
X157334857Y-127683380D01*
X157334857Y-127562428D01*
X157395333Y-127441476D01*
X157455809Y-127381000D01*
X157576761Y-127320523D01*
X157879142Y-127320523D01*
X158060571Y-127381000D01*
X159149142Y-128530047D02*
X159028190Y-128590523D01*
X158786285Y-128590523D01*
X158665333Y-128530047D01*
X158604857Y-128469571D01*
X158544380Y-128348619D01*
X158544380Y-127985761D01*
X158604857Y-127864809D01*
X158665333Y-127804333D01*
X158786285Y-127743857D01*
X159028190Y-127743857D01*
X159149142Y-127804333D01*
X159693428Y-128590523D02*
X159693428Y-127743857D01*
X159693428Y-127985761D02*
X159753904Y-127864809D01*
X159814380Y-127804333D01*
X159935333Y-127743857D01*
X160056285Y-127743857D01*
X160963428Y-128530047D02*
X160842476Y-128590523D01*
X160600571Y-128590523D01*
X160479619Y-128530047D01*
X160419142Y-128409095D01*
X160419142Y-127925285D01*
X160479619Y-127804333D01*
X160600571Y-127743857D01*
X160842476Y-127743857D01*
X160963428Y-127804333D01*
X161023904Y-127925285D01*
X161023904Y-128046238D01*
X160419142Y-128167190D01*
X162052000Y-128530047D02*
X161931047Y-128590523D01*
X161689142Y-128590523D01*
X161568190Y-128530047D01*
X161507714Y-128409095D01*
X161507714Y-127925285D01*
X161568190Y-127804333D01*
X161689142Y-127743857D01*
X161931047Y-127743857D01*
X162052000Y-127804333D01*
X162112476Y-127925285D01*
X162112476Y-128046238D01*
X161507714Y-128167190D01*
X162656761Y-127743857D02*
X162656761Y-128590523D01*
X162656761Y-127864809D02*
X162717238Y-127804333D01*
X162838190Y-127743857D01*
X163019619Y-127743857D01*
X163140571Y-127804333D01*
X163201047Y-127925285D01*
X163201047Y-128590523D01*
D11*
X137111619Y-133337904D02*
X137111619Y-132708952D01*
X137498666Y-133047619D01*
X137498666Y-132902476D01*
X137547047Y-132805714D01*
X137595428Y-132757333D01*
X137692190Y-132708952D01*
X137934095Y-132708952D01*
X138030857Y-132757333D01*
X138079238Y-132805714D01*
X138127619Y-132902476D01*
X138127619Y-133192761D01*
X138079238Y-133289523D01*
X138030857Y-133337904D01*
X137111619Y-132418666D02*
X138127619Y-132080000D01*
X137111619Y-131741333D01*
X137111619Y-131499428D02*
X137111619Y-130870476D01*
X137498666Y-131209142D01*
X137498666Y-131064000D01*
X137547047Y-130967238D01*
X137595428Y-130918857D01*
X137692190Y-130870476D01*
X137934095Y-130870476D01*
X138030857Y-130918857D01*
X138079238Y-130967238D01*
X138127619Y-131064000D01*
X138127619Y-131354285D01*
X138079238Y-131451047D01*
X138030857Y-131499428D01*
X139651619Y-133579809D02*
X140667619Y-133241142D01*
X139651619Y-132902476D01*
X140667619Y-132418666D02*
X140619238Y-132515428D01*
X140522476Y-132563809D01*
X139651619Y-132563809D01*
X140619238Y-131644571D02*
X140667619Y-131741333D01*
X140667619Y-131934857D01*
X140619238Y-132031619D01*
X140522476Y-132080000D01*
X140135428Y-132080000D01*
X140038666Y-132031619D01*
X139990285Y-131934857D01*
X139990285Y-131741333D01*
X140038666Y-131644571D01*
X140135428Y-131596190D01*
X140232190Y-131596190D01*
X140328952Y-132080000D01*
X140667619Y-130725333D02*
X139651619Y-130725333D01*
X140619238Y-130725333D02*
X140667619Y-130822095D01*
X140667619Y-131015619D01*
X140619238Y-131112380D01*
X140570857Y-131160761D01*
X140474095Y-131209142D01*
X140183809Y-131209142D01*
X140087047Y-131160761D01*
X140038666Y-131112380D01*
X139990285Y-131015619D01*
X139990285Y-130822095D01*
X140038666Y-130725333D01*
X142191619Y-133797523D02*
X143207619Y-133458857D01*
X142191619Y-133120190D01*
X142530285Y-132781523D02*
X143546285Y-132781523D01*
X142578666Y-132781523D02*
X142530285Y-132684761D01*
X142530285Y-132491238D01*
X142578666Y-132394476D01*
X142627047Y-132346095D01*
X142723809Y-132297714D01*
X143014095Y-132297714D01*
X143110857Y-132346095D01*
X143159238Y-132394476D01*
X143207619Y-132491238D01*
X143207619Y-132684761D01*
X143159238Y-132781523D01*
X143207619Y-131862285D02*
X142191619Y-131862285D01*
X143207619Y-131426857D02*
X142675428Y-131426857D01*
X142578666Y-131475238D01*
X142530285Y-131572000D01*
X142530285Y-131717142D01*
X142578666Y-131813904D01*
X142627047Y-131862285D01*
X143207619Y-130797904D02*
X143159238Y-130894666D01*
X143110857Y-130943047D01*
X143014095Y-130991428D01*
X142723809Y-130991428D01*
X142627047Y-130943047D01*
X142578666Y-130894666D01*
X142530285Y-130797904D01*
X142530285Y-130652761D01*
X142578666Y-130556000D01*
X142627047Y-130507619D01*
X142723809Y-130459238D01*
X143014095Y-130459238D01*
X143110857Y-130507619D01*
X143159238Y-130556000D01*
X143207619Y-130652761D01*
X143207619Y-130797904D01*
X144731619Y-133749142D02*
X145747619Y-133410476D01*
X144731619Y-133071809D01*
X145747619Y-132733142D02*
X144731619Y-132733142D01*
X145118666Y-132733142D02*
X145070285Y-132636380D01*
X145070285Y-132442857D01*
X145118666Y-132346095D01*
X145167047Y-132297714D01*
X145263809Y-132249333D01*
X145554095Y-132249333D01*
X145650857Y-132297714D01*
X145699238Y-132346095D01*
X145747619Y-132442857D01*
X145747619Y-132636380D01*
X145699238Y-132733142D01*
X145070285Y-131378476D02*
X145747619Y-131378476D01*
X145070285Y-131813904D02*
X145602476Y-131813904D01*
X145699238Y-131765523D01*
X145747619Y-131668761D01*
X145747619Y-131523619D01*
X145699238Y-131426857D01*
X145650857Y-131378476D01*
X145699238Y-130943047D02*
X145747619Y-130846285D01*
X145747619Y-130652761D01*
X145699238Y-130556000D01*
X145602476Y-130507619D01*
X145554095Y-130507619D01*
X145457333Y-130556000D01*
X145408952Y-130652761D01*
X145408952Y-130797904D01*
X145360571Y-130894666D01*
X145263809Y-130943047D01*
X145215428Y-130943047D01*
X145118666Y-130894666D01*
X145070285Y-130797904D01*
X145070285Y-130652761D01*
X145118666Y-130556000D01*
X147447000Y-132987142D02*
X147398619Y-133083904D01*
X147398619Y-133229047D01*
X147447000Y-133374190D01*
X147543761Y-133470952D01*
X147640523Y-133519333D01*
X147834047Y-133567714D01*
X147979190Y-133567714D01*
X148172714Y-133519333D01*
X148269476Y-133470952D01*
X148366238Y-133374190D01*
X148414619Y-133229047D01*
X148414619Y-133132285D01*
X148366238Y-132987142D01*
X148317857Y-132938761D01*
X147979190Y-132938761D01*
X147979190Y-133132285D01*
X147737285Y-132503333D02*
X148414619Y-132503333D01*
X147834047Y-132503333D02*
X147785666Y-132454952D01*
X147737285Y-132358190D01*
X147737285Y-132213047D01*
X147785666Y-132116285D01*
X147882428Y-132067904D01*
X148414619Y-132067904D01*
X148414619Y-131148666D02*
X147398619Y-131148666D01*
X148366238Y-131148666D02*
X148414619Y-131245428D01*
X148414619Y-131438952D01*
X148366238Y-131535714D01*
X148317857Y-131584095D01*
X148221095Y-131632476D01*
X147930809Y-131632476D01*
X147834047Y-131584095D01*
X147785666Y-131535714D01*
X147737285Y-131438952D01*
X147737285Y-131245428D01*
X147785666Y-131148666D01*
X149987000Y-132987142D02*
X149938619Y-133083904D01*
X149938619Y-133229047D01*
X149987000Y-133374190D01*
X150083761Y-133470952D01*
X150180523Y-133519333D01*
X150374047Y-133567714D01*
X150519190Y-133567714D01*
X150712714Y-133519333D01*
X150809476Y-133470952D01*
X150906238Y-133374190D01*
X150954619Y-133229047D01*
X150954619Y-133132285D01*
X150906238Y-132987142D01*
X150857857Y-132938761D01*
X150519190Y-132938761D01*
X150519190Y-133132285D01*
X150277285Y-132503333D02*
X150954619Y-132503333D01*
X150374047Y-132503333D02*
X150325666Y-132454952D01*
X150277285Y-132358190D01*
X150277285Y-132213047D01*
X150325666Y-132116285D01*
X150422428Y-132067904D01*
X150954619Y-132067904D01*
X150954619Y-131148666D02*
X149938619Y-131148666D01*
X150906238Y-131148666D02*
X150954619Y-131245428D01*
X150954619Y-131438952D01*
X150906238Y-131535714D01*
X150857857Y-131584095D01*
X150761095Y-131632476D01*
X150470809Y-131632476D01*
X150374047Y-131584095D01*
X150325666Y-131535714D01*
X150277285Y-131438952D01*
X150277285Y-131245428D01*
X150325666Y-131148666D01*
D12*
X136465000Y-130362000D02*
X136465000Y-129032000D01*
X137795000Y-130362000D02*
X136465000Y-130362000D01*
X139065000Y-130362000D02*
X139065000Y-127702000D01*
X139065000Y-127702000D02*
X151825000Y-127702000D01*
X139065000Y-130362000D02*
X151825000Y-130362000D01*
X151825000Y-130362000D02*
X151825000Y-127702000D01*
X132155000Y-106941252D02*
X132155000Y-106418748D01*
X130735000Y-106941252D02*
X130735000Y-106418748D01*
X113548000Y-122851000D02*
X113548000Y-106876000D01*
X108448000Y-122851000D02*
X113548000Y-122851000D01*
X108448000Y-106876000D02*
X108448000Y-122851000D01*
X119985000Y-110140000D02*
X118645000Y-110140000D01*
X119985000Y-109190000D02*
X119985000Y-110140000D01*
X120935000Y-109190000D02*
X119985000Y-109190000D01*
X130205000Y-109190000D02*
X130205000Y-110140000D01*
X129255000Y-109190000D02*
X130205000Y-109190000D01*
X119985000Y-119410000D02*
X119985000Y-118460000D01*
X120935000Y-119410000D02*
X119985000Y-119410000D01*
X130205000Y-119410000D02*
X130205000Y-118460000D01*
X129255000Y-119410000D02*
X130205000Y-119410000D01*
X143165000Y-113265000D02*
X137155000Y-113265000D01*
X140915000Y-106445000D02*
X137155000Y-106445000D01*
X137155000Y-113265000D02*
X137155000Y-112005000D01*
X137155000Y-106445000D02*
X137155000Y-107705000D01*
X125065000Y-95275000D02*
X127665000Y-95275000D01*
X129815000Y-101575000D02*
X129565000Y-101575000D01*
X129815000Y-95275000D02*
X129815000Y-101575000D01*
X129565000Y-95275000D02*
X129815000Y-95275000D01*
X127665000Y-101575000D02*
X125065000Y-101575000D01*
X122915000Y-95275000D02*
X123165000Y-95275000D01*
X122915000Y-101575000D02*
X122915000Y-95275000D01*
X123165000Y-101575000D02*
X122915000Y-101575000D01*
X116810000Y-95275000D02*
X119410000Y-95275000D01*
X121560000Y-101575000D02*
X121310000Y-101575000D01*
X121560000Y-95275000D02*
X121560000Y-101575000D01*
X121310000Y-95275000D02*
X121560000Y-95275000D01*
X119410000Y-101575000D02*
X116810000Y-101575000D01*
X114660000Y-95275000D02*
X114910000Y-95275000D01*
X114660000Y-101575000D02*
X114660000Y-95275000D01*
X114910000Y-101575000D02*
X114660000Y-101575000D01*
X127075000Y-127261252D02*
X127075000Y-126738748D01*
X125655000Y-127261252D02*
X125655000Y-126738748D01*
X114352000Y-120388748D02*
X114352000Y-120911252D01*
X115772000Y-120388748D02*
X115772000Y-120911252D01*
X114352000Y-115943748D02*
X114352000Y-116466252D01*
X115772000Y-115943748D02*
X115772000Y-116466252D01*
X144855000Y-122181252D02*
X144855000Y-121658748D01*
X143435000Y-122181252D02*
X143435000Y-121658748D01*
X141680000Y-122181252D02*
X141680000Y-121658748D01*
X140260000Y-122181252D02*
X140260000Y-121658748D01*
X138505000Y-122181252D02*
X138505000Y-121658748D01*
X137085000Y-122181252D02*
X137085000Y-121658748D01*
X135330000Y-122181252D02*
X135330000Y-121658748D01*
X133910000Y-122181252D02*
X133910000Y-121658748D01*
X121546252Y-104065000D02*
X121023748Y-104065000D01*
X121546252Y-105485000D02*
X121023748Y-105485000D01*
X141680000Y-103131252D02*
X141680000Y-102608748D01*
X140260000Y-103131252D02*
X140260000Y-102608748D01*
X137421252Y-104065000D02*
X136898748Y-104065000D01*
X137421252Y-105485000D02*
X136898748Y-105485000D01*
X122555000Y-127445000D02*
X122555000Y-127445000D01*
X122555000Y-127575000D02*
X122555000Y-127445000D01*
X122555000Y-127575000D02*
X122555000Y-127575000D01*
X122555000Y-127445000D02*
X122555000Y-127575000D01*
X120015000Y-127445000D02*
X120015000Y-127445000D01*
X120015000Y-127575000D02*
X120015000Y-127445000D01*
X120015000Y-127575000D02*
X120015000Y-127575000D01*
X120015000Y-127445000D02*
X120015000Y-127575000D01*
X123845000Y-127575000D02*
X124245000Y-127575000D01*
X123845000Y-128695000D02*
X123845000Y-127575000D01*
X124245000Y-128695000D02*
X123845000Y-128695000D01*
X124245000Y-127575000D02*
X124245000Y-128695000D01*
X118725000Y-127575000D02*
X123845000Y-127575000D01*
X123845000Y-127575000D02*
X123845000Y-133735000D01*
X118725000Y-127575000D02*
X118725000Y-133735000D01*
X123845000Y-133735000D02*
G75*
G02X118725000Y-133735000I-2560000J0D01*
G01*
X137590000Y-98197500D02*
X137590000Y-97747500D01*
X137590000Y-98197500D02*
X137140000Y-98197500D01*
X131990000Y-97647500D02*
X132440000Y-97647500D01*
X131990000Y-95797500D02*
X131990000Y-97647500D01*
X139790000Y-93247500D02*
X139790000Y-93497500D01*
X131990000Y-93247500D02*
X131990000Y-93497500D01*
X139790000Y-95797500D02*
X139790000Y-97647500D01*
X139790000Y-97647500D02*
X139340000Y-97647500D01*
X134640000Y-133735000D02*
G75*
G02X129520000Y-133735000I-2560000J0D01*
G01*
X133350000Y-127445000D02*
X133350000Y-127445000D01*
X133350000Y-127575000D02*
X133350000Y-127445000D01*
X133350000Y-127575000D02*
X133350000Y-127575000D01*
X133350000Y-127445000D02*
X133350000Y-127575000D01*
X130810000Y-127445000D02*
X130810000Y-127445000D01*
X130810000Y-127575000D02*
X130810000Y-127445000D01*
X130810000Y-127575000D02*
X130810000Y-127575000D01*
X130810000Y-127445000D02*
X130810000Y-127575000D01*
X134640000Y-127575000D02*
X135040000Y-127575000D01*
X134640000Y-128695000D02*
X134640000Y-127575000D01*
X135040000Y-128695000D02*
X134640000Y-128695000D01*
X135040000Y-127575000D02*
X135040000Y-128695000D01*
X129520000Y-127575000D02*
X134640000Y-127575000D01*
X134640000Y-127575000D02*
X134640000Y-133735000D01*
X129520000Y-127575000D02*
X129520000Y-133735000D01*
X139202500Y-101100000D02*
X135142500Y-101100000D01*
X139202500Y-103370000D02*
X139202500Y-101100000D01*
X135142500Y-103370000D02*
X139202500Y-103370000D01*
X126103748Y-105485000D02*
X126626252Y-105485000D01*
X126103748Y-104065000D02*
X126626252Y-104065000D01*
X118820000Y-107576252D02*
X118820000Y-107053748D01*
X117400000Y-107576252D02*
X117400000Y-107053748D01*
X132790000Y-121301252D02*
X132790000Y-120778748D01*
X131370000Y-121301252D02*
X131370000Y-120778748D01*
X122181252Y-123242000D02*
X121658748Y-123242000D01*
X122181252Y-124662000D02*
X121658748Y-124662000D01*
X136557936Y-115845000D02*
X137762064Y-115845000D01*
X136557936Y-114025000D02*
X137762064Y-114025000D01*
X107390000Y-115831252D02*
X107390000Y-115308748D01*
X105970000Y-115831252D02*
X105970000Y-115308748D01*
X144420000Y-104107064D02*
X144420000Y-102902936D01*
X142600000Y-104107064D02*
X142600000Y-102902936D01*
X128008748Y-124662000D02*
X128531252Y-124662000D01*
X128008748Y-123242000D02*
X128531252Y-123242000D01*
X156149646Y-125295000D02*
X156149646Y-124295000D01*
X156649646Y-124795000D02*
X155649646Y-124795000D01*
X146089000Y-122519000D02*
X146089000Y-121321000D01*
X146129000Y-122782000D02*
X146129000Y-121058000D01*
X146169000Y-122982000D02*
X146169000Y-120858000D01*
X146209000Y-123150000D02*
X146209000Y-120690000D01*
X146249000Y-123298000D02*
X146249000Y-120542000D01*
X146289000Y-123430000D02*
X146289000Y-120410000D01*
X146329000Y-123550000D02*
X146329000Y-120290000D01*
X146369000Y-123662000D02*
X146369000Y-120178000D01*
X146409000Y-123766000D02*
X146409000Y-120074000D01*
X146449000Y-123864000D02*
X146449000Y-119976000D01*
X146489000Y-123957000D02*
X146489000Y-119883000D01*
X146529000Y-124045000D02*
X146529000Y-119795000D01*
X146569000Y-124129000D02*
X146569000Y-119711000D01*
X146609000Y-124209000D02*
X146609000Y-119631000D01*
X146649000Y-124285000D02*
X146649000Y-119555000D01*
X146689000Y-124359000D02*
X146689000Y-119481000D01*
X146729000Y-124430000D02*
X146729000Y-119410000D01*
X146769000Y-124499000D02*
X146769000Y-119341000D01*
X146809000Y-124565000D02*
X146809000Y-119275000D01*
X146849000Y-124629000D02*
X146849000Y-119211000D01*
X146889000Y-124690000D02*
X146889000Y-119150000D01*
X146929000Y-124750000D02*
X146929000Y-119090000D01*
X146969000Y-124809000D02*
X146969000Y-119031000D01*
X147009000Y-124865000D02*
X147009000Y-118975000D01*
X147049000Y-124920000D02*
X147049000Y-118920000D01*
X147089000Y-124974000D02*
X147089000Y-118866000D01*
X147129000Y-125026000D02*
X147129000Y-118814000D01*
X147169000Y-125076000D02*
X147169000Y-118764000D01*
X147209000Y-125126000D02*
X147209000Y-118714000D01*
X147249000Y-125174000D02*
X147249000Y-118666000D01*
X147289000Y-125221000D02*
X147289000Y-118619000D01*
X147329000Y-125267000D02*
X147329000Y-118573000D01*
X147369000Y-125312000D02*
X147369000Y-118528000D01*
X147409000Y-125356000D02*
X147409000Y-118484000D01*
X147449000Y-120679000D02*
X147449000Y-118442000D01*
X147449000Y-125398000D02*
X147449000Y-123161000D01*
X147489000Y-120679000D02*
X147489000Y-118400000D01*
X147489000Y-125440000D02*
X147489000Y-123161000D01*
X147529000Y-120679000D02*
X147529000Y-118359000D01*
X147529000Y-125481000D02*
X147529000Y-123161000D01*
X147569000Y-120679000D02*
X147569000Y-118319000D01*
X147569000Y-125521000D02*
X147569000Y-123161000D01*
X147609000Y-120679000D02*
X147609000Y-118280000D01*
X147609000Y-125560000D02*
X147609000Y-123161000D01*
X147649000Y-120679000D02*
X147649000Y-118241000D01*
X147649000Y-125599000D02*
X147649000Y-123161000D01*
X147689000Y-120679000D02*
X147689000Y-118204000D01*
X147689000Y-125636000D02*
X147689000Y-123161000D01*
X147729000Y-120679000D02*
X147729000Y-118167000D01*
X147729000Y-125673000D02*
X147729000Y-123161000D01*
X147769000Y-120679000D02*
X147769000Y-118131000D01*
X147769000Y-125709000D02*
X147769000Y-123161000D01*
X147809000Y-120679000D02*
X147809000Y-118096000D01*
X147809000Y-125744000D02*
X147809000Y-123161000D01*
X147849000Y-120679000D02*
X147849000Y-118062000D01*
X147849000Y-125778000D02*
X147849000Y-123161000D01*
X147889000Y-120679000D02*
X147889000Y-118028000D01*
X147889000Y-125812000D02*
X147889000Y-123161000D01*
X147929000Y-120679000D02*
X147929000Y-117995000D01*
X147929000Y-125845000D02*
X147929000Y-123161000D01*
X147969000Y-120679000D02*
X147969000Y-117963000D01*
X147969000Y-125877000D02*
X147969000Y-123161000D01*
X148009000Y-120679000D02*
X148009000Y-117931000D01*
X148009000Y-125909000D02*
X148009000Y-123161000D01*
X148049000Y-120679000D02*
X148049000Y-117900000D01*
X148049000Y-125940000D02*
X148049000Y-123161000D01*
X148089000Y-120679000D02*
X148089000Y-117870000D01*
X148089000Y-125970000D02*
X148089000Y-123161000D01*
X148129000Y-120679000D02*
X148129000Y-117840000D01*
X148129000Y-126000000D02*
X148129000Y-123161000D01*
X148169000Y-120679000D02*
X148169000Y-117810000D01*
X148169000Y-126030000D02*
X148169000Y-123161000D01*
X148209000Y-120679000D02*
X148209000Y-117782000D01*
X148209000Y-126058000D02*
X148209000Y-123161000D01*
X148249000Y-120679000D02*
X148249000Y-117754000D01*
X148249000Y-126086000D02*
X148249000Y-123161000D01*
X148289000Y-120679000D02*
X148289000Y-117726000D01*
X148289000Y-126114000D02*
X148289000Y-123161000D01*
X148329000Y-120679000D02*
X148329000Y-117699000D01*
X148329000Y-126141000D02*
X148329000Y-123161000D01*
X148369000Y-120679000D02*
X148369000Y-117673000D01*
X148369000Y-126167000D02*
X148369000Y-123161000D01*
X148409000Y-120679000D02*
X148409000Y-117647000D01*
X148409000Y-126193000D02*
X148409000Y-123161000D01*
X148449000Y-120679000D02*
X148449000Y-117622000D01*
X148449000Y-126218000D02*
X148449000Y-123161000D01*
X148489000Y-120679000D02*
X148489000Y-117597000D01*
X148489000Y-126243000D02*
X148489000Y-123161000D01*
X148529000Y-120679000D02*
X148529000Y-117573000D01*
X148529000Y-126267000D02*
X148529000Y-123161000D01*
X148569000Y-120679000D02*
X148569000Y-117549000D01*
X148569000Y-126291000D02*
X148569000Y-123161000D01*
X148609000Y-120679000D02*
X148609000Y-117525000D01*
X148609000Y-126315000D02*
X148609000Y-123161000D01*
X148649000Y-120679000D02*
X148649000Y-117503000D01*
X148649000Y-126337000D02*
X148649000Y-123161000D01*
X148689000Y-120679000D02*
X148689000Y-117480000D01*
X148689000Y-126360000D02*
X148689000Y-123161000D01*
X148729000Y-120679000D02*
X148729000Y-117458000D01*
X148729000Y-126382000D02*
X148729000Y-123161000D01*
X148769000Y-120679000D02*
X148769000Y-117437000D01*
X148769000Y-126403000D02*
X148769000Y-123161000D01*
X148809000Y-120679000D02*
X148809000Y-117416000D01*
X148809000Y-126424000D02*
X148809000Y-123161000D01*
X148849000Y-120679000D02*
X148849000Y-117395000D01*
X148849000Y-126445000D02*
X148849000Y-123161000D01*
X148889000Y-120679000D02*
X148889000Y-117375000D01*
X148889000Y-126465000D02*
X148889000Y-123161000D01*
X148929000Y-120679000D02*
X148929000Y-117356000D01*
X148929000Y-126484000D02*
X148929000Y-123161000D01*
X148969000Y-120679000D02*
X148969000Y-117336000D01*
X148969000Y-126504000D02*
X148969000Y-123161000D01*
X149009000Y-120679000D02*
X149009000Y-117317000D01*
X149009000Y-126523000D02*
X149009000Y-123161000D01*
X149049000Y-120679000D02*
X149049000Y-117299000D01*
X149049000Y-126541000D02*
X149049000Y-123161000D01*
X149089000Y-120679000D02*
X149089000Y-117281000D01*
X149089000Y-126559000D02*
X149089000Y-123161000D01*
X149129000Y-120679000D02*
X149129000Y-117263000D01*
X149129000Y-126577000D02*
X149129000Y-123161000D01*
X149169000Y-120679000D02*
X149169000Y-117246000D01*
X149169000Y-126594000D02*
X149169000Y-123161000D01*
X149209000Y-120679000D02*
X149209000Y-117230000D01*
X149209000Y-126610000D02*
X149209000Y-123161000D01*
X149249000Y-120679000D02*
X149249000Y-117213000D01*
X149249000Y-126627000D02*
X149249000Y-123161000D01*
X149289000Y-120679000D02*
X149289000Y-117197000D01*
X149289000Y-126643000D02*
X149289000Y-123161000D01*
X149329000Y-120679000D02*
X149329000Y-117182000D01*
X149329000Y-126658000D02*
X149329000Y-123161000D01*
X149369000Y-120679000D02*
X149369000Y-117166000D01*
X149369000Y-126674000D02*
X149369000Y-123161000D01*
X149409000Y-120679000D02*
X149409000Y-117152000D01*
X149409000Y-126688000D02*
X149409000Y-123161000D01*
X149449000Y-120679000D02*
X149449000Y-117137000D01*
X149449000Y-126703000D02*
X149449000Y-123161000D01*
X149489000Y-120679000D02*
X149489000Y-117123000D01*
X149489000Y-126717000D02*
X149489000Y-123161000D01*
X149529000Y-120679000D02*
X149529000Y-117109000D01*
X149529000Y-126731000D02*
X149529000Y-123161000D01*
X149569000Y-120679000D02*
X149569000Y-117096000D01*
X149569000Y-126744000D02*
X149569000Y-123161000D01*
X149609000Y-120679000D02*
X149609000Y-117083000D01*
X149609000Y-126757000D02*
X149609000Y-123161000D01*
X149649000Y-120679000D02*
X149649000Y-117070000D01*
X149649000Y-126770000D02*
X149649000Y-123161000D01*
X149689000Y-120679000D02*
X149689000Y-117058000D01*
X149689000Y-126782000D02*
X149689000Y-123161000D01*
X149729000Y-120679000D02*
X149729000Y-117046000D01*
X149729000Y-126794000D02*
X149729000Y-123161000D01*
X149769000Y-120679000D02*
X149769000Y-117035000D01*
X149769000Y-126805000D02*
X149769000Y-123161000D01*
X149809000Y-120679000D02*
X149809000Y-117023000D01*
X149809000Y-126817000D02*
X149809000Y-123161000D01*
X149849000Y-120679000D02*
X149849000Y-117013000D01*
X149849000Y-126827000D02*
X149849000Y-123161000D01*
X149889000Y-120679000D02*
X149889000Y-117002000D01*
X149889000Y-126838000D02*
X149889000Y-123161000D01*
X149929000Y-126848000D02*
X149929000Y-116992000D01*
X149969000Y-126858000D02*
X149969000Y-116982000D01*
X150009000Y-126867000D02*
X150009000Y-116973000D01*
X150049000Y-126876000D02*
X150049000Y-116964000D01*
X150089000Y-126885000D02*
X150089000Y-116955000D01*
X150129000Y-126894000D02*
X150129000Y-116946000D01*
X150169000Y-126902000D02*
X150169000Y-116938000D01*
X150209000Y-126910000D02*
X150209000Y-116930000D01*
X150249000Y-126917000D02*
X150249000Y-116923000D01*
X150289000Y-126924000D02*
X150289000Y-116916000D01*
X150329000Y-126931000D02*
X150329000Y-116909000D01*
X150369000Y-126938000D02*
X150369000Y-116902000D01*
X150409000Y-126944000D02*
X150409000Y-116896000D01*
X150449000Y-126950000D02*
X150449000Y-116890000D01*
X150490000Y-126955000D02*
X150490000Y-116885000D01*
X150530000Y-126960000D02*
X150530000Y-116880000D01*
X150570000Y-126965000D02*
X150570000Y-116875000D01*
X150610000Y-126970000D02*
X150610000Y-116870000D01*
X150650000Y-126974000D02*
X150650000Y-116866000D01*
X150690000Y-126978000D02*
X150690000Y-116862000D01*
X150730000Y-126982000D02*
X150730000Y-116858000D01*
X150770000Y-126985000D02*
X150770000Y-116855000D01*
X150810000Y-126988000D02*
X150810000Y-116852000D01*
X150850000Y-126990000D02*
X150850000Y-116850000D01*
X150890000Y-126993000D02*
X150890000Y-116847000D01*
X150930000Y-126995000D02*
X150930000Y-116845000D01*
X150970000Y-126997000D02*
X150970000Y-116843000D01*
X151010000Y-126998000D02*
X151010000Y-116842000D01*
X151050000Y-126999000D02*
X151050000Y-116841000D01*
X151090000Y-127000000D02*
X151090000Y-116840000D01*
X151130000Y-127000000D02*
X151130000Y-116840000D01*
X151170000Y-127000000D02*
X151170000Y-116840000D01*
X156290000Y-121920000D02*
G75*
G03X156290000Y-121920000I-5120000J0D01*
G01*
X105970000Y-109974748D02*
X105970000Y-110497252D01*
X107390000Y-109974748D02*
X107390000Y-110497252D01*
X156149646Y-114500000D02*
X156149646Y-113500000D01*
X156649646Y-114000000D02*
X155649646Y-114000000D01*
X146089000Y-111724000D02*
X146089000Y-110526000D01*
X146129000Y-111987000D02*
X146129000Y-110263000D01*
X146169000Y-112187000D02*
X146169000Y-110063000D01*
X146209000Y-112355000D02*
X146209000Y-109895000D01*
X146249000Y-112503000D02*
X146249000Y-109747000D01*
X146289000Y-112635000D02*
X146289000Y-109615000D01*
X146329000Y-112755000D02*
X146329000Y-109495000D01*
X146369000Y-112867000D02*
X146369000Y-109383000D01*
X146409000Y-112971000D02*
X146409000Y-109279000D01*
X146449000Y-113069000D02*
X146449000Y-109181000D01*
X146489000Y-113162000D02*
X146489000Y-109088000D01*
X146529000Y-113250000D02*
X146529000Y-109000000D01*
X146569000Y-113334000D02*
X146569000Y-108916000D01*
X146609000Y-113414000D02*
X146609000Y-108836000D01*
X146649000Y-113490000D02*
X146649000Y-108760000D01*
X146689000Y-113564000D02*
X146689000Y-108686000D01*
X146729000Y-113635000D02*
X146729000Y-108615000D01*
X146769000Y-113704000D02*
X146769000Y-108546000D01*
X146809000Y-113770000D02*
X146809000Y-108480000D01*
X146849000Y-113834000D02*
X146849000Y-108416000D01*
X146889000Y-113895000D02*
X146889000Y-108355000D01*
X146929000Y-113955000D02*
X146929000Y-108295000D01*
X146969000Y-114014000D02*
X146969000Y-108236000D01*
X147009000Y-114070000D02*
X147009000Y-108180000D01*
X147049000Y-114125000D02*
X147049000Y-108125000D01*
X147089000Y-114179000D02*
X147089000Y-108071000D01*
X147129000Y-114231000D02*
X147129000Y-108019000D01*
X147169000Y-114281000D02*
X147169000Y-107969000D01*
X147209000Y-114331000D02*
X147209000Y-107919000D01*
X147249000Y-114379000D02*
X147249000Y-107871000D01*
X147289000Y-114426000D02*
X147289000Y-107824000D01*
X147329000Y-114472000D02*
X147329000Y-107778000D01*
X147369000Y-114517000D02*
X147369000Y-107733000D01*
X147409000Y-114561000D02*
X147409000Y-107689000D01*
X147449000Y-109884000D02*
X147449000Y-107647000D01*
X147449000Y-114603000D02*
X147449000Y-112366000D01*
X147489000Y-109884000D02*
X147489000Y-107605000D01*
X147489000Y-114645000D02*
X147489000Y-112366000D01*
X147529000Y-109884000D02*
X147529000Y-107564000D01*
X147529000Y-114686000D02*
X147529000Y-112366000D01*
X147569000Y-109884000D02*
X147569000Y-107524000D01*
X147569000Y-114726000D02*
X147569000Y-112366000D01*
X147609000Y-109884000D02*
X147609000Y-107485000D01*
X147609000Y-114765000D02*
X147609000Y-112366000D01*
X147649000Y-109884000D02*
X147649000Y-107446000D01*
X147649000Y-114804000D02*
X147649000Y-112366000D01*
X147689000Y-109884000D02*
X147689000Y-107409000D01*
X147689000Y-114841000D02*
X147689000Y-112366000D01*
X147729000Y-109884000D02*
X147729000Y-107372000D01*
X147729000Y-114878000D02*
X147729000Y-112366000D01*
X147769000Y-109884000D02*
X147769000Y-107336000D01*
X147769000Y-114914000D02*
X147769000Y-112366000D01*
X147809000Y-109884000D02*
X147809000Y-107301000D01*
X147809000Y-114949000D02*
X147809000Y-112366000D01*
X147849000Y-109884000D02*
X147849000Y-107267000D01*
X147849000Y-114983000D02*
X147849000Y-112366000D01*
X147889000Y-109884000D02*
X147889000Y-107233000D01*
X147889000Y-115017000D02*
X147889000Y-112366000D01*
X147929000Y-109884000D02*
X147929000Y-107200000D01*
X147929000Y-115050000D02*
X147929000Y-112366000D01*
X147969000Y-109884000D02*
X147969000Y-107168000D01*
X147969000Y-115082000D02*
X147969000Y-112366000D01*
X148009000Y-109884000D02*
X148009000Y-107136000D01*
X148009000Y-115114000D02*
X148009000Y-112366000D01*
X148049000Y-109884000D02*
X148049000Y-107105000D01*
X148049000Y-115145000D02*
X148049000Y-112366000D01*
X148089000Y-109884000D02*
X148089000Y-107075000D01*
X148089000Y-115175000D02*
X148089000Y-112366000D01*
X148129000Y-109884000D02*
X148129000Y-107045000D01*
X148129000Y-115205000D02*
X148129000Y-112366000D01*
X148169000Y-109884000D02*
X148169000Y-107015000D01*
X148169000Y-115235000D02*
X148169000Y-112366000D01*
X148209000Y-109884000D02*
X148209000Y-106987000D01*
X148209000Y-115263000D02*
X148209000Y-112366000D01*
X148249000Y-109884000D02*
X148249000Y-106959000D01*
X148249000Y-115291000D02*
X148249000Y-112366000D01*
X148289000Y-109884000D02*
X148289000Y-106931000D01*
X148289000Y-115319000D02*
X148289000Y-112366000D01*
X148329000Y-109884000D02*
X148329000Y-106904000D01*
X148329000Y-115346000D02*
X148329000Y-112366000D01*
X148369000Y-109884000D02*
X148369000Y-106878000D01*
X148369000Y-115372000D02*
X148369000Y-112366000D01*
X148409000Y-109884000D02*
X148409000Y-106852000D01*
X148409000Y-115398000D02*
X148409000Y-112366000D01*
X148449000Y-109884000D02*
X148449000Y-106827000D01*
X148449000Y-115423000D02*
X148449000Y-112366000D01*
X148489000Y-109884000D02*
X148489000Y-106802000D01*
X148489000Y-115448000D02*
X148489000Y-112366000D01*
X148529000Y-109884000D02*
X148529000Y-106778000D01*
X148529000Y-115472000D02*
X148529000Y-112366000D01*
X148569000Y-109884000D02*
X148569000Y-106754000D01*
X148569000Y-115496000D02*
X148569000Y-112366000D01*
X148609000Y-109884000D02*
X148609000Y-106730000D01*
X148609000Y-115520000D02*
X148609000Y-112366000D01*
X148649000Y-109884000D02*
X148649000Y-106708000D01*
X148649000Y-115542000D02*
X148649000Y-112366000D01*
X148689000Y-109884000D02*
X148689000Y-106685000D01*
X148689000Y-115565000D02*
X148689000Y-112366000D01*
X148729000Y-109884000D02*
X148729000Y-106663000D01*
X148729000Y-115587000D02*
X148729000Y-112366000D01*
X148769000Y-109884000D02*
X148769000Y-106642000D01*
X148769000Y-115608000D02*
X148769000Y-112366000D01*
X148809000Y-109884000D02*
X148809000Y-106621000D01*
X148809000Y-115629000D02*
X148809000Y-112366000D01*
X148849000Y-109884000D02*
X148849000Y-106600000D01*
X148849000Y-115650000D02*
X148849000Y-112366000D01*
X148889000Y-109884000D02*
X148889000Y-106580000D01*
X148889000Y-115670000D02*
X148889000Y-112366000D01*
X148929000Y-109884000D02*
X148929000Y-106561000D01*
X148929000Y-115689000D02*
X148929000Y-112366000D01*
X148969000Y-109884000D02*
X148969000Y-106541000D01*
X148969000Y-115709000D02*
X148969000Y-112366000D01*
X149009000Y-109884000D02*
X149009000Y-106522000D01*
X149009000Y-115728000D02*
X149009000Y-112366000D01*
X149049000Y-109884000D02*
X149049000Y-106504000D01*
X149049000Y-115746000D02*
X149049000Y-112366000D01*
X149089000Y-109884000D02*
X149089000Y-106486000D01*
X149089000Y-115764000D02*
X149089000Y-112366000D01*
X149129000Y-109884000D02*
X149129000Y-106468000D01*
X149129000Y-115782000D02*
X149129000Y-112366000D01*
X149169000Y-109884000D02*
X149169000Y-106451000D01*
X149169000Y-115799000D02*
X149169000Y-112366000D01*
X149209000Y-109884000D02*
X149209000Y-106435000D01*
X149209000Y-115815000D02*
X149209000Y-112366000D01*
X149249000Y-109884000D02*
X149249000Y-106418000D01*
X149249000Y-115832000D02*
X149249000Y-112366000D01*
X149289000Y-109884000D02*
X149289000Y-106402000D01*
X149289000Y-115848000D02*
X149289000Y-112366000D01*
X149329000Y-109884000D02*
X149329000Y-106387000D01*
X149329000Y-115863000D02*
X149329000Y-112366000D01*
X149369000Y-109884000D02*
X149369000Y-106371000D01*
X149369000Y-115879000D02*
X149369000Y-112366000D01*
X149409000Y-109884000D02*
X149409000Y-106357000D01*
X149409000Y-115893000D02*
X149409000Y-112366000D01*
X149449000Y-109884000D02*
X149449000Y-106342000D01*
X149449000Y-115908000D02*
X149449000Y-112366000D01*
X149489000Y-109884000D02*
X149489000Y-106328000D01*
X149489000Y-115922000D02*
X149489000Y-112366000D01*
X149529000Y-109884000D02*
X149529000Y-106314000D01*
X149529000Y-115936000D02*
X149529000Y-112366000D01*
X149569000Y-109884000D02*
X149569000Y-106301000D01*
X149569000Y-115949000D02*
X149569000Y-112366000D01*
X149609000Y-109884000D02*
X149609000Y-106288000D01*
X149609000Y-115962000D02*
X149609000Y-112366000D01*
X149649000Y-109884000D02*
X149649000Y-106275000D01*
X149649000Y-115975000D02*
X149649000Y-112366000D01*
X149689000Y-109884000D02*
X149689000Y-106263000D01*
X149689000Y-115987000D02*
X149689000Y-112366000D01*
X149729000Y-109884000D02*
X149729000Y-106251000D01*
X149729000Y-115999000D02*
X149729000Y-112366000D01*
X149769000Y-109884000D02*
X149769000Y-106240000D01*
X149769000Y-116010000D02*
X149769000Y-112366000D01*
X149809000Y-109884000D02*
X149809000Y-106228000D01*
X149809000Y-116022000D02*
X149809000Y-112366000D01*
X149849000Y-109884000D02*
X149849000Y-106218000D01*
X149849000Y-116032000D02*
X149849000Y-112366000D01*
X149889000Y-109884000D02*
X149889000Y-106207000D01*
X149889000Y-116043000D02*
X149889000Y-112366000D01*
X149929000Y-116053000D02*
X149929000Y-106197000D01*
X149969000Y-116063000D02*
X149969000Y-106187000D01*
X150009000Y-116072000D02*
X150009000Y-106178000D01*
X150049000Y-116081000D02*
X150049000Y-106169000D01*
X150089000Y-116090000D02*
X150089000Y-106160000D01*
X150129000Y-116099000D02*
X150129000Y-106151000D01*
X150169000Y-116107000D02*
X150169000Y-106143000D01*
X150209000Y-116115000D02*
X150209000Y-106135000D01*
X150249000Y-116122000D02*
X150249000Y-106128000D01*
X150289000Y-116129000D02*
X150289000Y-106121000D01*
X150329000Y-116136000D02*
X150329000Y-106114000D01*
X150369000Y-116143000D02*
X150369000Y-106107000D01*
X150409000Y-116149000D02*
X150409000Y-106101000D01*
X150449000Y-116155000D02*
X150449000Y-106095000D01*
X150490000Y-116160000D02*
X150490000Y-106090000D01*
X150530000Y-116165000D02*
X150530000Y-106085000D01*
X150570000Y-116170000D02*
X150570000Y-106080000D01*
X150610000Y-116175000D02*
X150610000Y-106075000D01*
X150650000Y-116179000D02*
X150650000Y-106071000D01*
X150690000Y-116183000D02*
X150690000Y-106067000D01*
X150730000Y-116187000D02*
X150730000Y-106063000D01*
X150770000Y-116190000D02*
X150770000Y-106060000D01*
X150810000Y-116193000D02*
X150810000Y-106057000D01*
X150850000Y-116195000D02*
X150850000Y-106055000D01*
X150890000Y-116198000D02*
X150890000Y-106052000D01*
X150930000Y-116200000D02*
X150930000Y-106050000D01*
X150970000Y-116202000D02*
X150970000Y-106048000D01*
X151010000Y-116203000D02*
X151010000Y-106047000D01*
X151050000Y-116204000D02*
X151050000Y-106046000D01*
X151090000Y-116205000D02*
X151090000Y-106045000D01*
X151130000Y-116205000D02*
X151130000Y-106045000D01*
X151170000Y-116205000D02*
X151170000Y-106045000D01*
X156290000Y-111125000D02*
G75*
G03X156290000Y-111125000I-5120000J0D01*
G01*
X156149646Y-103070000D02*
X156149646Y-102070000D01*
X156649646Y-102570000D02*
X155649646Y-102570000D01*
X146089000Y-100294000D02*
X146089000Y-99096000D01*
X146129000Y-100557000D02*
X146129000Y-98833000D01*
X146169000Y-100757000D02*
X146169000Y-98633000D01*
X146209000Y-100925000D02*
X146209000Y-98465000D01*
X146249000Y-101073000D02*
X146249000Y-98317000D01*
X146289000Y-101205000D02*
X146289000Y-98185000D01*
X146329000Y-101325000D02*
X146329000Y-98065000D01*
X146369000Y-101437000D02*
X146369000Y-97953000D01*
X146409000Y-101541000D02*
X146409000Y-97849000D01*
X146449000Y-101639000D02*
X146449000Y-97751000D01*
X146489000Y-101732000D02*
X146489000Y-97658000D01*
X146529000Y-101820000D02*
X146529000Y-97570000D01*
X146569000Y-101904000D02*
X146569000Y-97486000D01*
X146609000Y-101984000D02*
X146609000Y-97406000D01*
X146649000Y-102060000D02*
X146649000Y-97330000D01*
X146689000Y-102134000D02*
X146689000Y-97256000D01*
X146729000Y-102205000D02*
X146729000Y-97185000D01*
X146769000Y-102274000D02*
X146769000Y-97116000D01*
X146809000Y-102340000D02*
X146809000Y-97050000D01*
X146849000Y-102404000D02*
X146849000Y-96986000D01*
X146889000Y-102465000D02*
X146889000Y-96925000D01*
X146929000Y-102525000D02*
X146929000Y-96865000D01*
X146969000Y-102584000D02*
X146969000Y-96806000D01*
X147009000Y-102640000D02*
X147009000Y-96750000D01*
X147049000Y-102695000D02*
X147049000Y-96695000D01*
X147089000Y-102749000D02*
X147089000Y-96641000D01*
X147129000Y-102801000D02*
X147129000Y-96589000D01*
X147169000Y-102851000D02*
X147169000Y-96539000D01*
X147209000Y-102901000D02*
X147209000Y-96489000D01*
X147249000Y-102949000D02*
X147249000Y-96441000D01*
X147289000Y-102996000D02*
X147289000Y-96394000D01*
X147329000Y-103042000D02*
X147329000Y-96348000D01*
X147369000Y-103087000D02*
X147369000Y-96303000D01*
X147409000Y-103131000D02*
X147409000Y-96259000D01*
X147449000Y-98454000D02*
X147449000Y-96217000D01*
X147449000Y-103173000D02*
X147449000Y-100936000D01*
X147489000Y-98454000D02*
X147489000Y-96175000D01*
X147489000Y-103215000D02*
X147489000Y-100936000D01*
X147529000Y-98454000D02*
X147529000Y-96134000D01*
X147529000Y-103256000D02*
X147529000Y-100936000D01*
X147569000Y-98454000D02*
X147569000Y-96094000D01*
X147569000Y-103296000D02*
X147569000Y-100936000D01*
X147609000Y-98454000D02*
X147609000Y-96055000D01*
X147609000Y-103335000D02*
X147609000Y-100936000D01*
X147649000Y-98454000D02*
X147649000Y-96016000D01*
X147649000Y-103374000D02*
X147649000Y-100936000D01*
X147689000Y-98454000D02*
X147689000Y-95979000D01*
X147689000Y-103411000D02*
X147689000Y-100936000D01*
X147729000Y-98454000D02*
X147729000Y-95942000D01*
X147729000Y-103448000D02*
X147729000Y-100936000D01*
X147769000Y-98454000D02*
X147769000Y-95906000D01*
X147769000Y-103484000D02*
X147769000Y-100936000D01*
X147809000Y-98454000D02*
X147809000Y-95871000D01*
X147809000Y-103519000D02*
X147809000Y-100936000D01*
X147849000Y-98454000D02*
X147849000Y-95837000D01*
X147849000Y-103553000D02*
X147849000Y-100936000D01*
X147889000Y-98454000D02*
X147889000Y-95803000D01*
X147889000Y-103587000D02*
X147889000Y-100936000D01*
X147929000Y-98454000D02*
X147929000Y-95770000D01*
X147929000Y-103620000D02*
X147929000Y-100936000D01*
X147969000Y-98454000D02*
X147969000Y-95738000D01*
X147969000Y-103652000D02*
X147969000Y-100936000D01*
X148009000Y-98454000D02*
X148009000Y-95706000D01*
X148009000Y-103684000D02*
X148009000Y-100936000D01*
X148049000Y-98454000D02*
X148049000Y-95675000D01*
X148049000Y-103715000D02*
X148049000Y-100936000D01*
X148089000Y-98454000D02*
X148089000Y-95645000D01*
X148089000Y-103745000D02*
X148089000Y-100936000D01*
X148129000Y-98454000D02*
X148129000Y-95615000D01*
X148129000Y-103775000D02*
X148129000Y-100936000D01*
X148169000Y-98454000D02*
X148169000Y-95585000D01*
X148169000Y-103805000D02*
X148169000Y-100936000D01*
X148209000Y-98454000D02*
X148209000Y-95557000D01*
X148209000Y-103833000D02*
X148209000Y-100936000D01*
X148249000Y-98454000D02*
X148249000Y-95529000D01*
X148249000Y-103861000D02*
X148249000Y-100936000D01*
X148289000Y-98454000D02*
X148289000Y-95501000D01*
X148289000Y-103889000D02*
X148289000Y-100936000D01*
X148329000Y-98454000D02*
X148329000Y-95474000D01*
X148329000Y-103916000D02*
X148329000Y-100936000D01*
X148369000Y-98454000D02*
X148369000Y-95448000D01*
X148369000Y-103942000D02*
X148369000Y-100936000D01*
X148409000Y-98454000D02*
X148409000Y-95422000D01*
X148409000Y-103968000D02*
X148409000Y-100936000D01*
X148449000Y-98454000D02*
X148449000Y-95397000D01*
X148449000Y-103993000D02*
X148449000Y-100936000D01*
X148489000Y-98454000D02*
X148489000Y-95372000D01*
X148489000Y-104018000D02*
X148489000Y-100936000D01*
X148529000Y-98454000D02*
X148529000Y-95348000D01*
X148529000Y-104042000D02*
X148529000Y-100936000D01*
X148569000Y-98454000D02*
X148569000Y-95324000D01*
X148569000Y-104066000D02*
X148569000Y-100936000D01*
X148609000Y-98454000D02*
X148609000Y-95300000D01*
X148609000Y-104090000D02*
X148609000Y-100936000D01*
X148649000Y-98454000D02*
X148649000Y-95278000D01*
X148649000Y-104112000D02*
X148649000Y-100936000D01*
X148689000Y-98454000D02*
X148689000Y-95255000D01*
X148689000Y-104135000D02*
X148689000Y-100936000D01*
X148729000Y-98454000D02*
X148729000Y-95233000D01*
X148729000Y-104157000D02*
X148729000Y-100936000D01*
X148769000Y-98454000D02*
X148769000Y-95212000D01*
X148769000Y-104178000D02*
X148769000Y-100936000D01*
X148809000Y-98454000D02*
X148809000Y-95191000D01*
X148809000Y-104199000D02*
X148809000Y-100936000D01*
X148849000Y-98454000D02*
X148849000Y-95170000D01*
X148849000Y-104220000D02*
X148849000Y-100936000D01*
X148889000Y-98454000D02*
X148889000Y-95150000D01*
X148889000Y-104240000D02*
X148889000Y-100936000D01*
X148929000Y-98454000D02*
X148929000Y-95131000D01*
X148929000Y-104259000D02*
X148929000Y-100936000D01*
X148969000Y-98454000D02*
X148969000Y-95111000D01*
X148969000Y-104279000D02*
X148969000Y-100936000D01*
X149009000Y-98454000D02*
X149009000Y-95092000D01*
X149009000Y-104298000D02*
X149009000Y-100936000D01*
X149049000Y-98454000D02*
X149049000Y-95074000D01*
X149049000Y-104316000D02*
X149049000Y-100936000D01*
X149089000Y-98454000D02*
X149089000Y-95056000D01*
X149089000Y-104334000D02*
X149089000Y-100936000D01*
X149129000Y-98454000D02*
X149129000Y-95038000D01*
X149129000Y-104352000D02*
X149129000Y-100936000D01*
X149169000Y-98454000D02*
X149169000Y-95021000D01*
X149169000Y-104369000D02*
X149169000Y-100936000D01*
X149209000Y-98454000D02*
X149209000Y-95005000D01*
X149209000Y-104385000D02*
X149209000Y-100936000D01*
X149249000Y-98454000D02*
X149249000Y-94988000D01*
X149249000Y-104402000D02*
X149249000Y-100936000D01*
X149289000Y-98454000D02*
X149289000Y-94972000D01*
X149289000Y-104418000D02*
X149289000Y-100936000D01*
X149329000Y-98454000D02*
X149329000Y-94957000D01*
X149329000Y-104433000D02*
X149329000Y-100936000D01*
X149369000Y-98454000D02*
X149369000Y-94941000D01*
X149369000Y-104449000D02*
X149369000Y-100936000D01*
X149409000Y-98454000D02*
X149409000Y-94927000D01*
X149409000Y-104463000D02*
X149409000Y-100936000D01*
X149449000Y-98454000D02*
X149449000Y-94912000D01*
X149449000Y-104478000D02*
X149449000Y-100936000D01*
X149489000Y-98454000D02*
X149489000Y-94898000D01*
X149489000Y-104492000D02*
X149489000Y-100936000D01*
X149529000Y-98454000D02*
X149529000Y-94884000D01*
X149529000Y-104506000D02*
X149529000Y-100936000D01*
X149569000Y-98454000D02*
X149569000Y-94871000D01*
X149569000Y-104519000D02*
X149569000Y-100936000D01*
X149609000Y-98454000D02*
X149609000Y-94858000D01*
X149609000Y-104532000D02*
X149609000Y-100936000D01*
X149649000Y-98454000D02*
X149649000Y-94845000D01*
X149649000Y-104545000D02*
X149649000Y-100936000D01*
X149689000Y-98454000D02*
X149689000Y-94833000D01*
X149689000Y-104557000D02*
X149689000Y-100936000D01*
X149729000Y-98454000D02*
X149729000Y-94821000D01*
X149729000Y-104569000D02*
X149729000Y-100936000D01*
X149769000Y-98454000D02*
X149769000Y-94810000D01*
X149769000Y-104580000D02*
X149769000Y-100936000D01*
X149809000Y-98454000D02*
X149809000Y-94798000D01*
X149809000Y-104592000D02*
X149809000Y-100936000D01*
X149849000Y-98454000D02*
X149849000Y-94788000D01*
X149849000Y-104602000D02*
X149849000Y-100936000D01*
X149889000Y-98454000D02*
X149889000Y-94777000D01*
X149889000Y-104613000D02*
X149889000Y-100936000D01*
X149929000Y-104623000D02*
X149929000Y-94767000D01*
X149969000Y-104633000D02*
X149969000Y-94757000D01*
X150009000Y-104642000D02*
X150009000Y-94748000D01*
X150049000Y-104651000D02*
X150049000Y-94739000D01*
X150089000Y-104660000D02*
X150089000Y-94730000D01*
X150129000Y-104669000D02*
X150129000Y-94721000D01*
X150169000Y-104677000D02*
X150169000Y-94713000D01*
X150209000Y-104685000D02*
X150209000Y-94705000D01*
X150249000Y-104692000D02*
X150249000Y-94698000D01*
X150289000Y-104699000D02*
X150289000Y-94691000D01*
X150329000Y-104706000D02*
X150329000Y-94684000D01*
X150369000Y-104713000D02*
X150369000Y-94677000D01*
X150409000Y-104719000D02*
X150409000Y-94671000D01*
X150449000Y-104725000D02*
X150449000Y-94665000D01*
X150490000Y-104730000D02*
X150490000Y-94660000D01*
X150530000Y-104735000D02*
X150530000Y-94655000D01*
X150570000Y-104740000D02*
X150570000Y-94650000D01*
X150610000Y-104745000D02*
X150610000Y-94645000D01*
X150650000Y-104749000D02*
X150650000Y-94641000D01*
X150690000Y-104753000D02*
X150690000Y-94637000D01*
X150730000Y-104757000D02*
X150730000Y-94633000D01*
X150770000Y-104760000D02*
X150770000Y-94630000D01*
X150810000Y-104763000D02*
X150810000Y-94627000D01*
X150850000Y-104765000D02*
X150850000Y-94625000D01*
X150890000Y-104768000D02*
X150890000Y-94622000D01*
X150930000Y-104770000D02*
X150930000Y-94620000D01*
X150970000Y-104772000D02*
X150970000Y-94618000D01*
X151010000Y-104773000D02*
X151010000Y-94617000D01*
X151050000Y-104774000D02*
X151050000Y-94616000D01*
X151090000Y-104775000D02*
X151090000Y-94615000D01*
X151130000Y-104775000D02*
X151130000Y-94615000D01*
X151170000Y-104775000D02*
X151170000Y-94615000D01*
X156290000Y-99695000D02*
G75*
G03X156290000Y-99695000I-5120000J0D01*
G01*
X156270354Y-102035000D02*
X156270354Y-103035000D01*
X155770354Y-102535000D02*
X156770354Y-102535000D01*
X166331000Y-104811000D02*
X166331000Y-106009000D01*
X166291000Y-104548000D02*
X166291000Y-106272000D01*
X166251000Y-104348000D02*
X166251000Y-106472000D01*
X166211000Y-104180000D02*
X166211000Y-106640000D01*
X166171000Y-104032000D02*
X166171000Y-106788000D01*
X166131000Y-103900000D02*
X166131000Y-106920000D01*
X166091000Y-103780000D02*
X166091000Y-107040000D01*
X166051000Y-103668000D02*
X166051000Y-107152000D01*
X166011000Y-103564000D02*
X166011000Y-107256000D01*
X165971000Y-103466000D02*
X165971000Y-107354000D01*
X165931000Y-103373000D02*
X165931000Y-107447000D01*
X165891000Y-103285000D02*
X165891000Y-107535000D01*
X165851000Y-103201000D02*
X165851000Y-107619000D01*
X165811000Y-103121000D02*
X165811000Y-107699000D01*
X165771000Y-103045000D02*
X165771000Y-107775000D01*
X165731000Y-102971000D02*
X165731000Y-107849000D01*
X165691000Y-102900000D02*
X165691000Y-107920000D01*
X165651000Y-102831000D02*
X165651000Y-107989000D01*
X165611000Y-102765000D02*
X165611000Y-108055000D01*
X165571000Y-102701000D02*
X165571000Y-108119000D01*
X165531000Y-102640000D02*
X165531000Y-108180000D01*
X165491000Y-102580000D02*
X165491000Y-108240000D01*
X165451000Y-102521000D02*
X165451000Y-108299000D01*
X165411000Y-102465000D02*
X165411000Y-108355000D01*
X165371000Y-102410000D02*
X165371000Y-108410000D01*
X165331000Y-102356000D02*
X165331000Y-108464000D01*
X165291000Y-102304000D02*
X165291000Y-108516000D01*
X165251000Y-102254000D02*
X165251000Y-108566000D01*
X165211000Y-102204000D02*
X165211000Y-108616000D01*
X165171000Y-102156000D02*
X165171000Y-108664000D01*
X165131000Y-102109000D02*
X165131000Y-108711000D01*
X165091000Y-102063000D02*
X165091000Y-108757000D01*
X165051000Y-102018000D02*
X165051000Y-108802000D01*
X165011000Y-101974000D02*
X165011000Y-108846000D01*
X164971000Y-106651000D02*
X164971000Y-108888000D01*
X164971000Y-101932000D02*
X164971000Y-104169000D01*
X164931000Y-106651000D02*
X164931000Y-108930000D01*
X164931000Y-101890000D02*
X164931000Y-104169000D01*
X164891000Y-106651000D02*
X164891000Y-108971000D01*
X164891000Y-101849000D02*
X164891000Y-104169000D01*
X164851000Y-106651000D02*
X164851000Y-109011000D01*
X164851000Y-101809000D02*
X164851000Y-104169000D01*
X164811000Y-106651000D02*
X164811000Y-109050000D01*
X164811000Y-101770000D02*
X164811000Y-104169000D01*
X164771000Y-106651000D02*
X164771000Y-109089000D01*
X164771000Y-101731000D02*
X164771000Y-104169000D01*
X164731000Y-106651000D02*
X164731000Y-109126000D01*
X164731000Y-101694000D02*
X164731000Y-104169000D01*
X164691000Y-106651000D02*
X164691000Y-109163000D01*
X164691000Y-101657000D02*
X164691000Y-104169000D01*
X164651000Y-106651000D02*
X164651000Y-109199000D01*
X164651000Y-101621000D02*
X164651000Y-104169000D01*
X164611000Y-106651000D02*
X164611000Y-109234000D01*
X164611000Y-101586000D02*
X164611000Y-104169000D01*
X164571000Y-106651000D02*
X164571000Y-109268000D01*
X164571000Y-101552000D02*
X164571000Y-104169000D01*
X164531000Y-106651000D02*
X164531000Y-109302000D01*
X164531000Y-101518000D02*
X164531000Y-104169000D01*
X164491000Y-106651000D02*
X164491000Y-109335000D01*
X164491000Y-101485000D02*
X164491000Y-104169000D01*
X164451000Y-106651000D02*
X164451000Y-109367000D01*
X164451000Y-101453000D02*
X164451000Y-104169000D01*
X164411000Y-106651000D02*
X164411000Y-109399000D01*
X164411000Y-101421000D02*
X164411000Y-104169000D01*
X164371000Y-106651000D02*
X164371000Y-109430000D01*
X164371000Y-101390000D02*
X164371000Y-104169000D01*
X164331000Y-106651000D02*
X164331000Y-109460000D01*
X164331000Y-101360000D02*
X164331000Y-104169000D01*
X164291000Y-106651000D02*
X164291000Y-109490000D01*
X164291000Y-101330000D02*
X164291000Y-104169000D01*
X164251000Y-106651000D02*
X164251000Y-109520000D01*
X164251000Y-101300000D02*
X164251000Y-104169000D01*
X164211000Y-106651000D02*
X164211000Y-109548000D01*
X164211000Y-101272000D02*
X164211000Y-104169000D01*
X164171000Y-106651000D02*
X164171000Y-109576000D01*
X164171000Y-101244000D02*
X164171000Y-104169000D01*
X164131000Y-106651000D02*
X164131000Y-109604000D01*
X164131000Y-101216000D02*
X164131000Y-104169000D01*
X164091000Y-106651000D02*
X164091000Y-109631000D01*
X164091000Y-101189000D02*
X164091000Y-104169000D01*
X164051000Y-106651000D02*
X164051000Y-109657000D01*
X164051000Y-101163000D02*
X164051000Y-104169000D01*
X164011000Y-106651000D02*
X164011000Y-109683000D01*
X164011000Y-101137000D02*
X164011000Y-104169000D01*
X163971000Y-106651000D02*
X163971000Y-109708000D01*
X163971000Y-101112000D02*
X163971000Y-104169000D01*
X163931000Y-106651000D02*
X163931000Y-109733000D01*
X163931000Y-101087000D02*
X163931000Y-104169000D01*
X163891000Y-106651000D02*
X163891000Y-109757000D01*
X163891000Y-101063000D02*
X163891000Y-104169000D01*
X163851000Y-106651000D02*
X163851000Y-109781000D01*
X163851000Y-101039000D02*
X163851000Y-104169000D01*
X163811000Y-106651000D02*
X163811000Y-109805000D01*
X163811000Y-101015000D02*
X163811000Y-104169000D01*
X163771000Y-106651000D02*
X163771000Y-109827000D01*
X163771000Y-100993000D02*
X163771000Y-104169000D01*
X163731000Y-106651000D02*
X163731000Y-109850000D01*
X163731000Y-100970000D02*
X163731000Y-104169000D01*
X163691000Y-106651000D02*
X163691000Y-109872000D01*
X163691000Y-100948000D02*
X163691000Y-104169000D01*
X163651000Y-106651000D02*
X163651000Y-109893000D01*
X163651000Y-100927000D02*
X163651000Y-104169000D01*
X163611000Y-106651000D02*
X163611000Y-109914000D01*
X163611000Y-100906000D02*
X163611000Y-104169000D01*
X163571000Y-106651000D02*
X163571000Y-109935000D01*
X163571000Y-100885000D02*
X163571000Y-104169000D01*
X163531000Y-106651000D02*
X163531000Y-109955000D01*
X163531000Y-100865000D02*
X163531000Y-104169000D01*
X163491000Y-106651000D02*
X163491000Y-109974000D01*
X163491000Y-100846000D02*
X163491000Y-104169000D01*
X163451000Y-106651000D02*
X163451000Y-109994000D01*
X163451000Y-100826000D02*
X163451000Y-104169000D01*
X163411000Y-106651000D02*
X163411000Y-110013000D01*
X163411000Y-100807000D02*
X163411000Y-104169000D01*
X163371000Y-106651000D02*
X163371000Y-110031000D01*
X163371000Y-100789000D02*
X163371000Y-104169000D01*
X163331000Y-106651000D02*
X163331000Y-110049000D01*
X163331000Y-100771000D02*
X163331000Y-104169000D01*
X163291000Y-106651000D02*
X163291000Y-110067000D01*
X163291000Y-100753000D02*
X163291000Y-104169000D01*
X163251000Y-106651000D02*
X163251000Y-110084000D01*
X163251000Y-100736000D02*
X163251000Y-104169000D01*
X163211000Y-106651000D02*
X163211000Y-110100000D01*
X163211000Y-100720000D02*
X163211000Y-104169000D01*
X163171000Y-106651000D02*
X163171000Y-110117000D01*
X163171000Y-100703000D02*
X163171000Y-104169000D01*
X163131000Y-106651000D02*
X163131000Y-110133000D01*
X163131000Y-100687000D02*
X163131000Y-104169000D01*
X163091000Y-106651000D02*
X163091000Y-110148000D01*
X163091000Y-100672000D02*
X163091000Y-104169000D01*
X163051000Y-106651000D02*
X163051000Y-110164000D01*
X163051000Y-100656000D02*
X163051000Y-104169000D01*
X163011000Y-106651000D02*
X163011000Y-110178000D01*
X163011000Y-100642000D02*
X163011000Y-104169000D01*
X162971000Y-106651000D02*
X162971000Y-110193000D01*
X162971000Y-100627000D02*
X162971000Y-104169000D01*
X162931000Y-106651000D02*
X162931000Y-110207000D01*
X162931000Y-100613000D02*
X162931000Y-104169000D01*
X162891000Y-106651000D02*
X162891000Y-110221000D01*
X162891000Y-100599000D02*
X162891000Y-104169000D01*
X162851000Y-106651000D02*
X162851000Y-110234000D01*
X162851000Y-100586000D02*
X162851000Y-104169000D01*
X162811000Y-106651000D02*
X162811000Y-110247000D01*
X162811000Y-100573000D02*
X162811000Y-104169000D01*
X162771000Y-106651000D02*
X162771000Y-110260000D01*
X162771000Y-100560000D02*
X162771000Y-104169000D01*
X162731000Y-106651000D02*
X162731000Y-110272000D01*
X162731000Y-100548000D02*
X162731000Y-104169000D01*
X162691000Y-106651000D02*
X162691000Y-110284000D01*
X162691000Y-100536000D02*
X162691000Y-104169000D01*
X162651000Y-106651000D02*
X162651000Y-110295000D01*
X162651000Y-100525000D02*
X162651000Y-104169000D01*
X162611000Y-106651000D02*
X162611000Y-110307000D01*
X162611000Y-100513000D02*
X162611000Y-104169000D01*
X162571000Y-106651000D02*
X162571000Y-110317000D01*
X162571000Y-100503000D02*
X162571000Y-104169000D01*
X162531000Y-106651000D02*
X162531000Y-110328000D01*
X162531000Y-100492000D02*
X162531000Y-104169000D01*
X162491000Y-100482000D02*
X162491000Y-110338000D01*
X162451000Y-100472000D02*
X162451000Y-110348000D01*
X162411000Y-100463000D02*
X162411000Y-110357000D01*
X162371000Y-100454000D02*
X162371000Y-110366000D01*
X162331000Y-100445000D02*
X162331000Y-110375000D01*
X162291000Y-100436000D02*
X162291000Y-110384000D01*
X162251000Y-100428000D02*
X162251000Y-110392000D01*
X162211000Y-100420000D02*
X162211000Y-110400000D01*
X162171000Y-100413000D02*
X162171000Y-110407000D01*
X162131000Y-100406000D02*
X162131000Y-110414000D01*
X162091000Y-100399000D02*
X162091000Y-110421000D01*
X162051000Y-100392000D02*
X162051000Y-110428000D01*
X162011000Y-100386000D02*
X162011000Y-110434000D01*
X161971000Y-100380000D02*
X161971000Y-110440000D01*
X161930000Y-100375000D02*
X161930000Y-110445000D01*
X161890000Y-100370000D02*
X161890000Y-110450000D01*
X161850000Y-100365000D02*
X161850000Y-110455000D01*
X161810000Y-100360000D02*
X161810000Y-110460000D01*
X161770000Y-100356000D02*
X161770000Y-110464000D01*
X161730000Y-100352000D02*
X161730000Y-110468000D01*
X161690000Y-100348000D02*
X161690000Y-110472000D01*
X161650000Y-100345000D02*
X161650000Y-110475000D01*
X161610000Y-100342000D02*
X161610000Y-110478000D01*
X161570000Y-100340000D02*
X161570000Y-110480000D01*
X161530000Y-100337000D02*
X161530000Y-110483000D01*
X161490000Y-100335000D02*
X161490000Y-110485000D01*
X161450000Y-100333000D02*
X161450000Y-110487000D01*
X161410000Y-100332000D02*
X161410000Y-110488000D01*
X161370000Y-100331000D02*
X161370000Y-110489000D01*
X161330000Y-100330000D02*
X161330000Y-110490000D01*
X161290000Y-100330000D02*
X161290000Y-110490000D01*
X161250000Y-100330000D02*
X161250000Y-110490000D01*
X166370000Y-105410000D02*
G75*
G03X166370000Y-105410000I-5120000J0D01*
G01*
X156270354Y-113465000D02*
X156270354Y-114465000D01*
X155770354Y-113965000D02*
X156770354Y-113965000D01*
X166331000Y-116241000D02*
X166331000Y-117439000D01*
X166291000Y-115978000D02*
X166291000Y-117702000D01*
X166251000Y-115778000D02*
X166251000Y-117902000D01*
X166211000Y-115610000D02*
X166211000Y-118070000D01*
X166171000Y-115462000D02*
X166171000Y-118218000D01*
X166131000Y-115330000D02*
X166131000Y-118350000D01*
X166091000Y-115210000D02*
X166091000Y-118470000D01*
X166051000Y-115098000D02*
X166051000Y-118582000D01*
X166011000Y-114994000D02*
X166011000Y-118686000D01*
X165971000Y-114896000D02*
X165971000Y-118784000D01*
X165931000Y-114803000D02*
X165931000Y-118877000D01*
X165891000Y-114715000D02*
X165891000Y-118965000D01*
X165851000Y-114631000D02*
X165851000Y-119049000D01*
X165811000Y-114551000D02*
X165811000Y-119129000D01*
X165771000Y-114475000D02*
X165771000Y-119205000D01*
X165731000Y-114401000D02*
X165731000Y-119279000D01*
X165691000Y-114330000D02*
X165691000Y-119350000D01*
X165651000Y-114261000D02*
X165651000Y-119419000D01*
X165611000Y-114195000D02*
X165611000Y-119485000D01*
X165571000Y-114131000D02*
X165571000Y-119549000D01*
X165531000Y-114070000D02*
X165531000Y-119610000D01*
X165491000Y-114010000D02*
X165491000Y-119670000D01*
X165451000Y-113951000D02*
X165451000Y-119729000D01*
X165411000Y-113895000D02*
X165411000Y-119785000D01*
X165371000Y-113840000D02*
X165371000Y-119840000D01*
X165331000Y-113786000D02*
X165331000Y-119894000D01*
X165291000Y-113734000D02*
X165291000Y-119946000D01*
X165251000Y-113684000D02*
X165251000Y-119996000D01*
X165211000Y-113634000D02*
X165211000Y-120046000D01*
X165171000Y-113586000D02*
X165171000Y-120094000D01*
X165131000Y-113539000D02*
X165131000Y-120141000D01*
X165091000Y-113493000D02*
X165091000Y-120187000D01*
X165051000Y-113448000D02*
X165051000Y-120232000D01*
X165011000Y-113404000D02*
X165011000Y-120276000D01*
X164971000Y-118081000D02*
X164971000Y-120318000D01*
X164971000Y-113362000D02*
X164971000Y-115599000D01*
X164931000Y-118081000D02*
X164931000Y-120360000D01*
X164931000Y-113320000D02*
X164931000Y-115599000D01*
X164891000Y-118081000D02*
X164891000Y-120401000D01*
X164891000Y-113279000D02*
X164891000Y-115599000D01*
X164851000Y-118081000D02*
X164851000Y-120441000D01*
X164851000Y-113239000D02*
X164851000Y-115599000D01*
X164811000Y-118081000D02*
X164811000Y-120480000D01*
X164811000Y-113200000D02*
X164811000Y-115599000D01*
X164771000Y-118081000D02*
X164771000Y-120519000D01*
X164771000Y-113161000D02*
X164771000Y-115599000D01*
X164731000Y-118081000D02*
X164731000Y-120556000D01*
X164731000Y-113124000D02*
X164731000Y-115599000D01*
X164691000Y-118081000D02*
X164691000Y-120593000D01*
X164691000Y-113087000D02*
X164691000Y-115599000D01*
X164651000Y-118081000D02*
X164651000Y-120629000D01*
X164651000Y-113051000D02*
X164651000Y-115599000D01*
X164611000Y-118081000D02*
X164611000Y-120664000D01*
X164611000Y-113016000D02*
X164611000Y-115599000D01*
X164571000Y-118081000D02*
X164571000Y-120698000D01*
X164571000Y-112982000D02*
X164571000Y-115599000D01*
X164531000Y-118081000D02*
X164531000Y-120732000D01*
X164531000Y-112948000D02*
X164531000Y-115599000D01*
X164491000Y-118081000D02*
X164491000Y-120765000D01*
X164491000Y-112915000D02*
X164491000Y-115599000D01*
X164451000Y-118081000D02*
X164451000Y-120797000D01*
X164451000Y-112883000D02*
X164451000Y-115599000D01*
X164411000Y-118081000D02*
X164411000Y-120829000D01*
X164411000Y-112851000D02*
X164411000Y-115599000D01*
X164371000Y-118081000D02*
X164371000Y-120860000D01*
X164371000Y-112820000D02*
X164371000Y-115599000D01*
X164331000Y-118081000D02*
X164331000Y-120890000D01*
X164331000Y-112790000D02*
X164331000Y-115599000D01*
X164291000Y-118081000D02*
X164291000Y-120920000D01*
X164291000Y-112760000D02*
X164291000Y-115599000D01*
X164251000Y-118081000D02*
X164251000Y-120950000D01*
X164251000Y-112730000D02*
X164251000Y-115599000D01*
X164211000Y-118081000D02*
X164211000Y-120978000D01*
X164211000Y-112702000D02*
X164211000Y-115599000D01*
X164171000Y-118081000D02*
X164171000Y-121006000D01*
X164171000Y-112674000D02*
X164171000Y-115599000D01*
X164131000Y-118081000D02*
X164131000Y-121034000D01*
X164131000Y-112646000D02*
X164131000Y-115599000D01*
X164091000Y-118081000D02*
X164091000Y-121061000D01*
X164091000Y-112619000D02*
X164091000Y-115599000D01*
X164051000Y-118081000D02*
X164051000Y-121087000D01*
X164051000Y-112593000D02*
X164051000Y-115599000D01*
X164011000Y-118081000D02*
X164011000Y-121113000D01*
X164011000Y-112567000D02*
X164011000Y-115599000D01*
X163971000Y-118081000D02*
X163971000Y-121138000D01*
X163971000Y-112542000D02*
X163971000Y-115599000D01*
X163931000Y-118081000D02*
X163931000Y-121163000D01*
X163931000Y-112517000D02*
X163931000Y-115599000D01*
X163891000Y-118081000D02*
X163891000Y-121187000D01*
X163891000Y-112493000D02*
X163891000Y-115599000D01*
X163851000Y-118081000D02*
X163851000Y-121211000D01*
X163851000Y-112469000D02*
X163851000Y-115599000D01*
X163811000Y-118081000D02*
X163811000Y-121235000D01*
X163811000Y-112445000D02*
X163811000Y-115599000D01*
X163771000Y-118081000D02*
X163771000Y-121257000D01*
X163771000Y-112423000D02*
X163771000Y-115599000D01*
X163731000Y-118081000D02*
X163731000Y-121280000D01*
X163731000Y-112400000D02*
X163731000Y-115599000D01*
X163691000Y-118081000D02*
X163691000Y-121302000D01*
X163691000Y-112378000D02*
X163691000Y-115599000D01*
X163651000Y-118081000D02*
X163651000Y-121323000D01*
X163651000Y-112357000D02*
X163651000Y-115599000D01*
X163611000Y-118081000D02*
X163611000Y-121344000D01*
X163611000Y-112336000D02*
X163611000Y-115599000D01*
X163571000Y-118081000D02*
X163571000Y-121365000D01*
X163571000Y-112315000D02*
X163571000Y-115599000D01*
X163531000Y-118081000D02*
X163531000Y-121385000D01*
X163531000Y-112295000D02*
X163531000Y-115599000D01*
X163491000Y-118081000D02*
X163491000Y-121404000D01*
X163491000Y-112276000D02*
X163491000Y-115599000D01*
X163451000Y-118081000D02*
X163451000Y-121424000D01*
X163451000Y-112256000D02*
X163451000Y-115599000D01*
X163411000Y-118081000D02*
X163411000Y-121443000D01*
X163411000Y-112237000D02*
X163411000Y-115599000D01*
X163371000Y-118081000D02*
X163371000Y-121461000D01*
X163371000Y-112219000D02*
X163371000Y-115599000D01*
X163331000Y-118081000D02*
X163331000Y-121479000D01*
X163331000Y-112201000D02*
X163331000Y-115599000D01*
X163291000Y-118081000D02*
X163291000Y-121497000D01*
X163291000Y-112183000D02*
X163291000Y-115599000D01*
X163251000Y-118081000D02*
X163251000Y-121514000D01*
X163251000Y-112166000D02*
X163251000Y-115599000D01*
X163211000Y-118081000D02*
X163211000Y-121530000D01*
X163211000Y-112150000D02*
X163211000Y-115599000D01*
X163171000Y-118081000D02*
X163171000Y-121547000D01*
X163171000Y-112133000D02*
X163171000Y-115599000D01*
X163131000Y-118081000D02*
X163131000Y-121563000D01*
X163131000Y-112117000D02*
X163131000Y-115599000D01*
X163091000Y-118081000D02*
X163091000Y-121578000D01*
X163091000Y-112102000D02*
X163091000Y-115599000D01*
X163051000Y-118081000D02*
X163051000Y-121594000D01*
X163051000Y-112086000D02*
X163051000Y-115599000D01*
X163011000Y-118081000D02*
X163011000Y-121608000D01*
X163011000Y-112072000D02*
X163011000Y-115599000D01*
X162971000Y-118081000D02*
X162971000Y-121623000D01*
X162971000Y-112057000D02*
X162971000Y-115599000D01*
X162931000Y-118081000D02*
X162931000Y-121637000D01*
X162931000Y-112043000D02*
X162931000Y-115599000D01*
X162891000Y-118081000D02*
X162891000Y-121651000D01*
X162891000Y-112029000D02*
X162891000Y-115599000D01*
X162851000Y-118081000D02*
X162851000Y-121664000D01*
X162851000Y-112016000D02*
X162851000Y-115599000D01*
X162811000Y-118081000D02*
X162811000Y-121677000D01*
X162811000Y-112003000D02*
X162811000Y-115599000D01*
X162771000Y-118081000D02*
X162771000Y-121690000D01*
X162771000Y-111990000D02*
X162771000Y-115599000D01*
X162731000Y-118081000D02*
X162731000Y-121702000D01*
X162731000Y-111978000D02*
X162731000Y-115599000D01*
X162691000Y-118081000D02*
X162691000Y-121714000D01*
X162691000Y-111966000D02*
X162691000Y-115599000D01*
X162651000Y-118081000D02*
X162651000Y-121725000D01*
X162651000Y-111955000D02*
X162651000Y-115599000D01*
X162611000Y-118081000D02*
X162611000Y-121737000D01*
X162611000Y-111943000D02*
X162611000Y-115599000D01*
X162571000Y-118081000D02*
X162571000Y-121747000D01*
X162571000Y-111933000D02*
X162571000Y-115599000D01*
X162531000Y-118081000D02*
X162531000Y-121758000D01*
X162531000Y-111922000D02*
X162531000Y-115599000D01*
X162491000Y-111912000D02*
X162491000Y-121768000D01*
X162451000Y-111902000D02*
X162451000Y-121778000D01*
X162411000Y-111893000D02*
X162411000Y-121787000D01*
X162371000Y-111884000D02*
X162371000Y-121796000D01*
X162331000Y-111875000D02*
X162331000Y-121805000D01*
X162291000Y-111866000D02*
X162291000Y-121814000D01*
X162251000Y-111858000D02*
X162251000Y-121822000D01*
X162211000Y-111850000D02*
X162211000Y-121830000D01*
X162171000Y-111843000D02*
X162171000Y-121837000D01*
X162131000Y-111836000D02*
X162131000Y-121844000D01*
X162091000Y-111829000D02*
X162091000Y-121851000D01*
X162051000Y-111822000D02*
X162051000Y-121858000D01*
X162011000Y-111816000D02*
X162011000Y-121864000D01*
X161971000Y-111810000D02*
X161971000Y-121870000D01*
X161930000Y-111805000D02*
X161930000Y-121875000D01*
X161890000Y-111800000D02*
X161890000Y-121880000D01*
X161850000Y-111795000D02*
X161850000Y-121885000D01*
X161810000Y-111790000D02*
X161810000Y-121890000D01*
X161770000Y-111786000D02*
X161770000Y-121894000D01*
X161730000Y-111782000D02*
X161730000Y-121898000D01*
X161690000Y-111778000D02*
X161690000Y-121902000D01*
X161650000Y-111775000D02*
X161650000Y-121905000D01*
X161610000Y-111772000D02*
X161610000Y-121908000D01*
X161570000Y-111770000D02*
X161570000Y-121910000D01*
X161530000Y-111767000D02*
X161530000Y-121913000D01*
X161490000Y-111765000D02*
X161490000Y-121915000D01*
X161450000Y-111763000D02*
X161450000Y-121917000D01*
X161410000Y-111762000D02*
X161410000Y-121918000D01*
X161370000Y-111761000D02*
X161370000Y-121919000D01*
X161330000Y-111760000D02*
X161330000Y-121920000D01*
X161290000Y-111760000D02*
X161290000Y-121920000D01*
X161250000Y-111760000D02*
X161250000Y-121920000D01*
X166370000Y-116840000D02*
G75*
G03X166370000Y-116840000I-5120000J0D01*
G01*
D10*
X134917380Y-129365333D02*
X135631666Y-129365333D01*
X135774523Y-129412952D01*
X135869761Y-129508190D01*
X135917380Y-129651047D01*
X135917380Y-129746285D01*
X135012619Y-128936761D02*
X134965000Y-128889142D01*
X134917380Y-128793904D01*
X134917380Y-128555809D01*
X134965000Y-128460571D01*
X135012619Y-128412952D01*
X135107857Y-128365333D01*
X135203095Y-128365333D01*
X135345952Y-128412952D01*
X135917380Y-128984380D01*
X135917380Y-128365333D01*
X106238095Y-126252380D02*
X106238095Y-125252380D01*
X106238095Y-125728571D02*
X106809523Y-125728571D01*
X106809523Y-126252380D02*
X106809523Y-125252380D01*
X107714285Y-125585714D02*
X107714285Y-126252380D01*
X107476190Y-125204761D02*
X107238095Y-125919047D01*
X107857142Y-125919047D01*
X166238095Y-93252380D02*
X166238095Y-92252380D01*
X166238095Y-92728571D02*
X166809523Y-92728571D01*
X166809523Y-93252380D02*
X166809523Y-92252380D01*
X167190476Y-92252380D02*
X167809523Y-92252380D01*
X167476190Y-92633333D01*
X167619047Y-92633333D01*
X167714285Y-92680952D01*
X167761904Y-92728571D01*
X167809523Y-92823809D01*
X167809523Y-93061904D01*
X167761904Y-93157142D01*
X167714285Y-93204761D01*
X167619047Y-93252380D01*
X167333333Y-93252380D01*
X167238095Y-93204761D01*
X167190476Y-93157142D01*
X166238095Y-126252380D02*
X166238095Y-125252380D01*
X166238095Y-125728571D02*
X166809523Y-125728571D01*
X166809523Y-126252380D02*
X166809523Y-125252380D01*
X167238095Y-125347619D02*
X167285714Y-125300000D01*
X167380952Y-125252380D01*
X167619047Y-125252380D01*
X167714285Y-125300000D01*
X167761904Y-125347619D01*
X167809523Y-125442857D01*
X167809523Y-125538095D01*
X167761904Y-125680952D01*
X167190476Y-126252380D01*
X167809523Y-126252380D01*
X106238095Y-93252380D02*
X106238095Y-92252380D01*
X106238095Y-92728571D02*
X106809523Y-92728571D01*
X106809523Y-93252380D02*
X106809523Y-92252380D01*
X107809523Y-93252380D02*
X107238095Y-93252380D01*
X107523809Y-93252380D02*
X107523809Y-92252380D01*
X107428571Y-92395238D01*
X107333333Y-92490476D01*
X107238095Y-92538095D01*
X130152142Y-107322857D02*
X130199761Y-107370476D01*
X130247380Y-107513333D01*
X130247380Y-107608571D01*
X130199761Y-107751428D01*
X130104523Y-107846666D01*
X130009285Y-107894285D01*
X129818809Y-107941904D01*
X129675952Y-107941904D01*
X129485476Y-107894285D01*
X129390238Y-107846666D01*
X129295000Y-107751428D01*
X129247380Y-107608571D01*
X129247380Y-107513333D01*
X129295000Y-107370476D01*
X129342619Y-107322857D01*
X130247380Y-106370476D02*
X130247380Y-106941904D01*
X130247380Y-106656190D02*
X129247380Y-106656190D01*
X129390238Y-106751428D01*
X129485476Y-106846666D01*
X129533095Y-106941904D01*
X129580714Y-105513333D02*
X130247380Y-105513333D01*
X129199761Y-105751428D02*
X129914047Y-105989523D01*
X129914047Y-105370476D01*
X107672190Y-107664190D02*
X108148380Y-107664190D01*
X107148380Y-107997523D02*
X107672190Y-107664190D01*
X107148380Y-107330857D01*
X108148380Y-106473714D02*
X108148380Y-107045142D01*
X108148380Y-106759428D02*
X107148380Y-106759428D01*
X107291238Y-106854666D01*
X107386476Y-106949904D01*
X107434095Y-107045142D01*
X124333095Y-106352380D02*
X124333095Y-107161904D01*
X124380714Y-107257142D01*
X124428333Y-107304761D01*
X124523571Y-107352380D01*
X124714047Y-107352380D01*
X124809285Y-107304761D01*
X124856904Y-107257142D01*
X124904523Y-107161904D01*
X124904523Y-106352380D01*
X125333095Y-106447619D02*
X125380714Y-106400000D01*
X125475952Y-106352380D01*
X125714047Y-106352380D01*
X125809285Y-106400000D01*
X125856904Y-106447619D01*
X125904523Y-106542857D01*
X125904523Y-106638095D01*
X125856904Y-106780952D01*
X125285476Y-107352380D01*
X125904523Y-107352380D01*
X135128095Y-112482380D02*
X135128095Y-113291904D01*
X135175714Y-113387142D01*
X135223333Y-113434761D01*
X135318571Y-113482380D01*
X135509047Y-113482380D01*
X135604285Y-113434761D01*
X135651904Y-113387142D01*
X135699523Y-113291904D01*
X135699523Y-112482380D01*
X136699523Y-113482380D02*
X136128095Y-113482380D01*
X136413809Y-113482380D02*
X136413809Y-112482380D01*
X136318571Y-112625238D01*
X136223333Y-112720476D01*
X136128095Y-112768095D01*
X122269761Y-99758333D02*
X122317380Y-99615476D01*
X122317380Y-99377380D01*
X122269761Y-99282142D01*
X122222142Y-99234523D01*
X122126904Y-99186904D01*
X122031666Y-99186904D01*
X121936428Y-99234523D01*
X121888809Y-99282142D01*
X121841190Y-99377380D01*
X121793571Y-99567857D01*
X121745952Y-99663095D01*
X121698333Y-99710714D01*
X121603095Y-99758333D01*
X121507857Y-99758333D01*
X121412619Y-99710714D01*
X121365000Y-99663095D01*
X121317380Y-99567857D01*
X121317380Y-99329761D01*
X121365000Y-99186904D01*
X121317380Y-98853571D02*
X122317380Y-98615476D01*
X121603095Y-98425000D01*
X122317380Y-98234523D01*
X121317380Y-97996428D01*
X121412619Y-97663095D02*
X121365000Y-97615476D01*
X121317380Y-97520238D01*
X121317380Y-97282142D01*
X121365000Y-97186904D01*
X121412619Y-97139285D01*
X121507857Y-97091666D01*
X121603095Y-97091666D01*
X121745952Y-97139285D01*
X122317380Y-97710714D01*
X122317380Y-97091666D01*
X114014761Y-99758333D02*
X114062380Y-99615476D01*
X114062380Y-99377380D01*
X114014761Y-99282142D01*
X113967142Y-99234523D01*
X113871904Y-99186904D01*
X113776666Y-99186904D01*
X113681428Y-99234523D01*
X113633809Y-99282142D01*
X113586190Y-99377380D01*
X113538571Y-99567857D01*
X113490952Y-99663095D01*
X113443333Y-99710714D01*
X113348095Y-99758333D01*
X113252857Y-99758333D01*
X113157619Y-99710714D01*
X113110000Y-99663095D01*
X113062380Y-99567857D01*
X113062380Y-99329761D01*
X113110000Y-99186904D01*
X113062380Y-98853571D02*
X114062380Y-98615476D01*
X113348095Y-98425000D01*
X114062380Y-98234523D01*
X113062380Y-97996428D01*
X114062380Y-97091666D02*
X114062380Y-97663095D01*
X114062380Y-97377380D02*
X113062380Y-97377380D01*
X113205238Y-97472619D01*
X113300476Y-97567857D01*
X113348095Y-97663095D01*
X128722380Y-127642857D02*
X128246190Y-127976190D01*
X128722380Y-128214285D02*
X127722380Y-128214285D01*
X127722380Y-127833333D01*
X127770000Y-127738095D01*
X127817619Y-127690476D01*
X127912857Y-127642857D01*
X128055714Y-127642857D01*
X128150952Y-127690476D01*
X128198571Y-127738095D01*
X128246190Y-127833333D01*
X128246190Y-128214285D01*
X128722380Y-126690476D02*
X128722380Y-127261904D01*
X128722380Y-126976190D02*
X127722380Y-126976190D01*
X127865238Y-127071428D01*
X127960476Y-127166666D01*
X128008095Y-127261904D01*
X127722380Y-126071428D02*
X127722380Y-125976190D01*
X127770000Y-125880952D01*
X127817619Y-125833333D01*
X127912857Y-125785714D01*
X128103333Y-125738095D01*
X128341428Y-125738095D01*
X128531904Y-125785714D01*
X128627142Y-125833333D01*
X128674761Y-125880952D01*
X128722380Y-125976190D01*
X128722380Y-126071428D01*
X128674761Y-126166666D01*
X128627142Y-126214285D01*
X128531904Y-126261904D01*
X128341428Y-126309523D01*
X128103333Y-126309523D01*
X127912857Y-126261904D01*
X127817619Y-126214285D01*
X127770000Y-126166666D01*
X127722380Y-126071428D01*
X117164380Y-120816666D02*
X116688190Y-121150000D01*
X117164380Y-121388095D02*
X116164380Y-121388095D01*
X116164380Y-121007142D01*
X116212000Y-120911904D01*
X116259619Y-120864285D01*
X116354857Y-120816666D01*
X116497714Y-120816666D01*
X116592952Y-120864285D01*
X116640571Y-120911904D01*
X116688190Y-121007142D01*
X116688190Y-121388095D01*
X117164380Y-120340476D02*
X117164380Y-120150000D01*
X117116761Y-120054761D01*
X117069142Y-120007142D01*
X116926285Y-119911904D01*
X116735809Y-119864285D01*
X116354857Y-119864285D01*
X116259619Y-119911904D01*
X116212000Y-119959523D01*
X116164380Y-120054761D01*
X116164380Y-120245238D01*
X116212000Y-120340476D01*
X116259619Y-120388095D01*
X116354857Y-120435714D01*
X116592952Y-120435714D01*
X116688190Y-120388095D01*
X116735809Y-120340476D01*
X116783428Y-120245238D01*
X116783428Y-120054761D01*
X116735809Y-119959523D01*
X116688190Y-119911904D01*
X116592952Y-119864285D01*
X117164380Y-116371666D02*
X116688190Y-116705000D01*
X117164380Y-116943095D02*
X116164380Y-116943095D01*
X116164380Y-116562142D01*
X116212000Y-116466904D01*
X116259619Y-116419285D01*
X116354857Y-116371666D01*
X116497714Y-116371666D01*
X116592952Y-116419285D01*
X116640571Y-116466904D01*
X116688190Y-116562142D01*
X116688190Y-116943095D01*
X116592952Y-115800238D02*
X116545333Y-115895476D01*
X116497714Y-115943095D01*
X116402476Y-115990714D01*
X116354857Y-115990714D01*
X116259619Y-115943095D01*
X116212000Y-115895476D01*
X116164380Y-115800238D01*
X116164380Y-115609761D01*
X116212000Y-115514523D01*
X116259619Y-115466904D01*
X116354857Y-115419285D01*
X116402476Y-115419285D01*
X116497714Y-115466904D01*
X116545333Y-115514523D01*
X116592952Y-115609761D01*
X116592952Y-115800238D01*
X116640571Y-115895476D01*
X116688190Y-115943095D01*
X116783428Y-115990714D01*
X116973904Y-115990714D01*
X117069142Y-115943095D01*
X117116761Y-115895476D01*
X117164380Y-115800238D01*
X117164380Y-115609761D01*
X117116761Y-115514523D01*
X117069142Y-115466904D01*
X116973904Y-115419285D01*
X116783428Y-115419285D01*
X116688190Y-115466904D01*
X116640571Y-115514523D01*
X116592952Y-115609761D01*
X144597380Y-118911666D02*
X144121190Y-119245000D01*
X144597380Y-119483095D02*
X143597380Y-119483095D01*
X143597380Y-119102142D01*
X143645000Y-119006904D01*
X143692619Y-118959285D01*
X143787857Y-118911666D01*
X143930714Y-118911666D01*
X144025952Y-118959285D01*
X144073571Y-119006904D01*
X144121190Y-119102142D01*
X144121190Y-119483095D01*
X143597380Y-118578333D02*
X143597380Y-117911666D01*
X144597380Y-118340238D01*
X141422380Y-118911666D02*
X140946190Y-119245000D01*
X141422380Y-119483095D02*
X140422380Y-119483095D01*
X140422380Y-119102142D01*
X140470000Y-119006904D01*
X140517619Y-118959285D01*
X140612857Y-118911666D01*
X140755714Y-118911666D01*
X140850952Y-118959285D01*
X140898571Y-119006904D01*
X140946190Y-119102142D01*
X140946190Y-119483095D01*
X140422380Y-118054523D02*
X140422380Y-118245000D01*
X140470000Y-118340238D01*
X140517619Y-118387857D01*
X140660476Y-118483095D01*
X140850952Y-118530714D01*
X141231904Y-118530714D01*
X141327142Y-118483095D01*
X141374761Y-118435476D01*
X141422380Y-118340238D01*
X141422380Y-118149761D01*
X141374761Y-118054523D01*
X141327142Y-118006904D01*
X141231904Y-117959285D01*
X140993809Y-117959285D01*
X140898571Y-118006904D01*
X140850952Y-118054523D01*
X140803333Y-118149761D01*
X140803333Y-118340238D01*
X140850952Y-118435476D01*
X140898571Y-118483095D01*
X140993809Y-118530714D01*
X138247380Y-118911666D02*
X137771190Y-119245000D01*
X138247380Y-119483095D02*
X137247380Y-119483095D01*
X137247380Y-119102142D01*
X137295000Y-119006904D01*
X137342619Y-118959285D01*
X137437857Y-118911666D01*
X137580714Y-118911666D01*
X137675952Y-118959285D01*
X137723571Y-119006904D01*
X137771190Y-119102142D01*
X137771190Y-119483095D01*
X137247380Y-118006904D02*
X137247380Y-118483095D01*
X137723571Y-118530714D01*
X137675952Y-118483095D01*
X137628333Y-118387857D01*
X137628333Y-118149761D01*
X137675952Y-118054523D01*
X137723571Y-118006904D01*
X137818809Y-117959285D01*
X138056904Y-117959285D01*
X138152142Y-118006904D01*
X138199761Y-118054523D01*
X138247380Y-118149761D01*
X138247380Y-118387857D01*
X138199761Y-118483095D01*
X138152142Y-118530714D01*
X135072380Y-118911666D02*
X134596190Y-119245000D01*
X135072380Y-119483095D02*
X134072380Y-119483095D01*
X134072380Y-119102142D01*
X134120000Y-119006904D01*
X134167619Y-118959285D01*
X134262857Y-118911666D01*
X134405714Y-118911666D01*
X134500952Y-118959285D01*
X134548571Y-119006904D01*
X134596190Y-119102142D01*
X134596190Y-119483095D01*
X134405714Y-118054523D02*
X135072380Y-118054523D01*
X134024761Y-118292619D02*
X134739047Y-118530714D01*
X134739047Y-117911666D01*
X121118333Y-106877380D02*
X120785000Y-106401190D01*
X120546904Y-106877380D02*
X120546904Y-105877380D01*
X120927857Y-105877380D01*
X121023095Y-105925000D01*
X121070714Y-105972619D01*
X121118333Y-106067857D01*
X121118333Y-106210714D01*
X121070714Y-106305952D01*
X121023095Y-106353571D01*
X120927857Y-106401190D01*
X120546904Y-106401190D01*
X121451666Y-105877380D02*
X122070714Y-105877380D01*
X121737380Y-106258333D01*
X121880238Y-106258333D01*
X121975476Y-106305952D01*
X122023095Y-106353571D01*
X122070714Y-106448809D01*
X122070714Y-106686904D01*
X122023095Y-106782142D01*
X121975476Y-106829761D01*
X121880238Y-106877380D01*
X121594523Y-106877380D01*
X121499285Y-106829761D01*
X121451666Y-106782142D01*
X141422380Y-100242666D02*
X140946190Y-100576000D01*
X141422380Y-100814095D02*
X140422380Y-100814095D01*
X140422380Y-100433142D01*
X140470000Y-100337904D01*
X140517619Y-100290285D01*
X140612857Y-100242666D01*
X140755714Y-100242666D01*
X140850952Y-100290285D01*
X140898571Y-100337904D01*
X140946190Y-100433142D01*
X140946190Y-100814095D01*
X140517619Y-99861714D02*
X140470000Y-99814095D01*
X140422380Y-99718857D01*
X140422380Y-99480761D01*
X140470000Y-99385523D01*
X140517619Y-99337904D01*
X140612857Y-99290285D01*
X140708095Y-99290285D01*
X140850952Y-99337904D01*
X141422380Y-99909333D01*
X141422380Y-99290285D01*
X133818333Y-105227380D02*
X133485000Y-104751190D01*
X133246904Y-105227380D02*
X133246904Y-104227380D01*
X133627857Y-104227380D01*
X133723095Y-104275000D01*
X133770714Y-104322619D01*
X133818333Y-104417857D01*
X133818333Y-104560714D01*
X133770714Y-104655952D01*
X133723095Y-104703571D01*
X133627857Y-104751190D01*
X133246904Y-104751190D01*
X134770714Y-105227380D02*
X134199285Y-105227380D01*
X134485000Y-105227380D02*
X134485000Y-104227380D01*
X134389761Y-104370238D01*
X134294523Y-104465476D01*
X134199285Y-104513095D01*
X117379761Y-126912619D02*
X117284523Y-126865000D01*
X117189285Y-126769761D01*
X117046428Y-126626904D01*
X116951190Y-126579285D01*
X116855952Y-126579285D01*
X116903571Y-126817380D02*
X116808333Y-126769761D01*
X116713095Y-126674523D01*
X116665476Y-126484047D01*
X116665476Y-126150714D01*
X116713095Y-125960238D01*
X116808333Y-125865000D01*
X116903571Y-125817380D01*
X117094047Y-125817380D01*
X117189285Y-125865000D01*
X117284523Y-125960238D01*
X117332142Y-126150714D01*
X117332142Y-126484047D01*
X117284523Y-126674523D01*
X117189285Y-126769761D01*
X117094047Y-126817380D01*
X116903571Y-126817380D01*
X118284523Y-126817380D02*
X117713095Y-126817380D01*
X117998809Y-126817380D02*
X117998809Y-125817380D01*
X117903571Y-125960238D01*
X117808333Y-126055476D01*
X117713095Y-126103095D01*
X135556666Y-98449880D02*
X135556666Y-99164166D01*
X135509047Y-99307023D01*
X135413809Y-99402261D01*
X135270952Y-99449880D01*
X135175714Y-99449880D01*
X136556666Y-99449880D02*
X135985238Y-99449880D01*
X136270952Y-99449880D02*
X136270952Y-98449880D01*
X136175714Y-98592738D01*
X136080476Y-98687976D01*
X135985238Y-98735595D01*
X131341904Y-124857380D02*
X131341904Y-123857380D01*
X131580000Y-123857380D01*
X131722857Y-123905000D01*
X131818095Y-124000238D01*
X131865714Y-124095476D01*
X131913333Y-124285952D01*
X131913333Y-124428809D01*
X131865714Y-124619285D01*
X131818095Y-124714523D01*
X131722857Y-124809761D01*
X131580000Y-124857380D01*
X131341904Y-124857380D01*
X132294285Y-123952619D02*
X132341904Y-123905000D01*
X132437142Y-123857380D01*
X132675238Y-123857380D01*
X132770476Y-123905000D01*
X132818095Y-123952619D01*
X132865714Y-124047857D01*
X132865714Y-124143095D01*
X132818095Y-124285952D01*
X132246666Y-124857380D01*
X132865714Y-124857380D01*
X132611904Y-102687380D02*
X132611904Y-101687380D01*
X132850000Y-101687380D01*
X132992857Y-101735000D01*
X133088095Y-101830238D01*
X133135714Y-101925476D01*
X133183333Y-102115952D01*
X133183333Y-102258809D01*
X133135714Y-102449285D01*
X133088095Y-102544523D01*
X132992857Y-102639761D01*
X132850000Y-102687380D01*
X132611904Y-102687380D01*
X134135714Y-102687380D02*
X133564285Y-102687380D01*
X133850000Y-102687380D02*
X133850000Y-101687380D01*
X133754761Y-101830238D01*
X133659523Y-101925476D01*
X133564285Y-101973095D01*
X125722142Y-103482142D02*
X125674523Y-103529761D01*
X125531666Y-103577380D01*
X125436428Y-103577380D01*
X125293571Y-103529761D01*
X125198333Y-103434523D01*
X125150714Y-103339285D01*
X125103095Y-103148809D01*
X125103095Y-103005952D01*
X125150714Y-102815476D01*
X125198333Y-102720238D01*
X125293571Y-102625000D01*
X125436428Y-102577380D01*
X125531666Y-102577380D01*
X125674523Y-102625000D01*
X125722142Y-102672619D01*
X126674523Y-103577380D02*
X126103095Y-103577380D01*
X126388809Y-103577380D02*
X126388809Y-102577380D01*
X126293571Y-102720238D01*
X126198333Y-102815476D01*
X126103095Y-102863095D01*
X127531666Y-102577380D02*
X127341190Y-102577380D01*
X127245952Y-102625000D01*
X127198333Y-102672619D01*
X127103095Y-102815476D01*
X127055476Y-103005952D01*
X127055476Y-103386904D01*
X127103095Y-103482142D01*
X127150714Y-103529761D01*
X127245952Y-103577380D01*
X127436428Y-103577380D01*
X127531666Y-103529761D01*
X127579285Y-103482142D01*
X127626904Y-103386904D01*
X127626904Y-103148809D01*
X127579285Y-103053571D01*
X127531666Y-103005952D01*
X127436428Y-102958333D01*
X127245952Y-102958333D01*
X127150714Y-103005952D01*
X127103095Y-103053571D01*
X127055476Y-103148809D01*
X116689142Y-107830857D02*
X116736761Y-107878476D01*
X116784380Y-108021333D01*
X116784380Y-108116571D01*
X116736761Y-108259428D01*
X116641523Y-108354666D01*
X116546285Y-108402285D01*
X116355809Y-108449904D01*
X116212952Y-108449904D01*
X116022476Y-108402285D01*
X115927238Y-108354666D01*
X115832000Y-108259428D01*
X115784380Y-108116571D01*
X115784380Y-108021333D01*
X115832000Y-107878476D01*
X115879619Y-107830857D01*
X116784380Y-106878476D02*
X116784380Y-107449904D01*
X116784380Y-107164190D02*
X115784380Y-107164190D01*
X115927238Y-107259428D01*
X116022476Y-107354666D01*
X116070095Y-107449904D01*
X115784380Y-105973714D02*
X115784380Y-106449904D01*
X116260571Y-106497523D01*
X116212952Y-106449904D01*
X116165333Y-106354666D01*
X116165333Y-106116571D01*
X116212952Y-106021333D01*
X116260571Y-105973714D01*
X116355809Y-105926095D01*
X116593904Y-105926095D01*
X116689142Y-105973714D01*
X116736761Y-106021333D01*
X116784380Y-106116571D01*
X116784380Y-106354666D01*
X116736761Y-106449904D01*
X116689142Y-106497523D01*
X130787142Y-121682857D02*
X130834761Y-121730476D01*
X130882380Y-121873333D01*
X130882380Y-121968571D01*
X130834761Y-122111428D01*
X130739523Y-122206666D01*
X130644285Y-122254285D01*
X130453809Y-122301904D01*
X130310952Y-122301904D01*
X130120476Y-122254285D01*
X130025238Y-122206666D01*
X129930000Y-122111428D01*
X129882380Y-121968571D01*
X129882380Y-121873333D01*
X129930000Y-121730476D01*
X129977619Y-121682857D01*
X130882380Y-120730476D02*
X130882380Y-121301904D01*
X130882380Y-121016190D02*
X129882380Y-121016190D01*
X130025238Y-121111428D01*
X130120476Y-121206666D01*
X130168095Y-121301904D01*
X129882380Y-120397142D02*
X129882380Y-119778095D01*
X130263333Y-120111428D01*
X130263333Y-119968571D01*
X130310952Y-119873333D01*
X130358571Y-119825714D01*
X130453809Y-119778095D01*
X130691904Y-119778095D01*
X130787142Y-119825714D01*
X130834761Y-119873333D01*
X130882380Y-119968571D01*
X130882380Y-120254285D01*
X130834761Y-120349523D01*
X130787142Y-120397142D01*
X118102142Y-124309142D02*
X118054523Y-124356761D01*
X117911666Y-124404380D01*
X117816428Y-124404380D01*
X117673571Y-124356761D01*
X117578333Y-124261523D01*
X117530714Y-124166285D01*
X117483095Y-123975809D01*
X117483095Y-123832952D01*
X117530714Y-123642476D01*
X117578333Y-123547238D01*
X117673571Y-123452000D01*
X117816428Y-123404380D01*
X117911666Y-123404380D01*
X118054523Y-123452000D01*
X118102142Y-123499619D01*
X119054523Y-124404380D02*
X118483095Y-124404380D01*
X118768809Y-124404380D02*
X118768809Y-123404380D01*
X118673571Y-123547238D01*
X118578333Y-123642476D01*
X118483095Y-123690095D01*
X119435476Y-123499619D02*
X119483095Y-123452000D01*
X119578333Y-123404380D01*
X119816428Y-123404380D01*
X119911666Y-123452000D01*
X119959285Y-123499619D01*
X120006904Y-123594857D01*
X120006904Y-123690095D01*
X119959285Y-123832952D01*
X119387857Y-124404380D01*
X120006904Y-124404380D01*
X140327142Y-115292142D02*
X140279523Y-115339761D01*
X140136666Y-115387380D01*
X140041428Y-115387380D01*
X139898571Y-115339761D01*
X139803333Y-115244523D01*
X139755714Y-115149285D01*
X139708095Y-114958809D01*
X139708095Y-114815952D01*
X139755714Y-114625476D01*
X139803333Y-114530238D01*
X139898571Y-114435000D01*
X140041428Y-114387380D01*
X140136666Y-114387380D01*
X140279523Y-114435000D01*
X140327142Y-114482619D01*
X141279523Y-115387380D02*
X140708095Y-115387380D01*
X140993809Y-115387380D02*
X140993809Y-114387380D01*
X140898571Y-114530238D01*
X140803333Y-114625476D01*
X140708095Y-114673095D01*
X141898571Y-114387380D02*
X141993809Y-114387380D01*
X142089047Y-114435000D01*
X142136666Y-114482619D01*
X142184285Y-114577857D01*
X142231904Y-114768333D01*
X142231904Y-115006428D01*
X142184285Y-115196904D01*
X142136666Y-115292142D01*
X142089047Y-115339761D01*
X141993809Y-115387380D01*
X141898571Y-115387380D01*
X141803333Y-115339761D01*
X141755714Y-115292142D01*
X141708095Y-115196904D01*
X141660476Y-115006428D01*
X141660476Y-114768333D01*
X141708095Y-114577857D01*
X141755714Y-114482619D01*
X141803333Y-114435000D01*
X141898571Y-114387380D01*
X105387142Y-115736666D02*
X105434761Y-115784285D01*
X105482380Y-115927142D01*
X105482380Y-116022380D01*
X105434761Y-116165238D01*
X105339523Y-116260476D01*
X105244285Y-116308095D01*
X105053809Y-116355714D01*
X104910952Y-116355714D01*
X104720476Y-116308095D01*
X104625238Y-116260476D01*
X104530000Y-116165238D01*
X104482380Y-116022380D01*
X104482380Y-115927142D01*
X104530000Y-115784285D01*
X104577619Y-115736666D01*
X105482380Y-115260476D02*
X105482380Y-115070000D01*
X105434761Y-114974761D01*
X105387142Y-114927142D01*
X105244285Y-114831904D01*
X105053809Y-114784285D01*
X104672857Y-114784285D01*
X104577619Y-114831904D01*
X104530000Y-114879523D01*
X104482380Y-114974761D01*
X104482380Y-115165238D01*
X104530000Y-115260476D01*
X104577619Y-115308095D01*
X104672857Y-115355714D01*
X104910952Y-115355714D01*
X105006190Y-115308095D01*
X105053809Y-115260476D01*
X105101428Y-115165238D01*
X105101428Y-114974761D01*
X105053809Y-114879523D01*
X105006190Y-114831904D01*
X104910952Y-114784285D01*
X143867142Y-100242666D02*
X143914761Y-100290285D01*
X143962380Y-100433142D01*
X143962380Y-100528380D01*
X143914761Y-100671238D01*
X143819523Y-100766476D01*
X143724285Y-100814095D01*
X143533809Y-100861714D01*
X143390952Y-100861714D01*
X143200476Y-100814095D01*
X143105238Y-100766476D01*
X143010000Y-100671238D01*
X142962380Y-100528380D01*
X142962380Y-100433142D01*
X143010000Y-100290285D01*
X143057619Y-100242666D01*
X143390952Y-99671238D02*
X143343333Y-99766476D01*
X143295714Y-99814095D01*
X143200476Y-99861714D01*
X143152857Y-99861714D01*
X143057619Y-99814095D01*
X143010000Y-99766476D01*
X142962380Y-99671238D01*
X142962380Y-99480761D01*
X143010000Y-99385523D01*
X143057619Y-99337904D01*
X143152857Y-99290285D01*
X143200476Y-99290285D01*
X143295714Y-99337904D01*
X143343333Y-99385523D01*
X143390952Y-99480761D01*
X143390952Y-99671238D01*
X143438571Y-99766476D01*
X143486190Y-99814095D01*
X143581428Y-99861714D01*
X143771904Y-99861714D01*
X143867142Y-99814095D01*
X143914761Y-99766476D01*
X143962380Y-99671238D01*
X143962380Y-99480761D01*
X143914761Y-99385523D01*
X143867142Y-99337904D01*
X143771904Y-99290285D01*
X143581428Y-99290285D01*
X143486190Y-99337904D01*
X143438571Y-99385523D01*
X143390952Y-99480761D01*
X125309333Y-124563142D02*
X125261714Y-124610761D01*
X125118857Y-124658380D01*
X125023619Y-124658380D01*
X124880761Y-124610761D01*
X124785523Y-124515523D01*
X124737904Y-124420285D01*
X124690285Y-124229809D01*
X124690285Y-124086952D01*
X124737904Y-123896476D01*
X124785523Y-123801238D01*
X124880761Y-123706000D01*
X125023619Y-123658380D01*
X125118857Y-123658380D01*
X125261714Y-123706000D01*
X125309333Y-123753619D01*
X125642666Y-123658380D02*
X126309333Y-123658380D01*
X125880761Y-124658380D01*
X145883333Y-126087142D02*
X145835714Y-126134761D01*
X145692857Y-126182380D01*
X145597619Y-126182380D01*
X145454761Y-126134761D01*
X145359523Y-126039523D01*
X145311904Y-125944285D01*
X145264285Y-125753809D01*
X145264285Y-125610952D01*
X145311904Y-125420476D01*
X145359523Y-125325238D01*
X145454761Y-125230000D01*
X145597619Y-125182380D01*
X145692857Y-125182380D01*
X145835714Y-125230000D01*
X145883333Y-125277619D01*
X146740476Y-125182380D02*
X146550000Y-125182380D01*
X146454761Y-125230000D01*
X146407142Y-125277619D01*
X146311904Y-125420476D01*
X146264285Y-125610952D01*
X146264285Y-125991904D01*
X146311904Y-126087142D01*
X146359523Y-126134761D01*
X146454761Y-126182380D01*
X146645238Y-126182380D01*
X146740476Y-126134761D01*
X146788095Y-126087142D01*
X146835714Y-125991904D01*
X146835714Y-125753809D01*
X146788095Y-125658571D01*
X146740476Y-125610952D01*
X146645238Y-125563333D01*
X146454761Y-125563333D01*
X146359523Y-125610952D01*
X146311904Y-125658571D01*
X146264285Y-125753809D01*
X108687142Y-110402666D02*
X108734761Y-110450285D01*
X108782380Y-110593142D01*
X108782380Y-110688380D01*
X108734761Y-110831238D01*
X108639523Y-110926476D01*
X108544285Y-110974095D01*
X108353809Y-111021714D01*
X108210952Y-111021714D01*
X108020476Y-110974095D01*
X107925238Y-110926476D01*
X107830000Y-110831238D01*
X107782380Y-110688380D01*
X107782380Y-110593142D01*
X107830000Y-110450285D01*
X107877619Y-110402666D01*
X107782380Y-109497904D02*
X107782380Y-109974095D01*
X108258571Y-110021714D01*
X108210952Y-109974095D01*
X108163333Y-109878857D01*
X108163333Y-109640761D01*
X108210952Y-109545523D01*
X108258571Y-109497904D01*
X108353809Y-109450285D01*
X108591904Y-109450285D01*
X108687142Y-109497904D01*
X108734761Y-109545523D01*
X108782380Y-109640761D01*
X108782380Y-109878857D01*
X108734761Y-109974095D01*
X108687142Y-110021714D01*
X146899333Y-116181142D02*
X146851714Y-116228761D01*
X146708857Y-116276380D01*
X146613619Y-116276380D01*
X146470761Y-116228761D01*
X146375523Y-116133523D01*
X146327904Y-116038285D01*
X146280285Y-115847809D01*
X146280285Y-115704952D01*
X146327904Y-115514476D01*
X146375523Y-115419238D01*
X146470761Y-115324000D01*
X146613619Y-115276380D01*
X146708857Y-115276380D01*
X146851714Y-115324000D01*
X146899333Y-115371619D01*
X147756476Y-115609714D02*
X147756476Y-116276380D01*
X147518380Y-115228761D02*
X147280285Y-115943047D01*
X147899333Y-115943047D01*
X146645333Y-105005142D02*
X146597714Y-105052761D01*
X146454857Y-105100380D01*
X146359619Y-105100380D01*
X146216761Y-105052761D01*
X146121523Y-104957523D01*
X146073904Y-104862285D01*
X146026285Y-104671809D01*
X146026285Y-104528952D01*
X146073904Y-104338476D01*
X146121523Y-104243238D01*
X146216761Y-104148000D01*
X146359619Y-104100380D01*
X146454857Y-104100380D01*
X146597714Y-104148000D01*
X146645333Y-104195619D01*
X146978666Y-104100380D02*
X147597714Y-104100380D01*
X147264380Y-104481333D01*
X147407238Y-104481333D01*
X147502476Y-104528952D01*
X147550095Y-104576571D01*
X147597714Y-104671809D01*
X147597714Y-104909904D01*
X147550095Y-105005142D01*
X147502476Y-105052761D01*
X147407238Y-105100380D01*
X147121523Y-105100380D01*
X147026285Y-105052761D01*
X146978666Y-105005142D01*
X166203333Y-101957142D02*
X166155714Y-102004761D01*
X166012857Y-102052380D01*
X165917619Y-102052380D01*
X165774761Y-102004761D01*
X165679523Y-101909523D01*
X165631904Y-101814285D01*
X165584285Y-101623809D01*
X165584285Y-101480952D01*
X165631904Y-101290476D01*
X165679523Y-101195238D01*
X165774761Y-101100000D01*
X165917619Y-101052380D01*
X166012857Y-101052380D01*
X166155714Y-101100000D01*
X166203333Y-101147619D01*
X166584285Y-101147619D02*
X166631904Y-101100000D01*
X166727142Y-101052380D01*
X166965238Y-101052380D01*
X167060476Y-101100000D01*
X167108095Y-101147619D01*
X167155714Y-101242857D01*
X167155714Y-101338095D01*
X167108095Y-101480952D01*
X166536666Y-102052380D01*
X167155714Y-102052380D01*
X165949333Y-112879142D02*
X165901714Y-112926761D01*
X165758857Y-112974380D01*
X165663619Y-112974380D01*
X165520761Y-112926761D01*
X165425523Y-112831523D01*
X165377904Y-112736285D01*
X165330285Y-112545809D01*
X165330285Y-112402952D01*
X165377904Y-112212476D01*
X165425523Y-112117238D01*
X165520761Y-112022000D01*
X165663619Y-111974380D01*
X165758857Y-111974380D01*
X165901714Y-112022000D01*
X165949333Y-112069619D01*
X166901714Y-112974380D02*
X166330285Y-112974380D01*
X166616000Y-112974380D02*
X166616000Y-111974380D01*
X166520761Y-112117238D01*
X166425523Y-112212476D01*
X166330285Y-112260095D01*
M02*
