M48
; DRILL file {KiCad (5.1.4)-1} date 08/09/2019 20:11:01
; FORMAT={-:-/ absolute / inch / decimal}
; #@! TF.CreationDate,2019-09-08T20:11:01+01:00
; #@! TF.GenerationSoftware,Kicad,Pcbnew,(5.1.4)-1
FMAT,2
INCH
T1C0.0157
T2C0.0236
T3C0.0315
T4C0.0335
T5C0.0354
T6C0.0394
T7C0.1260
%
G90
G05
T1
X4.53Y-4.49
X4.69Y-4.89
X4.75Y-4.225
X4.775Y-4.55
X4.8Y-4.45
X4.875Y-4.125
X5.0203Y-4.6558
X5.05Y-4.625
X5.075Y-4.125
X5.075Y-4.475
X5.1247Y-4.7535
X5.125Y-3.725
X5.15Y-4.7
X5.1575Y-4.8425
T3
X4.2Y-4.44
X4.53Y-4.85
X4.7Y-4.725
X4.975Y-5.125
X5.0394Y-4.3701
X5.1969Y-4.0945
X5.23Y-3.92
X5.3543Y-4.2126
X5.5001Y-4.1732
X5.7087Y-4.4882
X5.9843Y-4.5276
T4
X5.2516Y-3.8326
X5.4484Y-3.8326
T5
X5.15Y-4.975
X5.25Y-4.975
X4.725Y-4.975
X4.825Y-4.975
T6
X5.8531Y-4.8
X6.05Y-4.8
X6.25Y-4.15
X6.4469Y-4.15
X5.8531Y-4.375
X6.05Y-4.375
X5.425Y-5.08
X5.525Y-5.08
X5.625Y-5.08
X5.725Y-5.08
X5.825Y-5.08
X5.925Y-5.08
X6.25Y-4.6
X6.4469Y-4.6
X5.8531Y-3.925
X6.05Y-3.925
T7
X4.2126Y-3.8189
X6.5748Y-5.1181
X4.2126Y-5.1181
X6.5748Y-3.8189
T2
G00X5.2122Y-3.7401
M15
G01X5.2122Y-3.7125
M16
G05
G00X5.4878Y-3.7125
M15
G01X5.4878Y-3.7401
M16
G05
T0
M30
