G04 #@! TF.GenerationSoftware,KiCad,Pcbnew,(5.1.4)-1*
G04 #@! TF.CreationDate,2019-09-08T20:10:46+01:00*
G04 #@! TF.ProjectId,autoscreen,6175746f-7363-4726-9565-6e2e6b696361,rev?*
G04 #@! TF.SameCoordinates,Original*
G04 #@! TF.FileFunction,Soldermask,Bot*
G04 #@! TF.FilePolarity,Negative*
%FSLAX46Y46*%
G04 Gerber Fmt 4.6, Leading zero omitted, Abs format (unit mm)*
G04 Created by KiCad (PCBNEW (5.1.4)-1) date 2019-09-08 20:10:46*
%MOMM*%
%LPD*%
G04 APERTURE LIST*
%ADD10C,0.100000*%
G04 APERTURE END LIST*
D10*
G36*
X167375256Y-128391298D02*
G01*
X167481579Y-128412447D01*
X167694037Y-128500450D01*
X167762985Y-128529009D01*
X167782042Y-128536903D01*
X168052451Y-128717585D01*
X168282415Y-128947549D01*
X168463097Y-129217958D01*
X168587553Y-129518421D01*
X168651000Y-129837391D01*
X168651000Y-130162609D01*
X168587553Y-130481579D01*
X168463097Y-130782042D01*
X168282415Y-131052451D01*
X168052451Y-131282415D01*
X167782042Y-131463097D01*
X167481579Y-131587553D01*
X167375256Y-131608702D01*
X167162611Y-131651000D01*
X166837389Y-131651000D01*
X166624744Y-131608702D01*
X166518421Y-131587553D01*
X166217958Y-131463097D01*
X165947549Y-131282415D01*
X165717585Y-131052451D01*
X165536903Y-130782042D01*
X165412447Y-130481579D01*
X165349000Y-130162609D01*
X165349000Y-129837391D01*
X165412447Y-129518421D01*
X165536903Y-129217958D01*
X165717585Y-128947549D01*
X165947549Y-128717585D01*
X166217958Y-128536903D01*
X166237016Y-128529009D01*
X166305963Y-128500450D01*
X166518421Y-128412447D01*
X166624744Y-128391298D01*
X166837389Y-128349000D01*
X167162611Y-128349000D01*
X167375256Y-128391298D01*
X167375256Y-128391298D01*
G37*
G36*
X107375256Y-128391298D02*
G01*
X107481579Y-128412447D01*
X107694037Y-128500450D01*
X107762985Y-128529009D01*
X107782042Y-128536903D01*
X108052451Y-128717585D01*
X108282415Y-128947549D01*
X108463097Y-129217958D01*
X108587553Y-129518421D01*
X108651000Y-129837391D01*
X108651000Y-130162609D01*
X108587553Y-130481579D01*
X108463097Y-130782042D01*
X108282415Y-131052451D01*
X108052451Y-131282415D01*
X107782042Y-131463097D01*
X107481579Y-131587553D01*
X107375256Y-131608702D01*
X107162611Y-131651000D01*
X106837389Y-131651000D01*
X106624744Y-131608702D01*
X106518421Y-131587553D01*
X106217958Y-131463097D01*
X105947549Y-131282415D01*
X105717585Y-131052451D01*
X105536903Y-130782042D01*
X105412447Y-130481579D01*
X105349000Y-130162609D01*
X105349000Y-129837391D01*
X105412447Y-129518421D01*
X105536903Y-129217958D01*
X105717585Y-128947549D01*
X105947549Y-128717585D01*
X106217958Y-128536903D01*
X106237016Y-128529009D01*
X106305963Y-128500450D01*
X106518421Y-128412447D01*
X106624744Y-128391298D01*
X106837389Y-128349000D01*
X107162611Y-128349000D01*
X107375256Y-128391298D01*
X107375256Y-128391298D01*
G37*
G36*
X150605442Y-128137518D02*
G01*
X150671627Y-128144037D01*
X150841466Y-128195557D01*
X150997991Y-128279222D01*
X151033729Y-128308552D01*
X151135186Y-128391814D01*
X151218448Y-128493271D01*
X151247778Y-128529009D01*
X151331443Y-128685534D01*
X151382963Y-128855373D01*
X151400359Y-129032000D01*
X151382963Y-129208627D01*
X151331443Y-129378466D01*
X151247778Y-129534991D01*
X151218448Y-129570729D01*
X151135186Y-129672186D01*
X151033729Y-129755448D01*
X150997991Y-129784778D01*
X150841466Y-129868443D01*
X150671627Y-129919963D01*
X150605442Y-129926482D01*
X150539260Y-129933000D01*
X150450740Y-129933000D01*
X150384558Y-129926482D01*
X150318373Y-129919963D01*
X150148534Y-129868443D01*
X149992009Y-129784778D01*
X149956271Y-129755448D01*
X149854814Y-129672186D01*
X149771552Y-129570729D01*
X149742222Y-129534991D01*
X149658557Y-129378466D01*
X149607037Y-129208627D01*
X149589641Y-129032000D01*
X149607037Y-128855373D01*
X149658557Y-128685534D01*
X149742222Y-128529009D01*
X149771552Y-128493271D01*
X149854814Y-128391814D01*
X149956271Y-128308552D01*
X149992009Y-128279222D01*
X150148534Y-128195557D01*
X150318373Y-128144037D01*
X150384558Y-128137518D01*
X150450740Y-128131000D01*
X150539260Y-128131000D01*
X150605442Y-128137518D01*
X150605442Y-128137518D01*
G37*
G36*
X138696000Y-129933000D02*
G01*
X136894000Y-129933000D01*
X136894000Y-128131000D01*
X138696000Y-128131000D01*
X138696000Y-129933000D01*
X138696000Y-129933000D01*
G37*
G36*
X140445442Y-128137518D02*
G01*
X140511627Y-128144037D01*
X140681466Y-128195557D01*
X140837991Y-128279222D01*
X140873729Y-128308552D01*
X140975186Y-128391814D01*
X141058448Y-128493271D01*
X141087778Y-128529009D01*
X141171443Y-128685534D01*
X141222963Y-128855373D01*
X141240359Y-129032000D01*
X141222963Y-129208627D01*
X141171443Y-129378466D01*
X141087778Y-129534991D01*
X141058448Y-129570729D01*
X140975186Y-129672186D01*
X140873729Y-129755448D01*
X140837991Y-129784778D01*
X140681466Y-129868443D01*
X140511627Y-129919963D01*
X140445442Y-129926482D01*
X140379260Y-129933000D01*
X140290740Y-129933000D01*
X140224558Y-129926482D01*
X140158373Y-129919963D01*
X139988534Y-129868443D01*
X139832009Y-129784778D01*
X139796271Y-129755448D01*
X139694814Y-129672186D01*
X139611552Y-129570729D01*
X139582222Y-129534991D01*
X139498557Y-129378466D01*
X139447037Y-129208627D01*
X139429641Y-129032000D01*
X139447037Y-128855373D01*
X139498557Y-128685534D01*
X139582222Y-128529009D01*
X139611552Y-128493271D01*
X139694814Y-128391814D01*
X139796271Y-128308552D01*
X139832009Y-128279222D01*
X139988534Y-128195557D01*
X140158373Y-128144037D01*
X140224558Y-128137518D01*
X140290740Y-128131000D01*
X140379260Y-128131000D01*
X140445442Y-128137518D01*
X140445442Y-128137518D01*
G37*
G36*
X142985442Y-128137518D02*
G01*
X143051627Y-128144037D01*
X143221466Y-128195557D01*
X143377991Y-128279222D01*
X143413729Y-128308552D01*
X143515186Y-128391814D01*
X143598448Y-128493271D01*
X143627778Y-128529009D01*
X143711443Y-128685534D01*
X143762963Y-128855373D01*
X143780359Y-129032000D01*
X143762963Y-129208627D01*
X143711443Y-129378466D01*
X143627778Y-129534991D01*
X143598448Y-129570729D01*
X143515186Y-129672186D01*
X143413729Y-129755448D01*
X143377991Y-129784778D01*
X143221466Y-129868443D01*
X143051627Y-129919963D01*
X142985442Y-129926482D01*
X142919260Y-129933000D01*
X142830740Y-129933000D01*
X142764558Y-129926482D01*
X142698373Y-129919963D01*
X142528534Y-129868443D01*
X142372009Y-129784778D01*
X142336271Y-129755448D01*
X142234814Y-129672186D01*
X142151552Y-129570729D01*
X142122222Y-129534991D01*
X142038557Y-129378466D01*
X141987037Y-129208627D01*
X141969641Y-129032000D01*
X141987037Y-128855373D01*
X142038557Y-128685534D01*
X142122222Y-128529009D01*
X142151552Y-128493271D01*
X142234814Y-128391814D01*
X142336271Y-128308552D01*
X142372009Y-128279222D01*
X142528534Y-128195557D01*
X142698373Y-128144037D01*
X142764558Y-128137518D01*
X142830740Y-128131000D01*
X142919260Y-128131000D01*
X142985442Y-128137518D01*
X142985442Y-128137518D01*
G37*
G36*
X145525442Y-128137518D02*
G01*
X145591627Y-128144037D01*
X145761466Y-128195557D01*
X145917991Y-128279222D01*
X145953729Y-128308552D01*
X146055186Y-128391814D01*
X146138448Y-128493271D01*
X146167778Y-128529009D01*
X146251443Y-128685534D01*
X146302963Y-128855373D01*
X146320359Y-129032000D01*
X146302963Y-129208627D01*
X146251443Y-129378466D01*
X146167778Y-129534991D01*
X146138448Y-129570729D01*
X146055186Y-129672186D01*
X145953729Y-129755448D01*
X145917991Y-129784778D01*
X145761466Y-129868443D01*
X145591627Y-129919963D01*
X145525442Y-129926482D01*
X145459260Y-129933000D01*
X145370740Y-129933000D01*
X145304558Y-129926482D01*
X145238373Y-129919963D01*
X145068534Y-129868443D01*
X144912009Y-129784778D01*
X144876271Y-129755448D01*
X144774814Y-129672186D01*
X144691552Y-129570729D01*
X144662222Y-129534991D01*
X144578557Y-129378466D01*
X144527037Y-129208627D01*
X144509641Y-129032000D01*
X144527037Y-128855373D01*
X144578557Y-128685534D01*
X144662222Y-128529009D01*
X144691552Y-128493271D01*
X144774814Y-128391814D01*
X144876271Y-128308552D01*
X144912009Y-128279222D01*
X145068534Y-128195557D01*
X145238373Y-128144037D01*
X145304558Y-128137518D01*
X145370740Y-128131000D01*
X145459260Y-128131000D01*
X145525442Y-128137518D01*
X145525442Y-128137518D01*
G37*
G36*
X148065442Y-128137518D02*
G01*
X148131627Y-128144037D01*
X148301466Y-128195557D01*
X148457991Y-128279222D01*
X148493729Y-128308552D01*
X148595186Y-128391814D01*
X148678448Y-128493271D01*
X148707778Y-128529009D01*
X148791443Y-128685534D01*
X148842963Y-128855373D01*
X148860359Y-129032000D01*
X148842963Y-129208627D01*
X148791443Y-129378466D01*
X148707778Y-129534991D01*
X148678448Y-129570729D01*
X148595186Y-129672186D01*
X148493729Y-129755448D01*
X148457991Y-129784778D01*
X148301466Y-129868443D01*
X148131627Y-129919963D01*
X148065442Y-129926482D01*
X147999260Y-129933000D01*
X147910740Y-129933000D01*
X147844558Y-129926482D01*
X147778373Y-129919963D01*
X147608534Y-129868443D01*
X147452009Y-129784778D01*
X147416271Y-129755448D01*
X147314814Y-129672186D01*
X147231552Y-129570729D01*
X147202222Y-129534991D01*
X147118557Y-129378466D01*
X147067037Y-129208627D01*
X147049641Y-129032000D01*
X147067037Y-128855373D01*
X147118557Y-128685534D01*
X147202222Y-128529009D01*
X147231552Y-128493271D01*
X147314814Y-128391814D01*
X147416271Y-128308552D01*
X147452009Y-128279222D01*
X147608534Y-128195557D01*
X147778373Y-128144037D01*
X147844558Y-128137518D01*
X147910740Y-128131000D01*
X147999260Y-128131000D01*
X148065442Y-128137518D01*
X148065442Y-128137518D01*
G37*
G36*
X120966000Y-127316000D02*
G01*
X119064000Y-127316000D01*
X119064000Y-125414000D01*
X120966000Y-125414000D01*
X120966000Y-127316000D01*
X120966000Y-127316000D01*
G37*
G36*
X131761000Y-127316000D02*
G01*
X129859000Y-127316000D01*
X129859000Y-125414000D01*
X131761000Y-125414000D01*
X131761000Y-127316000D01*
X131761000Y-127316000D01*
G37*
G36*
X133627395Y-125450546D02*
G01*
X133800466Y-125522234D01*
X133800467Y-125522235D01*
X133956227Y-125626310D01*
X134088690Y-125758773D01*
X134088691Y-125758775D01*
X134192766Y-125914534D01*
X134264454Y-126087605D01*
X134301000Y-126271333D01*
X134301000Y-126458667D01*
X134264454Y-126642395D01*
X134192766Y-126815466D01*
X134192765Y-126815467D01*
X134088690Y-126971227D01*
X133956227Y-127103690D01*
X133877818Y-127156081D01*
X133800466Y-127207766D01*
X133627395Y-127279454D01*
X133443667Y-127316000D01*
X133256333Y-127316000D01*
X133072605Y-127279454D01*
X132899534Y-127207766D01*
X132822182Y-127156081D01*
X132743773Y-127103690D01*
X132611310Y-126971227D01*
X132507235Y-126815467D01*
X132507234Y-126815466D01*
X132435546Y-126642395D01*
X132399000Y-126458667D01*
X132399000Y-126271333D01*
X132435546Y-126087605D01*
X132507234Y-125914534D01*
X132611309Y-125758775D01*
X132611310Y-125758773D01*
X132743773Y-125626310D01*
X132899533Y-125522235D01*
X132899534Y-125522234D01*
X133072605Y-125450546D01*
X133256333Y-125414000D01*
X133443667Y-125414000D01*
X133627395Y-125450546D01*
X133627395Y-125450546D01*
G37*
G36*
X122832395Y-125450546D02*
G01*
X123005466Y-125522234D01*
X123005467Y-125522235D01*
X123161227Y-125626310D01*
X123293690Y-125758773D01*
X123293691Y-125758775D01*
X123397766Y-125914534D01*
X123469454Y-126087605D01*
X123506000Y-126271333D01*
X123506000Y-126458667D01*
X123469454Y-126642395D01*
X123397766Y-126815466D01*
X123397765Y-126815467D01*
X123293690Y-126971227D01*
X123161227Y-127103690D01*
X123082818Y-127156081D01*
X123005466Y-127207766D01*
X122832395Y-127279454D01*
X122648667Y-127316000D01*
X122461333Y-127316000D01*
X122277605Y-127279454D01*
X122104534Y-127207766D01*
X122027182Y-127156081D01*
X121948773Y-127103690D01*
X121816310Y-126971227D01*
X121712235Y-126815467D01*
X121712234Y-126815466D01*
X121640546Y-126642395D01*
X121604000Y-126458667D01*
X121604000Y-126271333D01*
X121640546Y-126087605D01*
X121712234Y-125914534D01*
X121816309Y-125758775D01*
X121816310Y-125758773D01*
X121948773Y-125626310D01*
X122104533Y-125522235D01*
X122104534Y-125522234D01*
X122277605Y-125450546D01*
X122461333Y-125414000D01*
X122648667Y-125414000D01*
X122832395Y-125450546D01*
X122832395Y-125450546D01*
G37*
G36*
X154721000Y-122971000D02*
G01*
X152619000Y-122971000D01*
X152619000Y-120869000D01*
X154721000Y-120869000D01*
X154721000Y-122971000D01*
X154721000Y-122971000D01*
G37*
G36*
X148976564Y-120909389D02*
G01*
X149167833Y-120988615D01*
X149167835Y-120988616D01*
X149339973Y-121103635D01*
X149486365Y-121250027D01*
X149601385Y-121422167D01*
X149680611Y-121613436D01*
X149721000Y-121816484D01*
X149721000Y-122023516D01*
X149680611Y-122226564D01*
X149601385Y-122417833D01*
X149601384Y-122417835D01*
X149486365Y-122589973D01*
X149339973Y-122736365D01*
X149167835Y-122851384D01*
X149167834Y-122851385D01*
X149167833Y-122851385D01*
X148976564Y-122930611D01*
X148773516Y-122971000D01*
X148566484Y-122971000D01*
X148363436Y-122930611D01*
X148172167Y-122851385D01*
X148172166Y-122851385D01*
X148172165Y-122851384D01*
X148000027Y-122736365D01*
X147853635Y-122589973D01*
X147738616Y-122417835D01*
X147738615Y-122417833D01*
X147659389Y-122226564D01*
X147619000Y-122023516D01*
X147619000Y-121816484D01*
X147659389Y-121613436D01*
X147738615Y-121422167D01*
X147853635Y-121250027D01*
X148000027Y-121103635D01*
X148172165Y-120988616D01*
X148172167Y-120988615D01*
X148363436Y-120909389D01*
X148566484Y-120869000D01*
X148773516Y-120869000D01*
X148976564Y-120909389D01*
X148976564Y-120909389D01*
G37*
G36*
X159801000Y-117891000D02*
G01*
X157699000Y-117891000D01*
X157699000Y-115789000D01*
X159801000Y-115789000D01*
X159801000Y-117891000D01*
X159801000Y-117891000D01*
G37*
G36*
X164056564Y-115829389D02*
G01*
X164247833Y-115908615D01*
X164247835Y-115908616D01*
X164419973Y-116023635D01*
X164566365Y-116170027D01*
X164681385Y-116342167D01*
X164760611Y-116533436D01*
X164801000Y-116736484D01*
X164801000Y-116943516D01*
X164760611Y-117146564D01*
X164681385Y-117337833D01*
X164681384Y-117337835D01*
X164566365Y-117509973D01*
X164419973Y-117656365D01*
X164247835Y-117771384D01*
X164247834Y-117771385D01*
X164247833Y-117771385D01*
X164056564Y-117850611D01*
X163853516Y-117891000D01*
X163646484Y-117891000D01*
X163443436Y-117850611D01*
X163252167Y-117771385D01*
X163252166Y-117771385D01*
X163252165Y-117771384D01*
X163080027Y-117656365D01*
X162933635Y-117509973D01*
X162818616Y-117337835D01*
X162818615Y-117337833D01*
X162739389Y-117146564D01*
X162699000Y-116943516D01*
X162699000Y-116736484D01*
X162739389Y-116533436D01*
X162818615Y-116342167D01*
X162933635Y-116170027D01*
X163080027Y-116023635D01*
X163252165Y-115908616D01*
X163252167Y-115908615D01*
X163443436Y-115829389D01*
X163646484Y-115789000D01*
X163853516Y-115789000D01*
X164056564Y-115829389D01*
X164056564Y-115829389D01*
G37*
G36*
X148976564Y-110114389D02*
G01*
X149167833Y-110193615D01*
X149167835Y-110193616D01*
X149339973Y-110308635D01*
X149486365Y-110455027D01*
X149601385Y-110627167D01*
X149680611Y-110818436D01*
X149721000Y-111021484D01*
X149721000Y-111228516D01*
X149680611Y-111431564D01*
X149601385Y-111622833D01*
X149601384Y-111622835D01*
X149486365Y-111794973D01*
X149339973Y-111941365D01*
X149167835Y-112056384D01*
X149167834Y-112056385D01*
X149167833Y-112056385D01*
X148976564Y-112135611D01*
X148773516Y-112176000D01*
X148566484Y-112176000D01*
X148363436Y-112135611D01*
X148172167Y-112056385D01*
X148172166Y-112056385D01*
X148172165Y-112056384D01*
X148000027Y-111941365D01*
X147853635Y-111794973D01*
X147738616Y-111622835D01*
X147738615Y-111622833D01*
X147659389Y-111431564D01*
X147619000Y-111228516D01*
X147619000Y-111021484D01*
X147659389Y-110818436D01*
X147738615Y-110627167D01*
X147853635Y-110455027D01*
X148000027Y-110308635D01*
X148172165Y-110193616D01*
X148172167Y-110193615D01*
X148363436Y-110114389D01*
X148566484Y-110074000D01*
X148773516Y-110074000D01*
X148976564Y-110114389D01*
X148976564Y-110114389D01*
G37*
G36*
X154721000Y-112176000D02*
G01*
X152619000Y-112176000D01*
X152619000Y-110074000D01*
X154721000Y-110074000D01*
X154721000Y-112176000D01*
X154721000Y-112176000D01*
G37*
G36*
X164056564Y-104399389D02*
G01*
X164247833Y-104478615D01*
X164247835Y-104478616D01*
X164419973Y-104593635D01*
X164566365Y-104740027D01*
X164681385Y-104912167D01*
X164760611Y-105103436D01*
X164801000Y-105306484D01*
X164801000Y-105513516D01*
X164760611Y-105716564D01*
X164681385Y-105907833D01*
X164681384Y-105907835D01*
X164566365Y-106079973D01*
X164419973Y-106226365D01*
X164247835Y-106341384D01*
X164247834Y-106341385D01*
X164247833Y-106341385D01*
X164056564Y-106420611D01*
X163853516Y-106461000D01*
X163646484Y-106461000D01*
X163443436Y-106420611D01*
X163252167Y-106341385D01*
X163252166Y-106341385D01*
X163252165Y-106341384D01*
X163080027Y-106226365D01*
X162933635Y-106079973D01*
X162818616Y-105907835D01*
X162818615Y-105907833D01*
X162739389Y-105716564D01*
X162699000Y-105513516D01*
X162699000Y-105306484D01*
X162739389Y-105103436D01*
X162818615Y-104912167D01*
X162933635Y-104740027D01*
X163080027Y-104593635D01*
X163252165Y-104478616D01*
X163252167Y-104478615D01*
X163443436Y-104399389D01*
X163646484Y-104359000D01*
X163853516Y-104359000D01*
X164056564Y-104399389D01*
X164056564Y-104399389D01*
G37*
G36*
X159801000Y-106461000D02*
G01*
X157699000Y-106461000D01*
X157699000Y-104359000D01*
X159801000Y-104359000D01*
X159801000Y-106461000D01*
X159801000Y-106461000D01*
G37*
G36*
X154721000Y-100746000D02*
G01*
X152619000Y-100746000D01*
X152619000Y-98644000D01*
X154721000Y-98644000D01*
X154721000Y-100746000D01*
X154721000Y-100746000D01*
G37*
G36*
X148976564Y-98684389D02*
G01*
X149167833Y-98763615D01*
X149167835Y-98763616D01*
X149339973Y-98878635D01*
X149486365Y-99025027D01*
X149601385Y-99197167D01*
X149680611Y-99388436D01*
X149721000Y-99591484D01*
X149721000Y-99798516D01*
X149680611Y-100001564D01*
X149601385Y-100192833D01*
X149601384Y-100192835D01*
X149486365Y-100364973D01*
X149339973Y-100511365D01*
X149167835Y-100626384D01*
X149167834Y-100626385D01*
X149167833Y-100626385D01*
X148976564Y-100705611D01*
X148773516Y-100746000D01*
X148566484Y-100746000D01*
X148363436Y-100705611D01*
X148172167Y-100626385D01*
X148172166Y-100626385D01*
X148172165Y-100626384D01*
X148000027Y-100511365D01*
X147853635Y-100364973D01*
X147738616Y-100192835D01*
X147738615Y-100192833D01*
X147659389Y-100001564D01*
X147619000Y-99798516D01*
X147619000Y-99591484D01*
X147659389Y-99388436D01*
X147738615Y-99197167D01*
X147853635Y-99025027D01*
X148000027Y-98878635D01*
X148172165Y-98763616D01*
X148172167Y-98763615D01*
X148363436Y-98684389D01*
X148566484Y-98644000D01*
X148773516Y-98644000D01*
X148976564Y-98684389D01*
X148976564Y-98684389D01*
G37*
G36*
X107375256Y-95391298D02*
G01*
X107481579Y-95412447D01*
X107782042Y-95536903D01*
X108052451Y-95717585D01*
X108282415Y-95947549D01*
X108282416Y-95947551D01*
X108463098Y-96217960D01*
X108587553Y-96518422D01*
X108632571Y-96744739D01*
X108651000Y-96837391D01*
X108651000Y-97162609D01*
X108587553Y-97481579D01*
X108463097Y-97782042D01*
X108282415Y-98052451D01*
X108052451Y-98282415D01*
X107782042Y-98463097D01*
X107481579Y-98587553D01*
X107375256Y-98608702D01*
X107162611Y-98651000D01*
X106837389Y-98651000D01*
X106624744Y-98608702D01*
X106518421Y-98587553D01*
X106217958Y-98463097D01*
X105947549Y-98282415D01*
X105717585Y-98052451D01*
X105536903Y-97782042D01*
X105412447Y-97481579D01*
X105349000Y-97162609D01*
X105349000Y-96837391D01*
X105367430Y-96744739D01*
X105412447Y-96518422D01*
X105536902Y-96217960D01*
X105717584Y-95947551D01*
X105717585Y-95947549D01*
X105947549Y-95717585D01*
X106217958Y-95536903D01*
X106518421Y-95412447D01*
X106624744Y-95391298D01*
X106837389Y-95349000D01*
X107162611Y-95349000D01*
X107375256Y-95391298D01*
X107375256Y-95391298D01*
G37*
G36*
X167375256Y-95391298D02*
G01*
X167481579Y-95412447D01*
X167782042Y-95536903D01*
X168052451Y-95717585D01*
X168282415Y-95947549D01*
X168282416Y-95947551D01*
X168463098Y-96217960D01*
X168587553Y-96518422D01*
X168632571Y-96744739D01*
X168651000Y-96837391D01*
X168651000Y-97162609D01*
X168587553Y-97481579D01*
X168463097Y-97782042D01*
X168282415Y-98052451D01*
X168052451Y-98282415D01*
X167782042Y-98463097D01*
X167481579Y-98587553D01*
X167375256Y-98608702D01*
X167162611Y-98651000D01*
X166837389Y-98651000D01*
X166624744Y-98608702D01*
X166518421Y-98587553D01*
X166217958Y-98463097D01*
X165947549Y-98282415D01*
X165717585Y-98052451D01*
X165536903Y-97782042D01*
X165412447Y-97481579D01*
X165349000Y-97162609D01*
X165349000Y-96837391D01*
X165367430Y-96744739D01*
X165412447Y-96518422D01*
X165536902Y-96217960D01*
X165717584Y-95947551D01*
X165717585Y-95947549D01*
X165947549Y-95717585D01*
X166217958Y-95536903D01*
X166518421Y-95412447D01*
X166624744Y-95391298D01*
X166837389Y-95349000D01*
X167162611Y-95349000D01*
X167375256Y-95391298D01*
X167375256Y-95391298D01*
G37*
G36*
X133616348Y-96601320D02*
G01*
X133616350Y-96601321D01*
X133616351Y-96601321D01*
X133757574Y-96659817D01*
X133757577Y-96659819D01*
X133884669Y-96744739D01*
X133992761Y-96852831D01*
X134077681Y-96979923D01*
X134077683Y-96979926D01*
X134136179Y-97121149D01*
X134136180Y-97121152D01*
X134166000Y-97271069D01*
X134166000Y-97423929D01*
X134136179Y-97573851D01*
X134077683Y-97715074D01*
X134077681Y-97715077D01*
X133992761Y-97842169D01*
X133884669Y-97950261D01*
X133757577Y-98035181D01*
X133757574Y-98035183D01*
X133616351Y-98093679D01*
X133616350Y-98093679D01*
X133616348Y-98093680D01*
X133466431Y-98123500D01*
X133313569Y-98123500D01*
X133163652Y-98093680D01*
X133163650Y-98093679D01*
X133163649Y-98093679D01*
X133022426Y-98035183D01*
X133022423Y-98035181D01*
X132895331Y-97950261D01*
X132787239Y-97842169D01*
X132702319Y-97715077D01*
X132702317Y-97715074D01*
X132643821Y-97573851D01*
X132614000Y-97423929D01*
X132614000Y-97271069D01*
X132643820Y-97121152D01*
X132643821Y-97121149D01*
X132702317Y-96979926D01*
X132702319Y-96979923D01*
X132787239Y-96852831D01*
X132895331Y-96744739D01*
X133022423Y-96659819D01*
X133022426Y-96659817D01*
X133163649Y-96601321D01*
X133163650Y-96601321D01*
X133163652Y-96601320D01*
X133313569Y-96571500D01*
X133466431Y-96571500D01*
X133616348Y-96601320D01*
X133616348Y-96601320D01*
G37*
G36*
X138616348Y-96601320D02*
G01*
X138616350Y-96601321D01*
X138616351Y-96601321D01*
X138757574Y-96659817D01*
X138757577Y-96659819D01*
X138884669Y-96744739D01*
X138992761Y-96852831D01*
X139077681Y-96979923D01*
X139077683Y-96979926D01*
X139136179Y-97121149D01*
X139136180Y-97121152D01*
X139166000Y-97271069D01*
X139166000Y-97423929D01*
X139136179Y-97573851D01*
X139077683Y-97715074D01*
X139077681Y-97715077D01*
X138992761Y-97842169D01*
X138884669Y-97950261D01*
X138757577Y-98035181D01*
X138757574Y-98035183D01*
X138616351Y-98093679D01*
X138616350Y-98093679D01*
X138616348Y-98093680D01*
X138466431Y-98123500D01*
X138313569Y-98123500D01*
X138163652Y-98093680D01*
X138163650Y-98093679D01*
X138163649Y-98093679D01*
X138022426Y-98035183D01*
X138022423Y-98035181D01*
X137895331Y-97950261D01*
X137787239Y-97842169D01*
X137702319Y-97715077D01*
X137702317Y-97715074D01*
X137643821Y-97573851D01*
X137614000Y-97423929D01*
X137614000Y-97271069D01*
X137643820Y-97121152D01*
X137643821Y-97121149D01*
X137702317Y-96979926D01*
X137702319Y-96979923D01*
X137787239Y-96852831D01*
X137895331Y-96744739D01*
X138022423Y-96659819D01*
X138022426Y-96659817D01*
X138163649Y-96601321D01*
X138163650Y-96601321D01*
X138163652Y-96601320D01*
X138313569Y-96571500D01*
X138466431Y-96571500D01*
X138616348Y-96601320D01*
X138616348Y-96601320D01*
G37*
G36*
X139517617Y-93655920D02*
G01*
X139608403Y-93683460D01*
X139640335Y-93693146D01*
X139753424Y-93753594D01*
X139852554Y-93834947D01*
X139933906Y-93934075D01*
X139994354Y-94047164D01*
X140004040Y-94079096D01*
X140031580Y-94169882D01*
X140041000Y-94265527D01*
X140041000Y-95029473D01*
X140031580Y-95125118D01*
X140004040Y-95215904D01*
X139994354Y-95247836D01*
X139933906Y-95360925D01*
X139852554Y-95460054D01*
X139753425Y-95541406D01*
X139640336Y-95601854D01*
X139608404Y-95611540D01*
X139517618Y-95639080D01*
X139390000Y-95651649D01*
X139262383Y-95639080D01*
X139171597Y-95611540D01*
X139139665Y-95601854D01*
X139026576Y-95541406D01*
X138927447Y-95460054D01*
X138846095Y-95360925D01*
X138785648Y-95247837D01*
X138785645Y-95247832D01*
X138748420Y-95125118D01*
X138739000Y-95029473D01*
X138739000Y-94265528D01*
X138748420Y-94169883D01*
X138785645Y-94047169D01*
X138785646Y-94047165D01*
X138846094Y-93934076D01*
X138927447Y-93834946D01*
X139026575Y-93753594D01*
X139139664Y-93693146D01*
X139171596Y-93683460D01*
X139262382Y-93655920D01*
X139390000Y-93643351D01*
X139517617Y-93655920D01*
X139517617Y-93655920D01*
G37*
G36*
X132517618Y-93655920D02*
G01*
X132608404Y-93683460D01*
X132640336Y-93693146D01*
X132753425Y-93753594D01*
X132852554Y-93834946D01*
X132933906Y-93934075D01*
X132994354Y-94047164D01*
X133004040Y-94079096D01*
X133031580Y-94169882D01*
X133041000Y-94265527D01*
X133041000Y-95029473D01*
X133031580Y-95125118D01*
X133004040Y-95215904D01*
X132994354Y-95247836D01*
X132933906Y-95360925D01*
X132852554Y-95460053D01*
X132753424Y-95541406D01*
X132640335Y-95601854D01*
X132608403Y-95611540D01*
X132517617Y-95639080D01*
X132390000Y-95651649D01*
X132262382Y-95639080D01*
X132171596Y-95611540D01*
X132139664Y-95601854D01*
X132026575Y-95541406D01*
X131927447Y-95460054D01*
X131846094Y-95360924D01*
X131785646Y-95247835D01*
X131775960Y-95215903D01*
X131748420Y-95125117D01*
X131739000Y-95029472D01*
X131739000Y-94265527D01*
X131748420Y-94169882D01*
X131785645Y-94047168D01*
X131810608Y-94000466D01*
X131846095Y-93934075D01*
X131927447Y-93834946D01*
X132026576Y-93753594D01*
X132139665Y-93693146D01*
X132171597Y-93683460D01*
X132262383Y-93655920D01*
X132390000Y-93643351D01*
X132517618Y-93655920D01*
X132517618Y-93655920D01*
G37*
M02*
