G04 #@! TF.GenerationSoftware,KiCad,Pcbnew,(5.1.4)-1*
G04 #@! TF.CreationDate,2019-09-08T20:19:07+01:00*
G04 #@! TF.ProjectId,autoscreen,6175746f-7363-4726-9565-6e2e6b696361,rev?*
G04 #@! TF.SameCoordinates,Original*
G04 #@! TF.FileFunction,Copper,L2,Bot*
G04 #@! TF.FilePolarity,Positive*
%FSLAX46Y46*%
G04 Gerber Fmt 4.6, Leading zero omitted, Abs format (unit mm)*
G04 Created by KiCad (PCBNEW (5.1.4)-1) date 2019-09-08 20:19:07*
%MOMM*%
%LPD*%
G04 APERTURE LIST*
%ADD10O,1.700000X1.700000*%
%ADD11R,1.700000X1.700000*%
%ADD12C,1.800000*%
%ADD13R,1.800000X1.800000*%
%ADD14O,1.200000X1.900000*%
%ADD15C,1.450000*%
%ADD16C,2.000000*%
%ADD17R,2.000000X2.000000*%
%ADD18C,1.500000*%
%ADD19C,0.800000*%
%ADD20C,0.250000*%
%ADD21C,0.635000*%
%ADD22C,0.254000*%
G04 APERTURE END LIST*
D10*
X150495000Y-129032000D03*
X147955000Y-129032000D03*
X145415000Y-129032000D03*
X142875000Y-129032000D03*
X140335000Y-129032000D03*
D11*
X137795000Y-129032000D03*
D12*
X122555000Y-126365000D03*
D13*
X120015000Y-126365000D03*
D14*
X132390000Y-94647500D03*
X139390000Y-94647500D03*
D15*
X133390000Y-97347500D03*
X138390000Y-97347500D03*
D12*
X133350000Y-126365000D03*
D13*
X130810000Y-126365000D03*
D16*
X148670000Y-121920000D03*
D17*
X153670000Y-121920000D03*
D16*
X148670000Y-111125000D03*
D17*
X153670000Y-111125000D03*
D16*
X148670000Y-99695000D03*
D17*
X153670000Y-99695000D03*
D16*
X163750000Y-105410000D03*
D17*
X158750000Y-105410000D03*
D16*
X163750000Y-116840000D03*
D17*
X158750000Y-116840000D03*
D18*
X145000000Y-114000000D03*
X139702500Y-106000000D03*
X132000000Y-104000000D03*
D19*
X130175000Y-94615000D03*
X128905000Y-104775000D03*
X120650000Y-107315000D03*
X130810000Y-119380000D03*
X127515547Y-118256995D03*
X121285000Y-115570000D03*
D18*
X132842000Y-99568000D03*
X106680000Y-112776000D03*
X115062000Y-123190000D03*
D19*
X120650000Y-121920000D03*
X118618000Y-122428000D03*
X131000000Y-123000000D03*
D18*
X152000000Y-115000000D03*
X136000000Y-107000000D03*
X128000000Y-111000000D03*
D19*
X130167998Y-120737700D03*
X128270000Y-117475000D03*
D18*
X126365000Y-130175000D03*
X119380000Y-120015000D03*
D19*
X121920000Y-113030000D03*
X123825000Y-104775000D03*
X128905000Y-113665000D03*
X115062000Y-114046000D03*
D20*
X127635000Y-118376448D02*
X127515547Y-118256995D01*
D21*
X131000000Y-123000000D02*
X132000000Y-124000000D01*
X132000000Y-124000000D02*
X133000000Y-124000000D01*
X133350000Y-124350000D02*
X133350000Y-126365000D01*
X133000000Y-124000000D02*
X133350000Y-124350000D01*
X136000000Y-107000000D02*
X132000000Y-107000000D01*
X132000000Y-107000000D02*
X128000000Y-111000000D01*
D20*
X130167998Y-120737700D02*
X128905000Y-119474702D01*
X128905000Y-119474702D02*
X128905000Y-118110000D01*
X128905000Y-118110000D02*
X128270000Y-117475000D01*
D21*
X119380000Y-120015000D02*
X117475000Y-121920000D01*
X117475000Y-121920000D02*
X117475000Y-126365000D01*
D20*
X121920000Y-113030000D02*
X123825000Y-111125000D01*
X123825000Y-111125000D02*
X123825000Y-104775000D01*
X117475000Y-113775000D02*
X128795000Y-113775000D01*
X128795000Y-113775000D02*
X128905000Y-113665000D01*
X117475000Y-113775000D02*
X115333000Y-113775000D01*
X115333000Y-113775000D02*
X115062000Y-114046000D01*
D22*
G36*
X169873000Y-132873000D02*
G01*
X104127000Y-132873000D01*
X104127000Y-129779872D01*
X104765000Y-129779872D01*
X104765000Y-130220128D01*
X104850890Y-130651925D01*
X105019369Y-131058669D01*
X105263962Y-131424729D01*
X105575271Y-131736038D01*
X105941331Y-131980631D01*
X106348075Y-132149110D01*
X106779872Y-132235000D01*
X107220128Y-132235000D01*
X107651925Y-132149110D01*
X108058669Y-131980631D01*
X108424729Y-131736038D01*
X108736038Y-131424729D01*
X108980631Y-131058669D01*
X109149110Y-130651925D01*
X109235000Y-130220128D01*
X109235000Y-129882000D01*
X136306928Y-129882000D01*
X136319188Y-130006482D01*
X136355498Y-130126180D01*
X136414463Y-130236494D01*
X136493815Y-130333185D01*
X136590506Y-130412537D01*
X136700820Y-130471502D01*
X136820518Y-130507812D01*
X136945000Y-130520072D01*
X137509250Y-130517000D01*
X137668000Y-130358250D01*
X137668000Y-129159000D01*
X136468750Y-129159000D01*
X136310000Y-129317750D01*
X136306928Y-129882000D01*
X109235000Y-129882000D01*
X109235000Y-129779872D01*
X109149110Y-129348075D01*
X108980631Y-128941331D01*
X108736038Y-128575271D01*
X108424729Y-128263962D01*
X108302064Y-128182000D01*
X136306928Y-128182000D01*
X136310000Y-128746250D01*
X136468750Y-128905000D01*
X137668000Y-128905000D01*
X137668000Y-127705750D01*
X137922000Y-127705750D01*
X137922000Y-128905000D01*
X137942000Y-128905000D01*
X137942000Y-129159000D01*
X137922000Y-129159000D01*
X137922000Y-130358250D01*
X138080750Y-130517000D01*
X138645000Y-130520072D01*
X138769482Y-130507812D01*
X138889180Y-130471502D01*
X138999494Y-130412537D01*
X139096185Y-130333185D01*
X139175537Y-130236494D01*
X139234502Y-130126180D01*
X139255393Y-130057313D01*
X139279866Y-130087134D01*
X139505986Y-130272706D01*
X139763966Y-130410599D01*
X140043889Y-130495513D01*
X140262050Y-130517000D01*
X140407950Y-130517000D01*
X140626111Y-130495513D01*
X140906034Y-130410599D01*
X141164014Y-130272706D01*
X141390134Y-130087134D01*
X141575706Y-129861014D01*
X141605000Y-129806209D01*
X141634294Y-129861014D01*
X141819866Y-130087134D01*
X142045986Y-130272706D01*
X142303966Y-130410599D01*
X142583889Y-130495513D01*
X142802050Y-130517000D01*
X142947950Y-130517000D01*
X143166111Y-130495513D01*
X143446034Y-130410599D01*
X143704014Y-130272706D01*
X143930134Y-130087134D01*
X144115706Y-129861014D01*
X144145000Y-129806209D01*
X144174294Y-129861014D01*
X144359866Y-130087134D01*
X144585986Y-130272706D01*
X144843966Y-130410599D01*
X145123889Y-130495513D01*
X145342050Y-130517000D01*
X145487950Y-130517000D01*
X145706111Y-130495513D01*
X145986034Y-130410599D01*
X146244014Y-130272706D01*
X146470134Y-130087134D01*
X146655706Y-129861014D01*
X146685000Y-129806209D01*
X146714294Y-129861014D01*
X146899866Y-130087134D01*
X147125986Y-130272706D01*
X147383966Y-130410599D01*
X147663889Y-130495513D01*
X147882050Y-130517000D01*
X148027950Y-130517000D01*
X148246111Y-130495513D01*
X148526034Y-130410599D01*
X148784014Y-130272706D01*
X149010134Y-130087134D01*
X149195706Y-129861014D01*
X149225000Y-129806209D01*
X149254294Y-129861014D01*
X149439866Y-130087134D01*
X149665986Y-130272706D01*
X149923966Y-130410599D01*
X150203889Y-130495513D01*
X150422050Y-130517000D01*
X150567950Y-130517000D01*
X150786111Y-130495513D01*
X151066034Y-130410599D01*
X151324014Y-130272706D01*
X151550134Y-130087134D01*
X151735706Y-129861014D01*
X151779077Y-129779872D01*
X164765000Y-129779872D01*
X164765000Y-130220128D01*
X164850890Y-130651925D01*
X165019369Y-131058669D01*
X165263962Y-131424729D01*
X165575271Y-131736038D01*
X165941331Y-131980631D01*
X166348075Y-132149110D01*
X166779872Y-132235000D01*
X167220128Y-132235000D01*
X167651925Y-132149110D01*
X168058669Y-131980631D01*
X168424729Y-131736038D01*
X168736038Y-131424729D01*
X168980631Y-131058669D01*
X169149110Y-130651925D01*
X169235000Y-130220128D01*
X169235000Y-129779872D01*
X169149110Y-129348075D01*
X168980631Y-128941331D01*
X168736038Y-128575271D01*
X168424729Y-128263962D01*
X168058669Y-128019369D01*
X167651925Y-127850890D01*
X167220128Y-127765000D01*
X166779872Y-127765000D01*
X166348075Y-127850890D01*
X165941331Y-128019369D01*
X165575271Y-128263962D01*
X165263962Y-128575271D01*
X165019369Y-128941331D01*
X164850890Y-129348075D01*
X164765000Y-129779872D01*
X151779077Y-129779872D01*
X151873599Y-129603034D01*
X151958513Y-129323111D01*
X151987185Y-129032000D01*
X151958513Y-128740889D01*
X151873599Y-128460966D01*
X151735706Y-128202986D01*
X151550134Y-127976866D01*
X151324014Y-127791294D01*
X151066034Y-127653401D01*
X150786111Y-127568487D01*
X150567950Y-127547000D01*
X150422050Y-127547000D01*
X150203889Y-127568487D01*
X149923966Y-127653401D01*
X149665986Y-127791294D01*
X149439866Y-127976866D01*
X149254294Y-128202986D01*
X149225000Y-128257791D01*
X149195706Y-128202986D01*
X149010134Y-127976866D01*
X148784014Y-127791294D01*
X148526034Y-127653401D01*
X148246111Y-127568487D01*
X148027950Y-127547000D01*
X147882050Y-127547000D01*
X147663889Y-127568487D01*
X147383966Y-127653401D01*
X147125986Y-127791294D01*
X146899866Y-127976866D01*
X146714294Y-128202986D01*
X146685000Y-128257791D01*
X146655706Y-128202986D01*
X146470134Y-127976866D01*
X146244014Y-127791294D01*
X145986034Y-127653401D01*
X145706111Y-127568487D01*
X145487950Y-127547000D01*
X145342050Y-127547000D01*
X145123889Y-127568487D01*
X144843966Y-127653401D01*
X144585986Y-127791294D01*
X144359866Y-127976866D01*
X144174294Y-128202986D01*
X144145000Y-128257791D01*
X144115706Y-128202986D01*
X143930134Y-127976866D01*
X143704014Y-127791294D01*
X143446034Y-127653401D01*
X143166111Y-127568487D01*
X142947950Y-127547000D01*
X142802050Y-127547000D01*
X142583889Y-127568487D01*
X142303966Y-127653401D01*
X142045986Y-127791294D01*
X141819866Y-127976866D01*
X141634294Y-128202986D01*
X141605000Y-128257791D01*
X141575706Y-128202986D01*
X141390134Y-127976866D01*
X141164014Y-127791294D01*
X140906034Y-127653401D01*
X140626111Y-127568487D01*
X140407950Y-127547000D01*
X140262050Y-127547000D01*
X140043889Y-127568487D01*
X139763966Y-127653401D01*
X139505986Y-127791294D01*
X139279866Y-127976866D01*
X139255393Y-128006687D01*
X139234502Y-127937820D01*
X139175537Y-127827506D01*
X139096185Y-127730815D01*
X138999494Y-127651463D01*
X138889180Y-127592498D01*
X138769482Y-127556188D01*
X138645000Y-127543928D01*
X138080750Y-127547000D01*
X137922000Y-127705750D01*
X137668000Y-127705750D01*
X137509250Y-127547000D01*
X136945000Y-127543928D01*
X136820518Y-127556188D01*
X136700820Y-127592498D01*
X136590506Y-127651463D01*
X136493815Y-127730815D01*
X136414463Y-127827506D01*
X136355498Y-127937820D01*
X136319188Y-128057518D01*
X136306928Y-128182000D01*
X108302064Y-128182000D01*
X108058669Y-128019369D01*
X107651925Y-127850890D01*
X107220128Y-127765000D01*
X106779872Y-127765000D01*
X106348075Y-127850890D01*
X105941331Y-128019369D01*
X105575271Y-128263962D01*
X105263962Y-128575271D01*
X105019369Y-128941331D01*
X104850890Y-129348075D01*
X104765000Y-129779872D01*
X104127000Y-129779872D01*
X104127000Y-126127000D01*
X118476928Y-126127000D01*
X118476928Y-127265000D01*
X118489188Y-127389482D01*
X118525498Y-127509180D01*
X118584463Y-127619494D01*
X118663815Y-127716185D01*
X118760506Y-127795537D01*
X118870820Y-127854502D01*
X118990518Y-127890812D01*
X119115000Y-127903072D01*
X120915000Y-127903072D01*
X121039482Y-127890812D01*
X121159180Y-127854502D01*
X121269494Y-127795537D01*
X121366185Y-127716185D01*
X121445537Y-127619494D01*
X121504502Y-127509180D01*
X121510056Y-127490873D01*
X121576495Y-127557312D01*
X121827905Y-127725299D01*
X122107257Y-127841011D01*
X122403816Y-127900000D01*
X122706184Y-127900000D01*
X123002743Y-127841011D01*
X123282095Y-127725299D01*
X123533505Y-127557312D01*
X123747312Y-127343505D01*
X123915299Y-127092095D01*
X124031011Y-126812743D01*
X124090000Y-126516184D01*
X124090000Y-126213816D01*
X124072731Y-126127000D01*
X129271928Y-126127000D01*
X129271928Y-127265000D01*
X129284188Y-127389482D01*
X129320498Y-127509180D01*
X129379463Y-127619494D01*
X129458815Y-127716185D01*
X129555506Y-127795537D01*
X129665820Y-127854502D01*
X129785518Y-127890812D01*
X129910000Y-127903072D01*
X131710000Y-127903072D01*
X131834482Y-127890812D01*
X131954180Y-127854502D01*
X132064494Y-127795537D01*
X132161185Y-127716185D01*
X132240537Y-127619494D01*
X132299502Y-127509180D01*
X132302813Y-127498265D01*
X132349578Y-127545030D01*
X132465526Y-127429082D01*
X132549208Y-127683261D01*
X132821775Y-127814158D01*
X133114642Y-127889365D01*
X133416553Y-127905991D01*
X133715907Y-127863397D01*
X134001199Y-127763222D01*
X134150792Y-127683261D01*
X134234475Y-127429080D01*
X133350000Y-126544605D01*
X133335858Y-126558748D01*
X133156253Y-126379143D01*
X133170395Y-126365000D01*
X133156253Y-126350858D01*
X133335858Y-126171253D01*
X133350000Y-126185395D01*
X133364143Y-126171253D01*
X133543748Y-126350858D01*
X133529605Y-126365000D01*
X134414080Y-127249475D01*
X134668261Y-127165792D01*
X134799158Y-126893225D01*
X134874365Y-126600358D01*
X134890991Y-126298447D01*
X134866596Y-126127000D01*
X151000000Y-126127000D01*
X151024776Y-126124560D01*
X151048601Y-126117333D01*
X151070557Y-126105597D01*
X151089803Y-126089803D01*
X151105597Y-126070557D01*
X151117333Y-126048601D01*
X151124560Y-126024776D01*
X151127000Y-126000000D01*
X151127000Y-120920000D01*
X152031928Y-120920000D01*
X152031928Y-122920000D01*
X152044188Y-123044482D01*
X152080498Y-123164180D01*
X152139463Y-123274494D01*
X152218815Y-123371185D01*
X152315506Y-123450537D01*
X152425820Y-123509502D01*
X152545518Y-123545812D01*
X152670000Y-123558072D01*
X154670000Y-123558072D01*
X154794482Y-123545812D01*
X154914180Y-123509502D01*
X155024494Y-123450537D01*
X155121185Y-123371185D01*
X155200537Y-123274494D01*
X155259502Y-123164180D01*
X155295812Y-123044482D01*
X155308072Y-122920000D01*
X155308072Y-120920000D01*
X155295812Y-120795518D01*
X155259502Y-120675820D01*
X155200537Y-120565506D01*
X155121185Y-120468815D01*
X155024494Y-120389463D01*
X154914180Y-120330498D01*
X154794482Y-120294188D01*
X154670000Y-120281928D01*
X152670000Y-120281928D01*
X152545518Y-120294188D01*
X152425820Y-120330498D01*
X152315506Y-120389463D01*
X152218815Y-120468815D01*
X152139463Y-120565506D01*
X152080498Y-120675820D01*
X152044188Y-120795518D01*
X152031928Y-120920000D01*
X151127000Y-120920000D01*
X151127000Y-115840000D01*
X157111928Y-115840000D01*
X157111928Y-117840000D01*
X157124188Y-117964482D01*
X157160498Y-118084180D01*
X157219463Y-118194494D01*
X157298815Y-118291185D01*
X157395506Y-118370537D01*
X157505820Y-118429502D01*
X157625518Y-118465812D01*
X157750000Y-118478072D01*
X159750000Y-118478072D01*
X159874482Y-118465812D01*
X159994180Y-118429502D01*
X160104494Y-118370537D01*
X160201185Y-118291185D01*
X160280537Y-118194494D01*
X160339502Y-118084180D01*
X160375812Y-117964482D01*
X160388072Y-117840000D01*
X160388072Y-116678967D01*
X162115000Y-116678967D01*
X162115000Y-117001033D01*
X162177832Y-117316912D01*
X162301082Y-117614463D01*
X162480013Y-117882252D01*
X162707748Y-118109987D01*
X162975537Y-118288918D01*
X163273088Y-118412168D01*
X163588967Y-118475000D01*
X163911033Y-118475000D01*
X164226912Y-118412168D01*
X164524463Y-118288918D01*
X164792252Y-118109987D01*
X165019987Y-117882252D01*
X165198918Y-117614463D01*
X165322168Y-117316912D01*
X165385000Y-117001033D01*
X165385000Y-116678967D01*
X165322168Y-116363088D01*
X165198918Y-116065537D01*
X165019987Y-115797748D01*
X164792252Y-115570013D01*
X164524463Y-115391082D01*
X164226912Y-115267832D01*
X163911033Y-115205000D01*
X163588967Y-115205000D01*
X163273088Y-115267832D01*
X162975537Y-115391082D01*
X162707748Y-115570013D01*
X162480013Y-115797748D01*
X162301082Y-116065537D01*
X162177832Y-116363088D01*
X162115000Y-116678967D01*
X160388072Y-116678967D01*
X160388072Y-115840000D01*
X160375812Y-115715518D01*
X160339502Y-115595820D01*
X160280537Y-115485506D01*
X160201185Y-115388815D01*
X160104494Y-115309463D01*
X159994180Y-115250498D01*
X159874482Y-115214188D01*
X159750000Y-115201928D01*
X157750000Y-115201928D01*
X157625518Y-115214188D01*
X157505820Y-115250498D01*
X157395506Y-115309463D01*
X157298815Y-115388815D01*
X157219463Y-115485506D01*
X157160498Y-115595820D01*
X157124188Y-115715518D01*
X157111928Y-115840000D01*
X151127000Y-115840000D01*
X151127000Y-110125000D01*
X152031928Y-110125000D01*
X152031928Y-112125000D01*
X152044188Y-112249482D01*
X152080498Y-112369180D01*
X152139463Y-112479494D01*
X152218815Y-112576185D01*
X152315506Y-112655537D01*
X152425820Y-112714502D01*
X152545518Y-112750812D01*
X152670000Y-112763072D01*
X154670000Y-112763072D01*
X154794482Y-112750812D01*
X154914180Y-112714502D01*
X155024494Y-112655537D01*
X155121185Y-112576185D01*
X155200537Y-112479494D01*
X155259502Y-112369180D01*
X155295812Y-112249482D01*
X155308072Y-112125000D01*
X155308072Y-110125000D01*
X155295812Y-110000518D01*
X155259502Y-109880820D01*
X155200537Y-109770506D01*
X155121185Y-109673815D01*
X155024494Y-109594463D01*
X154914180Y-109535498D01*
X154794482Y-109499188D01*
X154670000Y-109486928D01*
X152670000Y-109486928D01*
X152545518Y-109499188D01*
X152425820Y-109535498D01*
X152315506Y-109594463D01*
X152218815Y-109673815D01*
X152139463Y-109770506D01*
X152080498Y-109880820D01*
X152044188Y-110000518D01*
X152031928Y-110125000D01*
X151127000Y-110125000D01*
X151127000Y-104410000D01*
X157111928Y-104410000D01*
X157111928Y-106410000D01*
X157124188Y-106534482D01*
X157160498Y-106654180D01*
X157219463Y-106764494D01*
X157298815Y-106861185D01*
X157395506Y-106940537D01*
X157505820Y-106999502D01*
X157625518Y-107035812D01*
X157750000Y-107048072D01*
X159750000Y-107048072D01*
X159874482Y-107035812D01*
X159994180Y-106999502D01*
X160104494Y-106940537D01*
X160201185Y-106861185D01*
X160280537Y-106764494D01*
X160339502Y-106654180D01*
X160375812Y-106534482D01*
X160388072Y-106410000D01*
X160388072Y-105248967D01*
X162115000Y-105248967D01*
X162115000Y-105571033D01*
X162177832Y-105886912D01*
X162301082Y-106184463D01*
X162480013Y-106452252D01*
X162707748Y-106679987D01*
X162975537Y-106858918D01*
X163273088Y-106982168D01*
X163588967Y-107045000D01*
X163911033Y-107045000D01*
X164226912Y-106982168D01*
X164524463Y-106858918D01*
X164792252Y-106679987D01*
X165019987Y-106452252D01*
X165198918Y-106184463D01*
X165322168Y-105886912D01*
X165385000Y-105571033D01*
X165385000Y-105248967D01*
X165322168Y-104933088D01*
X165198918Y-104635537D01*
X165019987Y-104367748D01*
X164792252Y-104140013D01*
X164524463Y-103961082D01*
X164226912Y-103837832D01*
X163911033Y-103775000D01*
X163588967Y-103775000D01*
X163273088Y-103837832D01*
X162975537Y-103961082D01*
X162707748Y-104140013D01*
X162480013Y-104367748D01*
X162301082Y-104635537D01*
X162177832Y-104933088D01*
X162115000Y-105248967D01*
X160388072Y-105248967D01*
X160388072Y-104410000D01*
X160375812Y-104285518D01*
X160339502Y-104165820D01*
X160280537Y-104055506D01*
X160201185Y-103958815D01*
X160104494Y-103879463D01*
X159994180Y-103820498D01*
X159874482Y-103784188D01*
X159750000Y-103771928D01*
X157750000Y-103771928D01*
X157625518Y-103784188D01*
X157505820Y-103820498D01*
X157395506Y-103879463D01*
X157298815Y-103958815D01*
X157219463Y-104055506D01*
X157160498Y-104165820D01*
X157124188Y-104285518D01*
X157111928Y-104410000D01*
X151127000Y-104410000D01*
X151127000Y-98695000D01*
X152031928Y-98695000D01*
X152031928Y-100695000D01*
X152044188Y-100819482D01*
X152080498Y-100939180D01*
X152139463Y-101049494D01*
X152218815Y-101146185D01*
X152315506Y-101225537D01*
X152425820Y-101284502D01*
X152545518Y-101320812D01*
X152670000Y-101333072D01*
X154670000Y-101333072D01*
X154794482Y-101320812D01*
X154914180Y-101284502D01*
X155024494Y-101225537D01*
X155121185Y-101146185D01*
X155200537Y-101049494D01*
X155259502Y-100939180D01*
X155295812Y-100819482D01*
X155308072Y-100695000D01*
X155308072Y-98695000D01*
X155295812Y-98570518D01*
X155259502Y-98450820D01*
X155200537Y-98340506D01*
X155121185Y-98243815D01*
X155024494Y-98164463D01*
X154914180Y-98105498D01*
X154794482Y-98069188D01*
X154670000Y-98056928D01*
X152670000Y-98056928D01*
X152545518Y-98069188D01*
X152425820Y-98105498D01*
X152315506Y-98164463D01*
X152218815Y-98243815D01*
X152139463Y-98340506D01*
X152080498Y-98450820D01*
X152044188Y-98570518D01*
X152031928Y-98695000D01*
X151127000Y-98695000D01*
X151127000Y-96779872D01*
X164765000Y-96779872D01*
X164765000Y-97220128D01*
X164850890Y-97651925D01*
X165019369Y-98058669D01*
X165263962Y-98424729D01*
X165575271Y-98736038D01*
X165941331Y-98980631D01*
X166348075Y-99149110D01*
X166779872Y-99235000D01*
X167220128Y-99235000D01*
X167651925Y-99149110D01*
X168058669Y-98980631D01*
X168424729Y-98736038D01*
X168736038Y-98424729D01*
X168980631Y-98058669D01*
X169149110Y-97651925D01*
X169235000Y-97220128D01*
X169235000Y-96779872D01*
X169149110Y-96348075D01*
X168980631Y-95941331D01*
X168736038Y-95575271D01*
X168424729Y-95263962D01*
X168058669Y-95019369D01*
X167651925Y-94850890D01*
X167220128Y-94765000D01*
X166779872Y-94765000D01*
X166348075Y-94850890D01*
X165941331Y-95019369D01*
X165575271Y-95263962D01*
X165263962Y-95575271D01*
X165019369Y-95941331D01*
X164850890Y-96348075D01*
X164765000Y-96779872D01*
X151127000Y-96779872D01*
X151127000Y-94127000D01*
X169873000Y-94127000D01*
X169873000Y-132873000D01*
X169873000Y-132873000D01*
G37*
X169873000Y-132873000D02*
X104127000Y-132873000D01*
X104127000Y-129779872D01*
X104765000Y-129779872D01*
X104765000Y-130220128D01*
X104850890Y-130651925D01*
X105019369Y-131058669D01*
X105263962Y-131424729D01*
X105575271Y-131736038D01*
X105941331Y-131980631D01*
X106348075Y-132149110D01*
X106779872Y-132235000D01*
X107220128Y-132235000D01*
X107651925Y-132149110D01*
X108058669Y-131980631D01*
X108424729Y-131736038D01*
X108736038Y-131424729D01*
X108980631Y-131058669D01*
X109149110Y-130651925D01*
X109235000Y-130220128D01*
X109235000Y-129882000D01*
X136306928Y-129882000D01*
X136319188Y-130006482D01*
X136355498Y-130126180D01*
X136414463Y-130236494D01*
X136493815Y-130333185D01*
X136590506Y-130412537D01*
X136700820Y-130471502D01*
X136820518Y-130507812D01*
X136945000Y-130520072D01*
X137509250Y-130517000D01*
X137668000Y-130358250D01*
X137668000Y-129159000D01*
X136468750Y-129159000D01*
X136310000Y-129317750D01*
X136306928Y-129882000D01*
X109235000Y-129882000D01*
X109235000Y-129779872D01*
X109149110Y-129348075D01*
X108980631Y-128941331D01*
X108736038Y-128575271D01*
X108424729Y-128263962D01*
X108302064Y-128182000D01*
X136306928Y-128182000D01*
X136310000Y-128746250D01*
X136468750Y-128905000D01*
X137668000Y-128905000D01*
X137668000Y-127705750D01*
X137922000Y-127705750D01*
X137922000Y-128905000D01*
X137942000Y-128905000D01*
X137942000Y-129159000D01*
X137922000Y-129159000D01*
X137922000Y-130358250D01*
X138080750Y-130517000D01*
X138645000Y-130520072D01*
X138769482Y-130507812D01*
X138889180Y-130471502D01*
X138999494Y-130412537D01*
X139096185Y-130333185D01*
X139175537Y-130236494D01*
X139234502Y-130126180D01*
X139255393Y-130057313D01*
X139279866Y-130087134D01*
X139505986Y-130272706D01*
X139763966Y-130410599D01*
X140043889Y-130495513D01*
X140262050Y-130517000D01*
X140407950Y-130517000D01*
X140626111Y-130495513D01*
X140906034Y-130410599D01*
X141164014Y-130272706D01*
X141390134Y-130087134D01*
X141575706Y-129861014D01*
X141605000Y-129806209D01*
X141634294Y-129861014D01*
X141819866Y-130087134D01*
X142045986Y-130272706D01*
X142303966Y-130410599D01*
X142583889Y-130495513D01*
X142802050Y-130517000D01*
X142947950Y-130517000D01*
X143166111Y-130495513D01*
X143446034Y-130410599D01*
X143704014Y-130272706D01*
X143930134Y-130087134D01*
X144115706Y-129861014D01*
X144145000Y-129806209D01*
X144174294Y-129861014D01*
X144359866Y-130087134D01*
X144585986Y-130272706D01*
X144843966Y-130410599D01*
X145123889Y-130495513D01*
X145342050Y-130517000D01*
X145487950Y-130517000D01*
X145706111Y-130495513D01*
X145986034Y-130410599D01*
X146244014Y-130272706D01*
X146470134Y-130087134D01*
X146655706Y-129861014D01*
X146685000Y-129806209D01*
X146714294Y-129861014D01*
X146899866Y-130087134D01*
X147125986Y-130272706D01*
X147383966Y-130410599D01*
X147663889Y-130495513D01*
X147882050Y-130517000D01*
X148027950Y-130517000D01*
X148246111Y-130495513D01*
X148526034Y-130410599D01*
X148784014Y-130272706D01*
X149010134Y-130087134D01*
X149195706Y-129861014D01*
X149225000Y-129806209D01*
X149254294Y-129861014D01*
X149439866Y-130087134D01*
X149665986Y-130272706D01*
X149923966Y-130410599D01*
X150203889Y-130495513D01*
X150422050Y-130517000D01*
X150567950Y-130517000D01*
X150786111Y-130495513D01*
X151066034Y-130410599D01*
X151324014Y-130272706D01*
X151550134Y-130087134D01*
X151735706Y-129861014D01*
X151779077Y-129779872D01*
X164765000Y-129779872D01*
X164765000Y-130220128D01*
X164850890Y-130651925D01*
X165019369Y-131058669D01*
X165263962Y-131424729D01*
X165575271Y-131736038D01*
X165941331Y-131980631D01*
X166348075Y-132149110D01*
X166779872Y-132235000D01*
X167220128Y-132235000D01*
X167651925Y-132149110D01*
X168058669Y-131980631D01*
X168424729Y-131736038D01*
X168736038Y-131424729D01*
X168980631Y-131058669D01*
X169149110Y-130651925D01*
X169235000Y-130220128D01*
X169235000Y-129779872D01*
X169149110Y-129348075D01*
X168980631Y-128941331D01*
X168736038Y-128575271D01*
X168424729Y-128263962D01*
X168058669Y-128019369D01*
X167651925Y-127850890D01*
X167220128Y-127765000D01*
X166779872Y-127765000D01*
X166348075Y-127850890D01*
X165941331Y-128019369D01*
X165575271Y-128263962D01*
X165263962Y-128575271D01*
X165019369Y-128941331D01*
X164850890Y-129348075D01*
X164765000Y-129779872D01*
X151779077Y-129779872D01*
X151873599Y-129603034D01*
X151958513Y-129323111D01*
X151987185Y-129032000D01*
X151958513Y-128740889D01*
X151873599Y-128460966D01*
X151735706Y-128202986D01*
X151550134Y-127976866D01*
X151324014Y-127791294D01*
X151066034Y-127653401D01*
X150786111Y-127568487D01*
X150567950Y-127547000D01*
X150422050Y-127547000D01*
X150203889Y-127568487D01*
X149923966Y-127653401D01*
X149665986Y-127791294D01*
X149439866Y-127976866D01*
X149254294Y-128202986D01*
X149225000Y-128257791D01*
X149195706Y-128202986D01*
X149010134Y-127976866D01*
X148784014Y-127791294D01*
X148526034Y-127653401D01*
X148246111Y-127568487D01*
X148027950Y-127547000D01*
X147882050Y-127547000D01*
X147663889Y-127568487D01*
X147383966Y-127653401D01*
X147125986Y-127791294D01*
X146899866Y-127976866D01*
X146714294Y-128202986D01*
X146685000Y-128257791D01*
X146655706Y-128202986D01*
X146470134Y-127976866D01*
X146244014Y-127791294D01*
X145986034Y-127653401D01*
X145706111Y-127568487D01*
X145487950Y-127547000D01*
X145342050Y-127547000D01*
X145123889Y-127568487D01*
X144843966Y-127653401D01*
X144585986Y-127791294D01*
X144359866Y-127976866D01*
X144174294Y-128202986D01*
X144145000Y-128257791D01*
X144115706Y-128202986D01*
X143930134Y-127976866D01*
X143704014Y-127791294D01*
X143446034Y-127653401D01*
X143166111Y-127568487D01*
X142947950Y-127547000D01*
X142802050Y-127547000D01*
X142583889Y-127568487D01*
X142303966Y-127653401D01*
X142045986Y-127791294D01*
X141819866Y-127976866D01*
X141634294Y-128202986D01*
X141605000Y-128257791D01*
X141575706Y-128202986D01*
X141390134Y-127976866D01*
X141164014Y-127791294D01*
X140906034Y-127653401D01*
X140626111Y-127568487D01*
X140407950Y-127547000D01*
X140262050Y-127547000D01*
X140043889Y-127568487D01*
X139763966Y-127653401D01*
X139505986Y-127791294D01*
X139279866Y-127976866D01*
X139255393Y-128006687D01*
X139234502Y-127937820D01*
X139175537Y-127827506D01*
X139096185Y-127730815D01*
X138999494Y-127651463D01*
X138889180Y-127592498D01*
X138769482Y-127556188D01*
X138645000Y-127543928D01*
X138080750Y-127547000D01*
X137922000Y-127705750D01*
X137668000Y-127705750D01*
X137509250Y-127547000D01*
X136945000Y-127543928D01*
X136820518Y-127556188D01*
X136700820Y-127592498D01*
X136590506Y-127651463D01*
X136493815Y-127730815D01*
X136414463Y-127827506D01*
X136355498Y-127937820D01*
X136319188Y-128057518D01*
X136306928Y-128182000D01*
X108302064Y-128182000D01*
X108058669Y-128019369D01*
X107651925Y-127850890D01*
X107220128Y-127765000D01*
X106779872Y-127765000D01*
X106348075Y-127850890D01*
X105941331Y-128019369D01*
X105575271Y-128263962D01*
X105263962Y-128575271D01*
X105019369Y-128941331D01*
X104850890Y-129348075D01*
X104765000Y-129779872D01*
X104127000Y-129779872D01*
X104127000Y-126127000D01*
X118476928Y-126127000D01*
X118476928Y-127265000D01*
X118489188Y-127389482D01*
X118525498Y-127509180D01*
X118584463Y-127619494D01*
X118663815Y-127716185D01*
X118760506Y-127795537D01*
X118870820Y-127854502D01*
X118990518Y-127890812D01*
X119115000Y-127903072D01*
X120915000Y-127903072D01*
X121039482Y-127890812D01*
X121159180Y-127854502D01*
X121269494Y-127795537D01*
X121366185Y-127716185D01*
X121445537Y-127619494D01*
X121504502Y-127509180D01*
X121510056Y-127490873D01*
X121576495Y-127557312D01*
X121827905Y-127725299D01*
X122107257Y-127841011D01*
X122403816Y-127900000D01*
X122706184Y-127900000D01*
X123002743Y-127841011D01*
X123282095Y-127725299D01*
X123533505Y-127557312D01*
X123747312Y-127343505D01*
X123915299Y-127092095D01*
X124031011Y-126812743D01*
X124090000Y-126516184D01*
X124090000Y-126213816D01*
X124072731Y-126127000D01*
X129271928Y-126127000D01*
X129271928Y-127265000D01*
X129284188Y-127389482D01*
X129320498Y-127509180D01*
X129379463Y-127619494D01*
X129458815Y-127716185D01*
X129555506Y-127795537D01*
X129665820Y-127854502D01*
X129785518Y-127890812D01*
X129910000Y-127903072D01*
X131710000Y-127903072D01*
X131834482Y-127890812D01*
X131954180Y-127854502D01*
X132064494Y-127795537D01*
X132161185Y-127716185D01*
X132240537Y-127619494D01*
X132299502Y-127509180D01*
X132302813Y-127498265D01*
X132349578Y-127545030D01*
X132465526Y-127429082D01*
X132549208Y-127683261D01*
X132821775Y-127814158D01*
X133114642Y-127889365D01*
X133416553Y-127905991D01*
X133715907Y-127863397D01*
X134001199Y-127763222D01*
X134150792Y-127683261D01*
X134234475Y-127429080D01*
X133350000Y-126544605D01*
X133335858Y-126558748D01*
X133156253Y-126379143D01*
X133170395Y-126365000D01*
X133156253Y-126350858D01*
X133335858Y-126171253D01*
X133350000Y-126185395D01*
X133364143Y-126171253D01*
X133543748Y-126350858D01*
X133529605Y-126365000D01*
X134414080Y-127249475D01*
X134668261Y-127165792D01*
X134799158Y-126893225D01*
X134874365Y-126600358D01*
X134890991Y-126298447D01*
X134866596Y-126127000D01*
X151000000Y-126127000D01*
X151024776Y-126124560D01*
X151048601Y-126117333D01*
X151070557Y-126105597D01*
X151089803Y-126089803D01*
X151105597Y-126070557D01*
X151117333Y-126048601D01*
X151124560Y-126024776D01*
X151127000Y-126000000D01*
X151127000Y-120920000D01*
X152031928Y-120920000D01*
X152031928Y-122920000D01*
X152044188Y-123044482D01*
X152080498Y-123164180D01*
X152139463Y-123274494D01*
X152218815Y-123371185D01*
X152315506Y-123450537D01*
X152425820Y-123509502D01*
X152545518Y-123545812D01*
X152670000Y-123558072D01*
X154670000Y-123558072D01*
X154794482Y-123545812D01*
X154914180Y-123509502D01*
X155024494Y-123450537D01*
X155121185Y-123371185D01*
X155200537Y-123274494D01*
X155259502Y-123164180D01*
X155295812Y-123044482D01*
X155308072Y-122920000D01*
X155308072Y-120920000D01*
X155295812Y-120795518D01*
X155259502Y-120675820D01*
X155200537Y-120565506D01*
X155121185Y-120468815D01*
X155024494Y-120389463D01*
X154914180Y-120330498D01*
X154794482Y-120294188D01*
X154670000Y-120281928D01*
X152670000Y-120281928D01*
X152545518Y-120294188D01*
X152425820Y-120330498D01*
X152315506Y-120389463D01*
X152218815Y-120468815D01*
X152139463Y-120565506D01*
X152080498Y-120675820D01*
X152044188Y-120795518D01*
X152031928Y-120920000D01*
X151127000Y-120920000D01*
X151127000Y-115840000D01*
X157111928Y-115840000D01*
X157111928Y-117840000D01*
X157124188Y-117964482D01*
X157160498Y-118084180D01*
X157219463Y-118194494D01*
X157298815Y-118291185D01*
X157395506Y-118370537D01*
X157505820Y-118429502D01*
X157625518Y-118465812D01*
X157750000Y-118478072D01*
X159750000Y-118478072D01*
X159874482Y-118465812D01*
X159994180Y-118429502D01*
X160104494Y-118370537D01*
X160201185Y-118291185D01*
X160280537Y-118194494D01*
X160339502Y-118084180D01*
X160375812Y-117964482D01*
X160388072Y-117840000D01*
X160388072Y-116678967D01*
X162115000Y-116678967D01*
X162115000Y-117001033D01*
X162177832Y-117316912D01*
X162301082Y-117614463D01*
X162480013Y-117882252D01*
X162707748Y-118109987D01*
X162975537Y-118288918D01*
X163273088Y-118412168D01*
X163588967Y-118475000D01*
X163911033Y-118475000D01*
X164226912Y-118412168D01*
X164524463Y-118288918D01*
X164792252Y-118109987D01*
X165019987Y-117882252D01*
X165198918Y-117614463D01*
X165322168Y-117316912D01*
X165385000Y-117001033D01*
X165385000Y-116678967D01*
X165322168Y-116363088D01*
X165198918Y-116065537D01*
X165019987Y-115797748D01*
X164792252Y-115570013D01*
X164524463Y-115391082D01*
X164226912Y-115267832D01*
X163911033Y-115205000D01*
X163588967Y-115205000D01*
X163273088Y-115267832D01*
X162975537Y-115391082D01*
X162707748Y-115570013D01*
X162480013Y-115797748D01*
X162301082Y-116065537D01*
X162177832Y-116363088D01*
X162115000Y-116678967D01*
X160388072Y-116678967D01*
X160388072Y-115840000D01*
X160375812Y-115715518D01*
X160339502Y-115595820D01*
X160280537Y-115485506D01*
X160201185Y-115388815D01*
X160104494Y-115309463D01*
X159994180Y-115250498D01*
X159874482Y-115214188D01*
X159750000Y-115201928D01*
X157750000Y-115201928D01*
X157625518Y-115214188D01*
X157505820Y-115250498D01*
X157395506Y-115309463D01*
X157298815Y-115388815D01*
X157219463Y-115485506D01*
X157160498Y-115595820D01*
X157124188Y-115715518D01*
X157111928Y-115840000D01*
X151127000Y-115840000D01*
X151127000Y-110125000D01*
X152031928Y-110125000D01*
X152031928Y-112125000D01*
X152044188Y-112249482D01*
X152080498Y-112369180D01*
X152139463Y-112479494D01*
X152218815Y-112576185D01*
X152315506Y-112655537D01*
X152425820Y-112714502D01*
X152545518Y-112750812D01*
X152670000Y-112763072D01*
X154670000Y-112763072D01*
X154794482Y-112750812D01*
X154914180Y-112714502D01*
X155024494Y-112655537D01*
X155121185Y-112576185D01*
X155200537Y-112479494D01*
X155259502Y-112369180D01*
X155295812Y-112249482D01*
X155308072Y-112125000D01*
X155308072Y-110125000D01*
X155295812Y-110000518D01*
X155259502Y-109880820D01*
X155200537Y-109770506D01*
X155121185Y-109673815D01*
X155024494Y-109594463D01*
X154914180Y-109535498D01*
X154794482Y-109499188D01*
X154670000Y-109486928D01*
X152670000Y-109486928D01*
X152545518Y-109499188D01*
X152425820Y-109535498D01*
X152315506Y-109594463D01*
X152218815Y-109673815D01*
X152139463Y-109770506D01*
X152080498Y-109880820D01*
X152044188Y-110000518D01*
X152031928Y-110125000D01*
X151127000Y-110125000D01*
X151127000Y-104410000D01*
X157111928Y-104410000D01*
X157111928Y-106410000D01*
X157124188Y-106534482D01*
X157160498Y-106654180D01*
X157219463Y-106764494D01*
X157298815Y-106861185D01*
X157395506Y-106940537D01*
X157505820Y-106999502D01*
X157625518Y-107035812D01*
X157750000Y-107048072D01*
X159750000Y-107048072D01*
X159874482Y-107035812D01*
X159994180Y-106999502D01*
X160104494Y-106940537D01*
X160201185Y-106861185D01*
X160280537Y-106764494D01*
X160339502Y-106654180D01*
X160375812Y-106534482D01*
X160388072Y-106410000D01*
X160388072Y-105248967D01*
X162115000Y-105248967D01*
X162115000Y-105571033D01*
X162177832Y-105886912D01*
X162301082Y-106184463D01*
X162480013Y-106452252D01*
X162707748Y-106679987D01*
X162975537Y-106858918D01*
X163273088Y-106982168D01*
X163588967Y-107045000D01*
X163911033Y-107045000D01*
X164226912Y-106982168D01*
X164524463Y-106858918D01*
X164792252Y-106679987D01*
X165019987Y-106452252D01*
X165198918Y-106184463D01*
X165322168Y-105886912D01*
X165385000Y-105571033D01*
X165385000Y-105248967D01*
X165322168Y-104933088D01*
X165198918Y-104635537D01*
X165019987Y-104367748D01*
X164792252Y-104140013D01*
X164524463Y-103961082D01*
X164226912Y-103837832D01*
X163911033Y-103775000D01*
X163588967Y-103775000D01*
X163273088Y-103837832D01*
X162975537Y-103961082D01*
X162707748Y-104140013D01*
X162480013Y-104367748D01*
X162301082Y-104635537D01*
X162177832Y-104933088D01*
X162115000Y-105248967D01*
X160388072Y-105248967D01*
X160388072Y-104410000D01*
X160375812Y-104285518D01*
X160339502Y-104165820D01*
X160280537Y-104055506D01*
X160201185Y-103958815D01*
X160104494Y-103879463D01*
X159994180Y-103820498D01*
X159874482Y-103784188D01*
X159750000Y-103771928D01*
X157750000Y-103771928D01*
X157625518Y-103784188D01*
X157505820Y-103820498D01*
X157395506Y-103879463D01*
X157298815Y-103958815D01*
X157219463Y-104055506D01*
X157160498Y-104165820D01*
X157124188Y-104285518D01*
X157111928Y-104410000D01*
X151127000Y-104410000D01*
X151127000Y-98695000D01*
X152031928Y-98695000D01*
X152031928Y-100695000D01*
X152044188Y-100819482D01*
X152080498Y-100939180D01*
X152139463Y-101049494D01*
X152218815Y-101146185D01*
X152315506Y-101225537D01*
X152425820Y-101284502D01*
X152545518Y-101320812D01*
X152670000Y-101333072D01*
X154670000Y-101333072D01*
X154794482Y-101320812D01*
X154914180Y-101284502D01*
X155024494Y-101225537D01*
X155121185Y-101146185D01*
X155200537Y-101049494D01*
X155259502Y-100939180D01*
X155295812Y-100819482D01*
X155308072Y-100695000D01*
X155308072Y-98695000D01*
X155295812Y-98570518D01*
X155259502Y-98450820D01*
X155200537Y-98340506D01*
X155121185Y-98243815D01*
X155024494Y-98164463D01*
X154914180Y-98105498D01*
X154794482Y-98069188D01*
X154670000Y-98056928D01*
X152670000Y-98056928D01*
X152545518Y-98069188D01*
X152425820Y-98105498D01*
X152315506Y-98164463D01*
X152218815Y-98243815D01*
X152139463Y-98340506D01*
X152080498Y-98450820D01*
X152044188Y-98570518D01*
X152031928Y-98695000D01*
X151127000Y-98695000D01*
X151127000Y-96779872D01*
X164765000Y-96779872D01*
X164765000Y-97220128D01*
X164850890Y-97651925D01*
X165019369Y-98058669D01*
X165263962Y-98424729D01*
X165575271Y-98736038D01*
X165941331Y-98980631D01*
X166348075Y-99149110D01*
X166779872Y-99235000D01*
X167220128Y-99235000D01*
X167651925Y-99149110D01*
X168058669Y-98980631D01*
X168424729Y-98736038D01*
X168736038Y-98424729D01*
X168980631Y-98058669D01*
X169149110Y-97651925D01*
X169235000Y-97220128D01*
X169235000Y-96779872D01*
X169149110Y-96348075D01*
X168980631Y-95941331D01*
X168736038Y-95575271D01*
X168424729Y-95263962D01*
X168058669Y-95019369D01*
X167651925Y-94850890D01*
X167220128Y-94765000D01*
X166779872Y-94765000D01*
X166348075Y-94850890D01*
X165941331Y-95019369D01*
X165575271Y-95263962D01*
X165263962Y-95575271D01*
X165019369Y-95941331D01*
X164850890Y-96348075D01*
X164765000Y-96779872D01*
X151127000Y-96779872D01*
X151127000Y-94127000D01*
X169873000Y-94127000D01*
X169873000Y-132873000D01*
G36*
X131155000Y-94170500D02*
G01*
X131155000Y-94520500D01*
X132263000Y-94520500D01*
X132263000Y-94500500D01*
X132517000Y-94500500D01*
X132517000Y-94520500D01*
X133625000Y-94520500D01*
X133625000Y-94170500D01*
X133616153Y-94127000D01*
X138163847Y-94127000D01*
X138155000Y-94170500D01*
X138155000Y-94520500D01*
X139263000Y-94520500D01*
X139263000Y-94500500D01*
X139517000Y-94500500D01*
X139517000Y-94520500D01*
X140625000Y-94520500D01*
X140625000Y-94170500D01*
X140616153Y-94127000D01*
X149873000Y-94127000D01*
X149873000Y-98763671D01*
X149805413Y-98739192D01*
X148849605Y-99695000D01*
X149805413Y-100650808D01*
X149873000Y-100626329D01*
X149873000Y-110193671D01*
X149805413Y-110169192D01*
X148849605Y-111125000D01*
X149805413Y-112080808D01*
X149873000Y-112056329D01*
X149873000Y-120988671D01*
X149805413Y-120964192D01*
X148849605Y-121920000D01*
X149805413Y-122875808D01*
X149873000Y-122851329D01*
X149873000Y-124873000D01*
X134302500Y-124873000D01*
X134302500Y-124396785D01*
X134307108Y-124350000D01*
X134288717Y-124163278D01*
X134234252Y-123983731D01*
X134198693Y-123917205D01*
X134145806Y-123818259D01*
X134026778Y-123673222D01*
X133990431Y-123643393D01*
X133706607Y-123359569D01*
X133676778Y-123323222D01*
X133531741Y-123204194D01*
X133366269Y-123115748D01*
X133186723Y-123061283D01*
X133127126Y-123055413D01*
X147714192Y-123055413D01*
X147809956Y-123319814D01*
X148099571Y-123460704D01*
X148411108Y-123542384D01*
X148732595Y-123561718D01*
X149051675Y-123517961D01*
X149356088Y-123412795D01*
X149530044Y-123319814D01*
X149625808Y-123055413D01*
X148670000Y-122099605D01*
X147714192Y-123055413D01*
X133127126Y-123055413D01*
X133046785Y-123047500D01*
X133000000Y-123042892D01*
X132953215Y-123047500D01*
X132394538Y-123047500D01*
X131959931Y-122612893D01*
X131917205Y-122509744D01*
X131803937Y-122340226D01*
X131659774Y-122196063D01*
X131490256Y-122082795D01*
X131301898Y-122004774D01*
X131190396Y-121982595D01*
X147028282Y-121982595D01*
X147072039Y-122301675D01*
X147177205Y-122606088D01*
X147270186Y-122780044D01*
X147534587Y-122875808D01*
X148490395Y-121920000D01*
X147534587Y-120964192D01*
X147270186Y-121059956D01*
X147129296Y-121349571D01*
X147047616Y-121661108D01*
X147028282Y-121982595D01*
X131190396Y-121982595D01*
X131101939Y-121965000D01*
X130898061Y-121965000D01*
X130698102Y-122004774D01*
X130509744Y-122082795D01*
X130340226Y-122196063D01*
X130196063Y-122340226D01*
X130082795Y-122509744D01*
X130004774Y-122698102D01*
X129965000Y-122898061D01*
X129965000Y-123101939D01*
X130004774Y-123301898D01*
X130082795Y-123490256D01*
X130196063Y-123659774D01*
X130340226Y-123803937D01*
X130509744Y-123917205D01*
X130612893Y-123959931D01*
X131293393Y-124640431D01*
X131323222Y-124676778D01*
X131468259Y-124795806D01*
X131526485Y-124826928D01*
X129910000Y-124826928D01*
X129785518Y-124839188D01*
X129674055Y-124873000D01*
X122922361Y-124873000D01*
X122706184Y-124830000D01*
X122403816Y-124830000D01*
X122187639Y-124873000D01*
X121150945Y-124873000D01*
X121039482Y-124839188D01*
X120915000Y-124826928D01*
X120300750Y-124830000D01*
X120257750Y-124873000D01*
X119772250Y-124873000D01*
X119729250Y-124830000D01*
X119115000Y-124826928D01*
X118990518Y-124839188D01*
X118879055Y-124873000D01*
X118427500Y-124873000D01*
X118427500Y-122314538D01*
X119342039Y-121400000D01*
X119516411Y-121400000D01*
X119783989Y-121346775D01*
X120036043Y-121242371D01*
X120262886Y-121090799D01*
X120455799Y-120897886D01*
X120607371Y-120671043D01*
X120711775Y-120418989D01*
X120765000Y-120151411D01*
X120765000Y-119878589D01*
X120711775Y-119611011D01*
X120607371Y-119358957D01*
X120455799Y-119132114D01*
X120262886Y-118939201D01*
X120036043Y-118787629D01*
X119783989Y-118683225D01*
X119516411Y-118630000D01*
X119243589Y-118630000D01*
X118976011Y-118683225D01*
X118723957Y-118787629D01*
X118497114Y-118939201D01*
X118304201Y-119132114D01*
X118152629Y-119358957D01*
X118048225Y-119611011D01*
X117995000Y-119878589D01*
X117995000Y-120052961D01*
X116834569Y-121213393D01*
X116798222Y-121243222D01*
X116679194Y-121388259D01*
X116590748Y-121553732D01*
X116558176Y-121661108D01*
X116536283Y-121733278D01*
X116517892Y-121920000D01*
X116522500Y-121966785D01*
X116522501Y-124873000D01*
X104127000Y-124873000D01*
X104127000Y-117373061D01*
X127235000Y-117373061D01*
X127235000Y-117576939D01*
X127274774Y-117776898D01*
X127352795Y-117965256D01*
X127466063Y-118134774D01*
X127610226Y-118278937D01*
X127779744Y-118392205D01*
X127968102Y-118470226D01*
X128145001Y-118505413D01*
X128145000Y-119437379D01*
X128141324Y-119474702D01*
X128145000Y-119512024D01*
X128145000Y-119512034D01*
X128155997Y-119623687D01*
X128179965Y-119702700D01*
X128199454Y-119766948D01*
X128270026Y-119898978D01*
X128298574Y-119933763D01*
X128364999Y-120014703D01*
X128394003Y-120038506D01*
X129132998Y-120777502D01*
X129132998Y-120839639D01*
X129172772Y-121039598D01*
X129250793Y-121227956D01*
X129364061Y-121397474D01*
X129508224Y-121541637D01*
X129677742Y-121654905D01*
X129866100Y-121732926D01*
X130066059Y-121772700D01*
X130269937Y-121772700D01*
X130469896Y-121732926D01*
X130658254Y-121654905D01*
X130827772Y-121541637D01*
X130971935Y-121397474D01*
X131085203Y-121227956D01*
X131163224Y-121039598D01*
X131202998Y-120839639D01*
X131202998Y-120784587D01*
X147714192Y-120784587D01*
X148670000Y-121740395D01*
X149625808Y-120784587D01*
X149530044Y-120520186D01*
X149240429Y-120379296D01*
X148928892Y-120297616D01*
X148607405Y-120278282D01*
X148288325Y-120322039D01*
X147983912Y-120427205D01*
X147809956Y-120520186D01*
X147714192Y-120784587D01*
X131202998Y-120784587D01*
X131202998Y-120635761D01*
X131163224Y-120435802D01*
X131085203Y-120247444D01*
X130971935Y-120077926D01*
X130827772Y-119933763D01*
X130658254Y-119820495D01*
X130469896Y-119742474D01*
X130269937Y-119702700D01*
X130207800Y-119702700D01*
X129665000Y-119159901D01*
X129665000Y-118147333D01*
X129668677Y-118110000D01*
X129654003Y-117961014D01*
X129610546Y-117817753D01*
X129539974Y-117685724D01*
X129468799Y-117598997D01*
X129445001Y-117569999D01*
X129416002Y-117546200D01*
X129305000Y-117435198D01*
X129305000Y-117373061D01*
X129265226Y-117173102D01*
X129187205Y-116984744D01*
X129073937Y-116815226D01*
X128929774Y-116671063D01*
X128760256Y-116557795D01*
X128571898Y-116479774D01*
X128371939Y-116440000D01*
X128168061Y-116440000D01*
X127968102Y-116479774D01*
X127779744Y-116557795D01*
X127610226Y-116671063D01*
X127466063Y-116815226D01*
X127352795Y-116984744D01*
X127274774Y-117173102D01*
X127235000Y-117373061D01*
X104127000Y-117373061D01*
X104127000Y-113944061D01*
X114027000Y-113944061D01*
X114027000Y-114147939D01*
X114066774Y-114347898D01*
X114144795Y-114536256D01*
X114258063Y-114705774D01*
X114402226Y-114849937D01*
X114571744Y-114963205D01*
X114760102Y-115041226D01*
X114960061Y-115081000D01*
X115163939Y-115081000D01*
X115363898Y-115041226D01*
X115552256Y-114963205D01*
X115721774Y-114849937D01*
X115865937Y-114705774D01*
X115979205Y-114536256D01*
X115979725Y-114535000D01*
X128344097Y-114535000D01*
X128414744Y-114582205D01*
X128603102Y-114660226D01*
X128803061Y-114700000D01*
X129006939Y-114700000D01*
X129206898Y-114660226D01*
X129395256Y-114582205D01*
X129564774Y-114468937D01*
X129708937Y-114324774D01*
X129822205Y-114155256D01*
X129900226Y-113966898D01*
X129940000Y-113766939D01*
X129940000Y-113563061D01*
X129900226Y-113363102D01*
X129822205Y-113174744D01*
X129708937Y-113005226D01*
X129564774Y-112861063D01*
X129395256Y-112747795D01*
X129206898Y-112669774D01*
X129006939Y-112630000D01*
X128803061Y-112630000D01*
X128603102Y-112669774D01*
X128414744Y-112747795D01*
X128245226Y-112861063D01*
X128101063Y-113005226D01*
X128094532Y-113015000D01*
X123009801Y-113015000D01*
X124336004Y-111688798D01*
X124365001Y-111665001D01*
X124459974Y-111549276D01*
X124530546Y-111417247D01*
X124574003Y-111273986D01*
X124585000Y-111162333D01*
X124585000Y-111162323D01*
X124588676Y-111125000D01*
X124585000Y-111087677D01*
X124585000Y-110863589D01*
X126615000Y-110863589D01*
X126615000Y-111136411D01*
X126668225Y-111403989D01*
X126772629Y-111656043D01*
X126924201Y-111882886D01*
X127117114Y-112075799D01*
X127343957Y-112227371D01*
X127596011Y-112331775D01*
X127863589Y-112385000D01*
X128136411Y-112385000D01*
X128403989Y-112331775D01*
X128576272Y-112260413D01*
X147714192Y-112260413D01*
X147809956Y-112524814D01*
X148099571Y-112665704D01*
X148411108Y-112747384D01*
X148732595Y-112766718D01*
X149051675Y-112722961D01*
X149356088Y-112617795D01*
X149530044Y-112524814D01*
X149625808Y-112260413D01*
X148670000Y-111304605D01*
X147714192Y-112260413D01*
X128576272Y-112260413D01*
X128656043Y-112227371D01*
X128882886Y-112075799D01*
X129075799Y-111882886D01*
X129227371Y-111656043D01*
X129331775Y-111403989D01*
X129374818Y-111187595D01*
X147028282Y-111187595D01*
X147072039Y-111506675D01*
X147177205Y-111811088D01*
X147270186Y-111985044D01*
X147534587Y-112080808D01*
X148490395Y-111125000D01*
X147534587Y-110169192D01*
X147270186Y-110264956D01*
X147129296Y-110554571D01*
X147047616Y-110866108D01*
X147028282Y-111187595D01*
X129374818Y-111187595D01*
X129385000Y-111136411D01*
X129385000Y-110962038D01*
X130357451Y-109989587D01*
X147714192Y-109989587D01*
X148670000Y-110945395D01*
X149625808Y-109989587D01*
X149530044Y-109725186D01*
X149240429Y-109584296D01*
X148928892Y-109502616D01*
X148607405Y-109483282D01*
X148288325Y-109527039D01*
X147983912Y-109632205D01*
X147809956Y-109725186D01*
X147714192Y-109989587D01*
X130357451Y-109989587D01*
X132394539Y-107952500D01*
X134993815Y-107952500D01*
X135117114Y-108075799D01*
X135343957Y-108227371D01*
X135596011Y-108331775D01*
X135863589Y-108385000D01*
X136136411Y-108385000D01*
X136403989Y-108331775D01*
X136656043Y-108227371D01*
X136882886Y-108075799D01*
X137075799Y-107882886D01*
X137227371Y-107656043D01*
X137331775Y-107403989D01*
X137385000Y-107136411D01*
X137385000Y-106863589D01*
X137331775Y-106596011D01*
X137227371Y-106343957D01*
X137075799Y-106117114D01*
X136882886Y-105924201D01*
X136656043Y-105772629D01*
X136403989Y-105668225D01*
X136136411Y-105615000D01*
X135863589Y-105615000D01*
X135596011Y-105668225D01*
X135343957Y-105772629D01*
X135117114Y-105924201D01*
X134993815Y-106047500D01*
X132046784Y-106047500D01*
X131999999Y-106042892D01*
X131813277Y-106061283D01*
X131633731Y-106115748D01*
X131468259Y-106204194D01*
X131323222Y-106323222D01*
X131293397Y-106359564D01*
X128037962Y-109615000D01*
X127863589Y-109615000D01*
X127596011Y-109668225D01*
X127343957Y-109772629D01*
X127117114Y-109924201D01*
X126924201Y-110117114D01*
X126772629Y-110343957D01*
X126668225Y-110596011D01*
X126615000Y-110863589D01*
X124585000Y-110863589D01*
X124585000Y-105478711D01*
X124628937Y-105434774D01*
X124742205Y-105265256D01*
X124820226Y-105076898D01*
X124860000Y-104876939D01*
X124860000Y-104673061D01*
X124820226Y-104473102D01*
X124742205Y-104284744D01*
X124628937Y-104115226D01*
X124484774Y-103971063D01*
X124315256Y-103857795D01*
X124126898Y-103779774D01*
X123926939Y-103740000D01*
X123723061Y-103740000D01*
X123523102Y-103779774D01*
X123334744Y-103857795D01*
X123165226Y-103971063D01*
X123021063Y-104115226D01*
X122907795Y-104284744D01*
X122829774Y-104473102D01*
X122790000Y-104673061D01*
X122790000Y-104876939D01*
X122829774Y-105076898D01*
X122907795Y-105265256D01*
X123021063Y-105434774D01*
X123065001Y-105478712D01*
X123065000Y-110810198D01*
X121880199Y-111995000D01*
X121818061Y-111995000D01*
X121618102Y-112034774D01*
X121429744Y-112112795D01*
X121260226Y-112226063D01*
X121116063Y-112370226D01*
X121002795Y-112539744D01*
X120924774Y-112728102D01*
X120885000Y-112928061D01*
X120885000Y-113015000D01*
X115370323Y-113015000D01*
X115333000Y-113011324D01*
X115295677Y-113015000D01*
X115295667Y-113015000D01*
X115221014Y-113022353D01*
X115163939Y-113011000D01*
X114960061Y-113011000D01*
X114760102Y-113050774D01*
X114571744Y-113128795D01*
X114402226Y-113242063D01*
X114258063Y-113386226D01*
X114144795Y-113555744D01*
X114066774Y-113744102D01*
X114027000Y-113944061D01*
X104127000Y-113944061D01*
X104127000Y-100830413D01*
X147714192Y-100830413D01*
X147809956Y-101094814D01*
X148099571Y-101235704D01*
X148411108Y-101317384D01*
X148732595Y-101336718D01*
X149051675Y-101292961D01*
X149356088Y-101187795D01*
X149530044Y-101094814D01*
X149625808Y-100830413D01*
X148670000Y-99874605D01*
X147714192Y-100830413D01*
X104127000Y-100830413D01*
X104127000Y-99757595D01*
X147028282Y-99757595D01*
X147072039Y-100076675D01*
X147177205Y-100381088D01*
X147270186Y-100555044D01*
X147534587Y-100650808D01*
X148490395Y-99695000D01*
X147534587Y-98739192D01*
X147270186Y-98834956D01*
X147129296Y-99124571D01*
X147047616Y-99436108D01*
X147028282Y-99757595D01*
X104127000Y-99757595D01*
X104127000Y-96779872D01*
X104765000Y-96779872D01*
X104765000Y-97220128D01*
X104850890Y-97651925D01*
X105019369Y-98058669D01*
X105263962Y-98424729D01*
X105575271Y-98736038D01*
X105941331Y-98980631D01*
X106348075Y-99149110D01*
X106779872Y-99235000D01*
X107220128Y-99235000D01*
X107651925Y-99149110D01*
X108058669Y-98980631D01*
X108424729Y-98736038D01*
X108736038Y-98424729D01*
X108828310Y-98286633D01*
X132630472Y-98286633D01*
X132692965Y-98522950D01*
X132935678Y-98636350D01*
X133195849Y-98700219D01*
X133463482Y-98712104D01*
X133728291Y-98671548D01*
X133980100Y-98580109D01*
X134087035Y-98522950D01*
X134149528Y-98286633D01*
X137630472Y-98286633D01*
X137692965Y-98522950D01*
X137935678Y-98636350D01*
X138195849Y-98700219D01*
X138463482Y-98712104D01*
X138728291Y-98671548D01*
X138980100Y-98580109D01*
X139018493Y-98559587D01*
X147714192Y-98559587D01*
X148670000Y-99515395D01*
X149625808Y-98559587D01*
X149530044Y-98295186D01*
X149240429Y-98154296D01*
X148928892Y-98072616D01*
X148607405Y-98053282D01*
X148288325Y-98097039D01*
X147983912Y-98202205D01*
X147809956Y-98295186D01*
X147714192Y-98559587D01*
X139018493Y-98559587D01*
X139087035Y-98522950D01*
X139149528Y-98286633D01*
X138390000Y-97527105D01*
X137630472Y-98286633D01*
X134149528Y-98286633D01*
X133390000Y-97527105D01*
X132630472Y-98286633D01*
X108828310Y-98286633D01*
X108980631Y-98058669D01*
X109149110Y-97651925D01*
X109195047Y-97420982D01*
X132025396Y-97420982D01*
X132065952Y-97685791D01*
X132157391Y-97937600D01*
X132214550Y-98044535D01*
X132450867Y-98107028D01*
X133210395Y-97347500D01*
X133569605Y-97347500D01*
X134329133Y-98107028D01*
X134565450Y-98044535D01*
X134678850Y-97801822D01*
X134742719Y-97541651D01*
X134748077Y-97420982D01*
X137025396Y-97420982D01*
X137065952Y-97685791D01*
X137157391Y-97937600D01*
X137214550Y-98044535D01*
X137450867Y-98107028D01*
X138210395Y-97347500D01*
X138569605Y-97347500D01*
X139329133Y-98107028D01*
X139565450Y-98044535D01*
X139678850Y-97801822D01*
X139742719Y-97541651D01*
X139754604Y-97274018D01*
X139714048Y-97009209D01*
X139622609Y-96757400D01*
X139565450Y-96650465D01*
X139329133Y-96587972D01*
X138569605Y-97347500D01*
X138210395Y-97347500D01*
X137450867Y-96587972D01*
X137214550Y-96650465D01*
X137101150Y-96893178D01*
X137037281Y-97153349D01*
X137025396Y-97420982D01*
X134748077Y-97420982D01*
X134754604Y-97274018D01*
X134714048Y-97009209D01*
X134622609Y-96757400D01*
X134565450Y-96650465D01*
X134329133Y-96587972D01*
X133569605Y-97347500D01*
X133210395Y-97347500D01*
X132450867Y-96587972D01*
X132214550Y-96650465D01*
X132101150Y-96893178D01*
X132037281Y-97153349D01*
X132025396Y-97420982D01*
X109195047Y-97420982D01*
X109235000Y-97220128D01*
X109235000Y-96779872D01*
X109149110Y-96348075D01*
X108980631Y-95941331D01*
X108736038Y-95575271D01*
X108424729Y-95263962D01*
X108058669Y-95019369D01*
X107651925Y-94850890D01*
X107267888Y-94774500D01*
X131155000Y-94774500D01*
X131155000Y-95124500D01*
X131203507Y-95362996D01*
X131297610Y-95587446D01*
X131433693Y-95789225D01*
X131606526Y-95960578D01*
X131809467Y-96094921D01*
X132034718Y-96187091D01*
X132072391Y-96190962D01*
X132263000Y-96066231D01*
X132263000Y-94774500D01*
X132517000Y-94774500D01*
X132517000Y-96066231D01*
X132690862Y-96180003D01*
X132630472Y-96408367D01*
X133390000Y-97167895D01*
X134149528Y-96408367D01*
X137630472Y-96408367D01*
X138390000Y-97167895D01*
X139149528Y-96408367D01*
X139089138Y-96180003D01*
X139263000Y-96066231D01*
X139263000Y-94774500D01*
X139517000Y-94774500D01*
X139517000Y-96066231D01*
X139707609Y-96190962D01*
X139745282Y-96187091D01*
X139970533Y-96094921D01*
X140173474Y-95960578D01*
X140346307Y-95789225D01*
X140482390Y-95587446D01*
X140576493Y-95362996D01*
X140625000Y-95124500D01*
X140625000Y-94774500D01*
X139517000Y-94774500D01*
X139263000Y-94774500D01*
X138155000Y-94774500D01*
X138155000Y-95124500D01*
X138203507Y-95362996D01*
X138297610Y-95587446D01*
X138433693Y-95789225D01*
X138606526Y-95960578D01*
X138701836Y-96023671D01*
X138584151Y-95994781D01*
X138316518Y-95982896D01*
X138051709Y-96023452D01*
X137799900Y-96114891D01*
X137692965Y-96172050D01*
X137630472Y-96408367D01*
X134149528Y-96408367D01*
X134087035Y-96172050D01*
X133844322Y-96058650D01*
X133584151Y-95994781D01*
X133316518Y-95982896D01*
X133086558Y-96018115D01*
X133173474Y-95960578D01*
X133346307Y-95789225D01*
X133482390Y-95587446D01*
X133576493Y-95362996D01*
X133625000Y-95124500D01*
X133625000Y-94774500D01*
X132517000Y-94774500D01*
X132263000Y-94774500D01*
X131155000Y-94774500D01*
X107267888Y-94774500D01*
X107220128Y-94765000D01*
X106779872Y-94765000D01*
X106348075Y-94850890D01*
X105941331Y-95019369D01*
X105575271Y-95263962D01*
X105263962Y-95575271D01*
X105019369Y-95941331D01*
X104850890Y-96348075D01*
X104765000Y-96779872D01*
X104127000Y-96779872D01*
X104127000Y-94127000D01*
X131163847Y-94127000D01*
X131155000Y-94170500D01*
X131155000Y-94170500D01*
G37*
X131155000Y-94170500D02*
X131155000Y-94520500D01*
X132263000Y-94520500D01*
X132263000Y-94500500D01*
X132517000Y-94500500D01*
X132517000Y-94520500D01*
X133625000Y-94520500D01*
X133625000Y-94170500D01*
X133616153Y-94127000D01*
X138163847Y-94127000D01*
X138155000Y-94170500D01*
X138155000Y-94520500D01*
X139263000Y-94520500D01*
X139263000Y-94500500D01*
X139517000Y-94500500D01*
X139517000Y-94520500D01*
X140625000Y-94520500D01*
X140625000Y-94170500D01*
X140616153Y-94127000D01*
X149873000Y-94127000D01*
X149873000Y-98763671D01*
X149805413Y-98739192D01*
X148849605Y-99695000D01*
X149805413Y-100650808D01*
X149873000Y-100626329D01*
X149873000Y-110193671D01*
X149805413Y-110169192D01*
X148849605Y-111125000D01*
X149805413Y-112080808D01*
X149873000Y-112056329D01*
X149873000Y-120988671D01*
X149805413Y-120964192D01*
X148849605Y-121920000D01*
X149805413Y-122875808D01*
X149873000Y-122851329D01*
X149873000Y-124873000D01*
X134302500Y-124873000D01*
X134302500Y-124396785D01*
X134307108Y-124350000D01*
X134288717Y-124163278D01*
X134234252Y-123983731D01*
X134198693Y-123917205D01*
X134145806Y-123818259D01*
X134026778Y-123673222D01*
X133990431Y-123643393D01*
X133706607Y-123359569D01*
X133676778Y-123323222D01*
X133531741Y-123204194D01*
X133366269Y-123115748D01*
X133186723Y-123061283D01*
X133127126Y-123055413D01*
X147714192Y-123055413D01*
X147809956Y-123319814D01*
X148099571Y-123460704D01*
X148411108Y-123542384D01*
X148732595Y-123561718D01*
X149051675Y-123517961D01*
X149356088Y-123412795D01*
X149530044Y-123319814D01*
X149625808Y-123055413D01*
X148670000Y-122099605D01*
X147714192Y-123055413D01*
X133127126Y-123055413D01*
X133046785Y-123047500D01*
X133000000Y-123042892D01*
X132953215Y-123047500D01*
X132394538Y-123047500D01*
X131959931Y-122612893D01*
X131917205Y-122509744D01*
X131803937Y-122340226D01*
X131659774Y-122196063D01*
X131490256Y-122082795D01*
X131301898Y-122004774D01*
X131190396Y-121982595D01*
X147028282Y-121982595D01*
X147072039Y-122301675D01*
X147177205Y-122606088D01*
X147270186Y-122780044D01*
X147534587Y-122875808D01*
X148490395Y-121920000D01*
X147534587Y-120964192D01*
X147270186Y-121059956D01*
X147129296Y-121349571D01*
X147047616Y-121661108D01*
X147028282Y-121982595D01*
X131190396Y-121982595D01*
X131101939Y-121965000D01*
X130898061Y-121965000D01*
X130698102Y-122004774D01*
X130509744Y-122082795D01*
X130340226Y-122196063D01*
X130196063Y-122340226D01*
X130082795Y-122509744D01*
X130004774Y-122698102D01*
X129965000Y-122898061D01*
X129965000Y-123101939D01*
X130004774Y-123301898D01*
X130082795Y-123490256D01*
X130196063Y-123659774D01*
X130340226Y-123803937D01*
X130509744Y-123917205D01*
X130612893Y-123959931D01*
X131293393Y-124640431D01*
X131323222Y-124676778D01*
X131468259Y-124795806D01*
X131526485Y-124826928D01*
X129910000Y-124826928D01*
X129785518Y-124839188D01*
X129674055Y-124873000D01*
X122922361Y-124873000D01*
X122706184Y-124830000D01*
X122403816Y-124830000D01*
X122187639Y-124873000D01*
X121150945Y-124873000D01*
X121039482Y-124839188D01*
X120915000Y-124826928D01*
X120300750Y-124830000D01*
X120257750Y-124873000D01*
X119772250Y-124873000D01*
X119729250Y-124830000D01*
X119115000Y-124826928D01*
X118990518Y-124839188D01*
X118879055Y-124873000D01*
X118427500Y-124873000D01*
X118427500Y-122314538D01*
X119342039Y-121400000D01*
X119516411Y-121400000D01*
X119783989Y-121346775D01*
X120036043Y-121242371D01*
X120262886Y-121090799D01*
X120455799Y-120897886D01*
X120607371Y-120671043D01*
X120711775Y-120418989D01*
X120765000Y-120151411D01*
X120765000Y-119878589D01*
X120711775Y-119611011D01*
X120607371Y-119358957D01*
X120455799Y-119132114D01*
X120262886Y-118939201D01*
X120036043Y-118787629D01*
X119783989Y-118683225D01*
X119516411Y-118630000D01*
X119243589Y-118630000D01*
X118976011Y-118683225D01*
X118723957Y-118787629D01*
X118497114Y-118939201D01*
X118304201Y-119132114D01*
X118152629Y-119358957D01*
X118048225Y-119611011D01*
X117995000Y-119878589D01*
X117995000Y-120052961D01*
X116834569Y-121213393D01*
X116798222Y-121243222D01*
X116679194Y-121388259D01*
X116590748Y-121553732D01*
X116558176Y-121661108D01*
X116536283Y-121733278D01*
X116517892Y-121920000D01*
X116522500Y-121966785D01*
X116522501Y-124873000D01*
X104127000Y-124873000D01*
X104127000Y-117373061D01*
X127235000Y-117373061D01*
X127235000Y-117576939D01*
X127274774Y-117776898D01*
X127352795Y-117965256D01*
X127466063Y-118134774D01*
X127610226Y-118278937D01*
X127779744Y-118392205D01*
X127968102Y-118470226D01*
X128145001Y-118505413D01*
X128145000Y-119437379D01*
X128141324Y-119474702D01*
X128145000Y-119512024D01*
X128145000Y-119512034D01*
X128155997Y-119623687D01*
X128179965Y-119702700D01*
X128199454Y-119766948D01*
X128270026Y-119898978D01*
X128298574Y-119933763D01*
X128364999Y-120014703D01*
X128394003Y-120038506D01*
X129132998Y-120777502D01*
X129132998Y-120839639D01*
X129172772Y-121039598D01*
X129250793Y-121227956D01*
X129364061Y-121397474D01*
X129508224Y-121541637D01*
X129677742Y-121654905D01*
X129866100Y-121732926D01*
X130066059Y-121772700D01*
X130269937Y-121772700D01*
X130469896Y-121732926D01*
X130658254Y-121654905D01*
X130827772Y-121541637D01*
X130971935Y-121397474D01*
X131085203Y-121227956D01*
X131163224Y-121039598D01*
X131202998Y-120839639D01*
X131202998Y-120784587D01*
X147714192Y-120784587D01*
X148670000Y-121740395D01*
X149625808Y-120784587D01*
X149530044Y-120520186D01*
X149240429Y-120379296D01*
X148928892Y-120297616D01*
X148607405Y-120278282D01*
X148288325Y-120322039D01*
X147983912Y-120427205D01*
X147809956Y-120520186D01*
X147714192Y-120784587D01*
X131202998Y-120784587D01*
X131202998Y-120635761D01*
X131163224Y-120435802D01*
X131085203Y-120247444D01*
X130971935Y-120077926D01*
X130827772Y-119933763D01*
X130658254Y-119820495D01*
X130469896Y-119742474D01*
X130269937Y-119702700D01*
X130207800Y-119702700D01*
X129665000Y-119159901D01*
X129665000Y-118147333D01*
X129668677Y-118110000D01*
X129654003Y-117961014D01*
X129610546Y-117817753D01*
X129539974Y-117685724D01*
X129468799Y-117598997D01*
X129445001Y-117569999D01*
X129416002Y-117546200D01*
X129305000Y-117435198D01*
X129305000Y-117373061D01*
X129265226Y-117173102D01*
X129187205Y-116984744D01*
X129073937Y-116815226D01*
X128929774Y-116671063D01*
X128760256Y-116557795D01*
X128571898Y-116479774D01*
X128371939Y-116440000D01*
X128168061Y-116440000D01*
X127968102Y-116479774D01*
X127779744Y-116557795D01*
X127610226Y-116671063D01*
X127466063Y-116815226D01*
X127352795Y-116984744D01*
X127274774Y-117173102D01*
X127235000Y-117373061D01*
X104127000Y-117373061D01*
X104127000Y-113944061D01*
X114027000Y-113944061D01*
X114027000Y-114147939D01*
X114066774Y-114347898D01*
X114144795Y-114536256D01*
X114258063Y-114705774D01*
X114402226Y-114849937D01*
X114571744Y-114963205D01*
X114760102Y-115041226D01*
X114960061Y-115081000D01*
X115163939Y-115081000D01*
X115363898Y-115041226D01*
X115552256Y-114963205D01*
X115721774Y-114849937D01*
X115865937Y-114705774D01*
X115979205Y-114536256D01*
X115979725Y-114535000D01*
X128344097Y-114535000D01*
X128414744Y-114582205D01*
X128603102Y-114660226D01*
X128803061Y-114700000D01*
X129006939Y-114700000D01*
X129206898Y-114660226D01*
X129395256Y-114582205D01*
X129564774Y-114468937D01*
X129708937Y-114324774D01*
X129822205Y-114155256D01*
X129900226Y-113966898D01*
X129940000Y-113766939D01*
X129940000Y-113563061D01*
X129900226Y-113363102D01*
X129822205Y-113174744D01*
X129708937Y-113005226D01*
X129564774Y-112861063D01*
X129395256Y-112747795D01*
X129206898Y-112669774D01*
X129006939Y-112630000D01*
X128803061Y-112630000D01*
X128603102Y-112669774D01*
X128414744Y-112747795D01*
X128245226Y-112861063D01*
X128101063Y-113005226D01*
X128094532Y-113015000D01*
X123009801Y-113015000D01*
X124336004Y-111688798D01*
X124365001Y-111665001D01*
X124459974Y-111549276D01*
X124530546Y-111417247D01*
X124574003Y-111273986D01*
X124585000Y-111162333D01*
X124585000Y-111162323D01*
X124588676Y-111125000D01*
X124585000Y-111087677D01*
X124585000Y-110863589D01*
X126615000Y-110863589D01*
X126615000Y-111136411D01*
X126668225Y-111403989D01*
X126772629Y-111656043D01*
X126924201Y-111882886D01*
X127117114Y-112075799D01*
X127343957Y-112227371D01*
X127596011Y-112331775D01*
X127863589Y-112385000D01*
X128136411Y-112385000D01*
X128403989Y-112331775D01*
X128576272Y-112260413D01*
X147714192Y-112260413D01*
X147809956Y-112524814D01*
X148099571Y-112665704D01*
X148411108Y-112747384D01*
X148732595Y-112766718D01*
X149051675Y-112722961D01*
X149356088Y-112617795D01*
X149530044Y-112524814D01*
X149625808Y-112260413D01*
X148670000Y-111304605D01*
X147714192Y-112260413D01*
X128576272Y-112260413D01*
X128656043Y-112227371D01*
X128882886Y-112075799D01*
X129075799Y-111882886D01*
X129227371Y-111656043D01*
X129331775Y-111403989D01*
X129374818Y-111187595D01*
X147028282Y-111187595D01*
X147072039Y-111506675D01*
X147177205Y-111811088D01*
X147270186Y-111985044D01*
X147534587Y-112080808D01*
X148490395Y-111125000D01*
X147534587Y-110169192D01*
X147270186Y-110264956D01*
X147129296Y-110554571D01*
X147047616Y-110866108D01*
X147028282Y-111187595D01*
X129374818Y-111187595D01*
X129385000Y-111136411D01*
X129385000Y-110962038D01*
X130357451Y-109989587D01*
X147714192Y-109989587D01*
X148670000Y-110945395D01*
X149625808Y-109989587D01*
X149530044Y-109725186D01*
X149240429Y-109584296D01*
X148928892Y-109502616D01*
X148607405Y-109483282D01*
X148288325Y-109527039D01*
X147983912Y-109632205D01*
X147809956Y-109725186D01*
X147714192Y-109989587D01*
X130357451Y-109989587D01*
X132394539Y-107952500D01*
X134993815Y-107952500D01*
X135117114Y-108075799D01*
X135343957Y-108227371D01*
X135596011Y-108331775D01*
X135863589Y-108385000D01*
X136136411Y-108385000D01*
X136403989Y-108331775D01*
X136656043Y-108227371D01*
X136882886Y-108075799D01*
X137075799Y-107882886D01*
X137227371Y-107656043D01*
X137331775Y-107403989D01*
X137385000Y-107136411D01*
X137385000Y-106863589D01*
X137331775Y-106596011D01*
X137227371Y-106343957D01*
X137075799Y-106117114D01*
X136882886Y-105924201D01*
X136656043Y-105772629D01*
X136403989Y-105668225D01*
X136136411Y-105615000D01*
X135863589Y-105615000D01*
X135596011Y-105668225D01*
X135343957Y-105772629D01*
X135117114Y-105924201D01*
X134993815Y-106047500D01*
X132046784Y-106047500D01*
X131999999Y-106042892D01*
X131813277Y-106061283D01*
X131633731Y-106115748D01*
X131468259Y-106204194D01*
X131323222Y-106323222D01*
X131293397Y-106359564D01*
X128037962Y-109615000D01*
X127863589Y-109615000D01*
X127596011Y-109668225D01*
X127343957Y-109772629D01*
X127117114Y-109924201D01*
X126924201Y-110117114D01*
X126772629Y-110343957D01*
X126668225Y-110596011D01*
X126615000Y-110863589D01*
X124585000Y-110863589D01*
X124585000Y-105478711D01*
X124628937Y-105434774D01*
X124742205Y-105265256D01*
X124820226Y-105076898D01*
X124860000Y-104876939D01*
X124860000Y-104673061D01*
X124820226Y-104473102D01*
X124742205Y-104284744D01*
X124628937Y-104115226D01*
X124484774Y-103971063D01*
X124315256Y-103857795D01*
X124126898Y-103779774D01*
X123926939Y-103740000D01*
X123723061Y-103740000D01*
X123523102Y-103779774D01*
X123334744Y-103857795D01*
X123165226Y-103971063D01*
X123021063Y-104115226D01*
X122907795Y-104284744D01*
X122829774Y-104473102D01*
X122790000Y-104673061D01*
X122790000Y-104876939D01*
X122829774Y-105076898D01*
X122907795Y-105265256D01*
X123021063Y-105434774D01*
X123065001Y-105478712D01*
X123065000Y-110810198D01*
X121880199Y-111995000D01*
X121818061Y-111995000D01*
X121618102Y-112034774D01*
X121429744Y-112112795D01*
X121260226Y-112226063D01*
X121116063Y-112370226D01*
X121002795Y-112539744D01*
X120924774Y-112728102D01*
X120885000Y-112928061D01*
X120885000Y-113015000D01*
X115370323Y-113015000D01*
X115333000Y-113011324D01*
X115295677Y-113015000D01*
X115295667Y-113015000D01*
X115221014Y-113022353D01*
X115163939Y-113011000D01*
X114960061Y-113011000D01*
X114760102Y-113050774D01*
X114571744Y-113128795D01*
X114402226Y-113242063D01*
X114258063Y-113386226D01*
X114144795Y-113555744D01*
X114066774Y-113744102D01*
X114027000Y-113944061D01*
X104127000Y-113944061D01*
X104127000Y-100830413D01*
X147714192Y-100830413D01*
X147809956Y-101094814D01*
X148099571Y-101235704D01*
X148411108Y-101317384D01*
X148732595Y-101336718D01*
X149051675Y-101292961D01*
X149356088Y-101187795D01*
X149530044Y-101094814D01*
X149625808Y-100830413D01*
X148670000Y-99874605D01*
X147714192Y-100830413D01*
X104127000Y-100830413D01*
X104127000Y-99757595D01*
X147028282Y-99757595D01*
X147072039Y-100076675D01*
X147177205Y-100381088D01*
X147270186Y-100555044D01*
X147534587Y-100650808D01*
X148490395Y-99695000D01*
X147534587Y-98739192D01*
X147270186Y-98834956D01*
X147129296Y-99124571D01*
X147047616Y-99436108D01*
X147028282Y-99757595D01*
X104127000Y-99757595D01*
X104127000Y-96779872D01*
X104765000Y-96779872D01*
X104765000Y-97220128D01*
X104850890Y-97651925D01*
X105019369Y-98058669D01*
X105263962Y-98424729D01*
X105575271Y-98736038D01*
X105941331Y-98980631D01*
X106348075Y-99149110D01*
X106779872Y-99235000D01*
X107220128Y-99235000D01*
X107651925Y-99149110D01*
X108058669Y-98980631D01*
X108424729Y-98736038D01*
X108736038Y-98424729D01*
X108828310Y-98286633D01*
X132630472Y-98286633D01*
X132692965Y-98522950D01*
X132935678Y-98636350D01*
X133195849Y-98700219D01*
X133463482Y-98712104D01*
X133728291Y-98671548D01*
X133980100Y-98580109D01*
X134087035Y-98522950D01*
X134149528Y-98286633D01*
X137630472Y-98286633D01*
X137692965Y-98522950D01*
X137935678Y-98636350D01*
X138195849Y-98700219D01*
X138463482Y-98712104D01*
X138728291Y-98671548D01*
X138980100Y-98580109D01*
X139018493Y-98559587D01*
X147714192Y-98559587D01*
X148670000Y-99515395D01*
X149625808Y-98559587D01*
X149530044Y-98295186D01*
X149240429Y-98154296D01*
X148928892Y-98072616D01*
X148607405Y-98053282D01*
X148288325Y-98097039D01*
X147983912Y-98202205D01*
X147809956Y-98295186D01*
X147714192Y-98559587D01*
X139018493Y-98559587D01*
X139087035Y-98522950D01*
X139149528Y-98286633D01*
X138390000Y-97527105D01*
X137630472Y-98286633D01*
X134149528Y-98286633D01*
X133390000Y-97527105D01*
X132630472Y-98286633D01*
X108828310Y-98286633D01*
X108980631Y-98058669D01*
X109149110Y-97651925D01*
X109195047Y-97420982D01*
X132025396Y-97420982D01*
X132065952Y-97685791D01*
X132157391Y-97937600D01*
X132214550Y-98044535D01*
X132450867Y-98107028D01*
X133210395Y-97347500D01*
X133569605Y-97347500D01*
X134329133Y-98107028D01*
X134565450Y-98044535D01*
X134678850Y-97801822D01*
X134742719Y-97541651D01*
X134748077Y-97420982D01*
X137025396Y-97420982D01*
X137065952Y-97685791D01*
X137157391Y-97937600D01*
X137214550Y-98044535D01*
X137450867Y-98107028D01*
X138210395Y-97347500D01*
X138569605Y-97347500D01*
X139329133Y-98107028D01*
X139565450Y-98044535D01*
X139678850Y-97801822D01*
X139742719Y-97541651D01*
X139754604Y-97274018D01*
X139714048Y-97009209D01*
X139622609Y-96757400D01*
X139565450Y-96650465D01*
X139329133Y-96587972D01*
X138569605Y-97347500D01*
X138210395Y-97347500D01*
X137450867Y-96587972D01*
X137214550Y-96650465D01*
X137101150Y-96893178D01*
X137037281Y-97153349D01*
X137025396Y-97420982D01*
X134748077Y-97420982D01*
X134754604Y-97274018D01*
X134714048Y-97009209D01*
X134622609Y-96757400D01*
X134565450Y-96650465D01*
X134329133Y-96587972D01*
X133569605Y-97347500D01*
X133210395Y-97347500D01*
X132450867Y-96587972D01*
X132214550Y-96650465D01*
X132101150Y-96893178D01*
X132037281Y-97153349D01*
X132025396Y-97420982D01*
X109195047Y-97420982D01*
X109235000Y-97220128D01*
X109235000Y-96779872D01*
X109149110Y-96348075D01*
X108980631Y-95941331D01*
X108736038Y-95575271D01*
X108424729Y-95263962D01*
X108058669Y-95019369D01*
X107651925Y-94850890D01*
X107267888Y-94774500D01*
X131155000Y-94774500D01*
X131155000Y-95124500D01*
X131203507Y-95362996D01*
X131297610Y-95587446D01*
X131433693Y-95789225D01*
X131606526Y-95960578D01*
X131809467Y-96094921D01*
X132034718Y-96187091D01*
X132072391Y-96190962D01*
X132263000Y-96066231D01*
X132263000Y-94774500D01*
X132517000Y-94774500D01*
X132517000Y-96066231D01*
X132690862Y-96180003D01*
X132630472Y-96408367D01*
X133390000Y-97167895D01*
X134149528Y-96408367D01*
X137630472Y-96408367D01*
X138390000Y-97167895D01*
X139149528Y-96408367D01*
X139089138Y-96180003D01*
X139263000Y-96066231D01*
X139263000Y-94774500D01*
X139517000Y-94774500D01*
X139517000Y-96066231D01*
X139707609Y-96190962D01*
X139745282Y-96187091D01*
X139970533Y-96094921D01*
X140173474Y-95960578D01*
X140346307Y-95789225D01*
X140482390Y-95587446D01*
X140576493Y-95362996D01*
X140625000Y-95124500D01*
X140625000Y-94774500D01*
X139517000Y-94774500D01*
X139263000Y-94774500D01*
X138155000Y-94774500D01*
X138155000Y-95124500D01*
X138203507Y-95362996D01*
X138297610Y-95587446D01*
X138433693Y-95789225D01*
X138606526Y-95960578D01*
X138701836Y-96023671D01*
X138584151Y-95994781D01*
X138316518Y-95982896D01*
X138051709Y-96023452D01*
X137799900Y-96114891D01*
X137692965Y-96172050D01*
X137630472Y-96408367D01*
X134149528Y-96408367D01*
X134087035Y-96172050D01*
X133844322Y-96058650D01*
X133584151Y-95994781D01*
X133316518Y-95982896D01*
X133086558Y-96018115D01*
X133173474Y-95960578D01*
X133346307Y-95789225D01*
X133482390Y-95587446D01*
X133576493Y-95362996D01*
X133625000Y-95124500D01*
X133625000Y-94774500D01*
X132517000Y-94774500D01*
X132263000Y-94774500D01*
X131155000Y-94774500D01*
X107267888Y-94774500D01*
X107220128Y-94765000D01*
X106779872Y-94765000D01*
X106348075Y-94850890D01*
X105941331Y-95019369D01*
X105575271Y-95263962D01*
X105263962Y-95575271D01*
X105019369Y-95941331D01*
X104850890Y-96348075D01*
X104765000Y-96779872D01*
X104127000Y-96779872D01*
X104127000Y-94127000D01*
X131163847Y-94127000D01*
X131155000Y-94170500D01*
M02*
